<?xml version="1.0" standalone="no"?>
<!DOCTYPE svg PUBLIC "-//W3C//DTD SVG 1.1//EN" "http://www.w3.org/Graphics/SVG/1.1/DTD/svg11.dtd" >
<svg xmlns="http://www.w3.org/2000/svg">
<metadata></metadata>
<defs>
<font id="heldustryft_regular_italicRg" horiz-adv-x="409" >
<font-face units-per-em="2048" ascent="1638" descent="-410" />
<missing-glyph horiz-adv-x="450" />
<glyph horiz-adv-x="2048" />
<glyph horiz-adv-x="2048" />
<glyph unicode="&#xd;" horiz-adv-x="1024" />
<glyph unicode=" "  horiz-adv-x="450" />
<glyph unicode="&#x09;" horiz-adv-x="450" />
<glyph unicode="&#xa0;" horiz-adv-x="450" />
<glyph unicode="!" horiz-adv-x="450" d="M125 0h197l36 195h-196zM242 340h100l166 598l104 532h-196l-105 -530z" />
<glyph unicode="&#x22;" horiz-adv-x="614" d="M324 1044h100l123 426h-178zM596 1044h100l123 426h-178z" />
<glyph unicode="#" horiz-adv-x="1167" d="M154 500h221l-164 -500h151l164 500h234l-162 -500h143l164 500h230l49 141h-232l78 236h232l47 141h-232l137 414h-143l-137 -414h-236l136 414h-152l-135 -414h-219l-49 -141h221l-78 -236h-221zM573 641l78 236h236l-80 -236h-234z" />
<glyph unicode="$" horiz-adv-x="1245" d="M145 286q5 -91 49 -154.5t133 -100.5t240 -45l-35 -176h117l35 176q86 2 178 19.5t172 63.5t141.5 127t86.5 210q20 100 11 167.5t-57.5 113.5t-138.5 75t-233 53l96 496q100 -6 151.5 -33t72 -68t19.5 -93t-7 -109h157q27 141 8.5 228t-69.5 134t-130 65.5t-171 24.5 l20 105h-117l-20 -105q-90 -6 -176 -22.5t-156.5 -57.5t-122 -113.5t-73.5 -193.5q-23 -109 -8.5 -175.5t62.5 -108t129 -66.5t191 -49l-104 -539q-111 6 -172.5 38t-90 81t-28.5 111q0 61 12 127h-159q-18 -115 -13 -206zM490.5 974q-9.5 40 3.5 105q14 72 49 117t81 70.5 t98 35t101 9.5l-90 -471q-72 14 -122 29.5t-80.5 40t-40 64.5zM713 135l100 514q61 -10 118.5 -22.5t99.5 -36t62.5 -65t6.5 -111.5q-18 -94 -58.5 -147.5t-93.5 -81t-114.5 -37t-120.5 -13.5z" />
<glyph unicode="%" horiz-adv-x="1783" d="M237.5 818q2.5 -83 31 -139t87 -85t152.5 -29q98 0 167.5 30t119 87t80.5 141t51 193q47 233 -11.5 340.5t-236.5 107.5q-121 0 -196.5 -46t-121 -113.5t-68 -147.5t-34.5 -147q-23 -109 -20.5 -192zM404.5 777q-19.5 83 11.5 245q29 154 79 232.5t154 78.5 q106 0 130 -79t-11 -253q-31 -160 -83 -233.5t-150 -73.5q-111 0 -130.5 83zM586 -43h159l746 1534h-160zM1115.5 222q0.5 -83 29.5 -139t87 -85t152 -29q98 0 168 30t119 87t79.5 141t53.5 193q45 233 -13 340.5t-237 107.5q-121 0 -196.5 -46t-120.5 -113.5t-67.5 -147.5 t-34.5 -147q-20 -109 -19.5 -192zM1281 181q-19 83 11 245q31 154 80 232.5t154 78.5q106 0 130 -78.5t-11 -252.5q-31 -160 -83.5 -234t-150.5 -74q-111 0 -130 83z" />
<glyph unicode="&#x26;" horiz-adv-x="1296" d="M123 352q-20 -109 2 -182.5t77.5 -117.5t137.5 -62.5t180 -18.5q111 0 188.5 17.5t132 44t93.5 60.5t74 65l86 -158h202l-182 319q29 47 49.5 89.5t35.5 85.5t28.5 87t27.5 97h-157q-8 -43 -15.5 -74t-14.5 -55.5t-16.5 -46t-19.5 -43.5l-219 372q70 47 125 90.5t96 88.5 t67.5 95t39.5 114q14 80 -4.5 134t-59.5 87t-97 47t-116 14q-74 0 -138 -20.5t-114.5 -57.5t-84 -88t-46.5 -114q-10 -55 -5 -96.5t24 -77.5l96 -187q-86 -59 -163 -107t-138.5 -102.5t-106.5 -124t-65 -174.5zM307 377q14 72 52 128t89.5 100t107.5 78t108 60l264 -450 q-16 -23 -45 -54.5t-73 -59t-104.5 -47t-136.5 -19.5q-45 0 -98 9t-95 36.5t-63.5 80t-5.5 138.5zM641 1219q10 61 67.5 103t135.5 42q63 0 108 -35t29 -117q-16 -78 -74.5 -135t-156.5 -131l-82 148q-16 29 -25.5 59.5t-1.5 65.5z" />
<glyph unicode="'" d="M309 1036q96 29 159.5 91.5t86.5 179.5l33 166h-193l-39 -195h86q-6 -27 -14 -46.5t-20.5 -36.5t-31 -31.5t-48.5 -30.5z" />
<glyph unicode="(" horiz-adv-x="614" d="M145 233q0 -82 16.5 -157.5t57.5 -133t110 -92t175 -36.5l28 145q-70 10 -114.5 46t-64 106.5t-14.5 181t36 270.5l71 367q33 166 72 273.5t87 172t104.5 93t124.5 36.5l28 152q-109 -4 -203 -43t-170.5 -124t-136 -222.5t-98.5 -335.5l-70 -365q-16 -80 -27.5 -165 t-11.5 -169z" />
<glyph unicode=")" horiz-adv-x="614" d="M37 -186q160 4 267.5 77.5t177 184t108.5 242t61 249.5l70 365q39 199 33 336t-50.5 222t-123 124t-185.5 43l-28 -152q63 -8 108 -36.5t67.5 -93t20.5 -172t-35 -273.5l-71 -367q-31 -160 -68 -270.5t-85 -181t-106.5 -106.5t-131.5 -46z" />
<glyph unicode="*" horiz-adv-x="655" d="M256 1071l35 -86l194 96l-41 -204h103l41 204l157 -96l72 86l-155 98l194 107l-37 86l-196 -98l41 206h-103l-41 -206l-155 98l-70 -86l154 -107z" />
<glyph unicode="+" horiz-adv-x="1198" d="M154 465h448l-90 -465h176l90 465h449l35 180h-449l84 428h-176l-84 -428h-449z" />
<glyph unicode="," d="M45 -293q98 31 172.5 116t97.5 204l35 182h-207l-41 -209h84q-14 -68 -38.5 -103.5t-79.5 -74.5z" />
<glyph unicode="-" horiz-adv-x="757" d="M293 465h534l70 180h-535z" />
<glyph unicode="." d="M102 0h207l41 209h-207z" />
<glyph unicode="/" horiz-adv-x="581" d="M-27 -43h158l746 1534h-158z" />
<glyph unicode="0" horiz-adv-x="1249" d="M188 396.5q2 -140.5 49.5 -232.5t142.5 -138t245 -46q158 0 271.5 48t193 144t133 239.5t90.5 333.5q39 205 32.5 346.5t-57.5 230.5t-145 129t-232 40q-156 0 -268.5 -46t-192 -140.5t-134 -238.5t-93.5 -341q-37 -188 -35 -328.5zM367.5 477q7.5 115 38.5 268 q27 143 60.5 255t85.5 187t132 113.5t203 38.5q104 0 167.5 -34.5t91.5 -108.5t24 -186.5t-35 -268.5q-29 -152 -69 -266.5t-95.5 -191t-131 -114.5t-175.5 -38q-117 0 -183.5 39t-93.5 115.5t-19.5 191.5z" />
<glyph unicode="1" horiz-adv-x="706" d="M233 1092h367l-213 -1092h188l285 1468h-141q-31 -76 -74 -126t-101.5 -80.5t-130 -44t-159.5 -13.5z" />
<glyph unicode="2" horiz-adv-x="1136" d="M61 0h988l30 162h-776q18 39 46 75.5t63 61.5q109 76 210 130t190 101.5t165 92.5t135 100t101.5 129t62.5 176q47 246 -49.5 354.5t-331.5 108.5q-158 0 -263.5 -39t-173 -105.5t-104.5 -154.5t-55 -184q-4 -12 -4 -25q0 -12 -4 -27h178q16 88 36.5 159t60.5 121 t107.5 76.5t180.5 26.5q160 0 212 -69.5t24 -210.5q-25 -131 -103 -215t-181.5 -148.5t-221 -120t-223 -130t-187.5 -179t-113 -266.5z" />
<glyph unicode="3" horiz-adv-x="1249" d="M162 381q-4 -57 4 -113.5t35.5 -109t84 -92t145.5 -63t222 -23.5q272 0 414.5 114.5t183.5 325.5q20 104 6 170.5t-46.5 107.5t-76.5 60.5t-83 32.5q45 8 88 29.5t79.5 58t64.5 90t42 127.5q20 111 5 186.5t-66.5 121.5t-137.5 66.5t-204 20.5q-176 0 -285 -51 t-173.5 -126t-93 -159t-42.5 -149h174q14 51 33.5 109.5t59.5 108.5t110.5 82.5t187.5 32.5q156 0 214 -61t36 -182q-18 -90 -60.5 -139.5t-103.5 -72t-138 -26.5t-163 -4l-27 -141q86 0 169 -4t143.5 -31t90 -83t9.5 -163q-14 -72 -41 -128t-73 -94t-115.5 -58.5 t-167.5 -20.5q-125 0 -192.5 34t-96.5 86t-28 115.5t11 120.5h-184q-10 -49 -14 -106z" />
<glyph unicode="4" horiz-adv-x="1224" d="M139 344h699l-68 -344h174l68 344h233l27 143h-234l191 981h-139l-920 -966zM330 487l667 687l-133 -687h-534z" />
<glyph unicode="5" horiz-adv-x="1212" d="M159 277.5q7 -80.5 52 -146t136 -108.5t245 -43q150 0 258 31.5t184 96t122 165t73 237.5q6 29 13 77t4 103t-21.5 111.5t-64.5 102.5t-125 76t-201 30q-102 0 -178 -24.5t-160 -65.5l163 385h654l30 163h-788l-309 -768h166q31 25 67.5 52.5t82.5 51t101.5 39 t127.5 15.5q119 0 177 -41t78.5 -97t15.5 -115.5t-13 -96.5q-20 -102 -51 -174t-79.5 -117t-118 -65.5t-165.5 -20.5q-115 0 -175.5 29.5t-88 75t-30.5 99.5t-1 101h-174q-14 -78 -7 -158.5z" />
<glyph unicode="6" horiz-adv-x="1249" d="M184 376q4 -132 54.5 -220t152 -132t260.5 -44q262 0 416 124.5t201 368.5q51 260 -52.5 382t-361.5 122q-90 0 -158.5 -16.5t-121 -44t-91.5 -62.5t-69 -74q20 109 57 210.5t95.5 179t141.5 123.5t199 46q113 0 170.5 -26.5t81 -66.5t23.5 -87q0 -45 -2 -84h180 q6 72 6 146t-35 134t-118 98t-244 38q-154 0 -274 -36t-211 -126t-156.5 -245.5t-112.5 -397.5q-35 -178 -31 -310zM380 311.5q-15 59.5 1 143.5q35 174 132 262t267 88q92 0 160 -12.5t107.5 -47t52 -97.5t-7.5 -163q-16 -88 -46 -152.5t-78 -107.5t-117 -63.5t-165 -20.5 q-82 0 -145.5 17.5t-104.5 55.5t-56 97.5z" />
<glyph unicode="7" horiz-adv-x="1085" d="M236 0h194q16 68 52 168t91.5 216t127 244t161.5 252t197.5 238.5t230.5 206.5l27 143h-979l-31 -161h766q-156 -129 -286 -286t-234 -327t-183 -347t-134 -347z" />
<glyph unicode="8" horiz-adv-x="1249" d="M161.5 230q18.5 -87 74 -143t144.5 -81.5t208 -25.5q104 0 209.5 15t196.5 64.5t159.5 141t99.5 245.5q18 94 7 162t-40.5 112t-70.5 67.5t-84 33.5q33 16 69.5 37t72.5 54.5t64.5 85t45.5 128.5q20 102 0.5 172t-70.5 113t-132 61.5t-185 18.5q-80 0 -170 -13.5 t-171 -52.5t-142.5 -112.5t-86.5 -192.5q-16 -86 -4.5 -140t37 -87t57 -48.5t58.5 -23.5q-53 -23 -105.5 -50.5t-98.5 -70.5t-82 -105.5t-54 -154.5q-25 -123 -6.5 -210zM348 418q18 92 58 153.5t96.5 99.5t129.5 54t154 16q61 0 120 -14t102 -48t62 -91.5t3 -143.5 q-16 -84 -48 -143t-84 -97t-127 -55.5t-175 -17.5q-68 0 -128 12.5t-102 44t-60.5 87t-0.5 143.5zM535 1116q25 129 115.5 178t226.5 49q68 0 121 -8t87.5 -30.5t50 -60.5t3.5 -97q-29 -147 -120 -202.5t-241 -55.5q-55 0 -105 10t-85 37t-50.5 71t-2.5 109z" />
<glyph unicode="9" horiz-adv-x="1249" d="M182 395q-10 -111 1.5 -189.5t56.5 -128.5t129 -73.5t221 -23.5q131 0 242.5 29.5t203.5 116.5t164 245.5t121 414.5q33 176 29 308.5t-53.5 220.5t-149.5 132t-256 44q-254 0 -409.5 -118t-202.5 -359q-49 -260 54 -383t351 -123q90 0 160.5 12t126 39t99.5 68t81 98 q-37 -186 -96.5 -302t-130 -180.5t-147.5 -88t-146 -23.5q-113 0 -171.5 24.5t-82 63.5t-22.5 86t5 90h-178zM442.5 834.5q-10.5 62.5 8.5 158.5q35 172 121.5 259t263.5 87q113 0 180 -25.5t101 -69.5t39 -106.5t-9 -136.5q-31 -160 -136.5 -246.5t-291.5 -86.5 q-80 0 -138.5 15t-93 52t-45 99.5z" />
<glyph unicode=":" d="M102 0h207l41 209h-207zM270 864h207l41 209h-207z" />
<glyph unicode=";" d="M-12 -293q104 31 195.5 116t138.5 204l69 182h-207l-82 -209h84q-14 -35 -27.5 -59.5t-30.5 -44t-41 -38t-54 -36.5zM438 864h207l82 209h-207z" />
<glyph unicode="&#x3c;" horiz-adv-x="1191" d="M162 455l962 -428l31 166l-786 335l919 342l31 160l-1129 -430z" />
<glyph unicode="=" horiz-adv-x="901" d="M98 225h785l35 181h-785zM190 690h785l35 180h-785z" />
<glyph unicode="&#x3e;" horiz-adv-x="1191" d="M80 27l1126 428l29 145l-961 430l-30 -160l784 -342l-917 -335z" />
<glyph unicode="?" horiz-adv-x="993" d="M246 1008h162q18 51 35.5 114.5t55.5 116.5t103.5 90t177.5 37q125 0 179.5 -64.5t31.5 -181.5q-12 -70 -32.5 -113.5t-48 -74.5t-62.5 -54.5t-78 -54.5q-49 -35 -99 -75.5t-95.5 -96t-81 -131.5t-56.5 -180h156q20 84 45 140.5t58.5 99.5t78.5 78.5t109 76.5 q37 25 78 52.5t78.5 68.5t68.5 102.5t49 151.5q12 63 9 133t-37.5 127t-108.5 94t-203 37q-158 0 -261 -42t-166.5 -111.5t-95.5 -158.5t-50 -181zM352 0h195l37 195h-195z" />
<glyph unicode="@" horiz-adv-x="1466" d="M127 332q-74 -381 57 -557t473 -176q70 0 134.5 6t132.5 26l30 154q-66 -16 -125 -26.5t-124 -10.5q-135 0 -223.5 37t-133.5 112.5t-50 190.5t26 270q59 305 211.5 463t404.5 158q84 0 148.5 -17.5t107.5 -49t61.5 -73.5t10.5 -91q-8 -43 -42 -59.5t-75 -24.5 q-41 -6 -98.5 -10.5t-130.5 -16.5q-172 -31 -267.5 -112t-124.5 -228q-29 -154 42 -239t223 -85q49 0 94 7.5t91 26t97 48t113 74.5q-6 -76 32 -107.5t119 -31.5q41 0 107 14l27 137q-8 -2 -23 -2q-29 0 -43 7.5t-20.5 18.5t-5.5 26.5t6 31.5l4 23l55 276q29 143 28 247.5 t-49 176.5q-57 86 -172.5 134t-277.5 48q-344 0 -557 -195.5t-293 -600.5zM750 317q16 78 60 120t132 59q47 10 88 16t76 12t64.5 18.5t82.5 53.5l-47 -238q-10 -53 -40.5 -95t-76 -71.5t-98.5 -46t-108 -16.5q-90 0 -120 50t-13 138z" />
<glyph unicode="A" horiz-adv-x="1255" d="M-10 0h194l236 444h563l74 -444h209l-265 1470h-202zM508 604l348 660l102 -660h-450z" />
<glyph unicode="B" horiz-adv-x="1376" d="M143 0h707q29 0 74 2t98 13.5t108.5 36t105.5 70.5t89 118t59 174q14 69 14 120q0 22 -3 42q-9 62 -37.5 101.5t-73.5 62t-96 44.5q39 10 81 34t78.5 60.5t64.5 89t42 124.5q12 63 12 113q0 25 -3 47q-9 66 -36.5 107.5t-66.5 64t-81 32.5t-82 12t-67 2h-700zM369 166 l100 516h473q147 0 212 -59q45 -41 45 -125q0 -38 -9 -84q-16 -80 -47 -129t-69 -75t-79 -35t-75 -9h-551zM500 842l90 463h452q55 0 102.5 -4.5t79.5 -24.5q32 -21 44 -66q5 -20 5 -47q0 -34 -9 -80q-12 -59 -40 -106t-94 -84q-31 -16 -56 -26.5t-52 -15.5t-56.5 -7 t-68.5 -2h-397z" />
<glyph unicode="C" horiz-adv-x="1441" d="M196 392q14 -126 58.5 -208t113 -126t142.5 -64.5t145.5 -23.5t122.5 -3q133 0 246 30t203 97.5t154.5 176t99.5 264.5h-181q-29 -92 -65.5 -168t-92 -129.5t-134 -83t-193.5 -29.5q-84 0 -172 16.5t-151.5 75.5t-89.5 174q-11 47 -11 107q0 89 23 207q31 162 77 281.5 t118.5 199.5t176 118.5t250.5 38.5q113 0 180.5 -24.5t105.5 -67.5t53.5 -99t21.5 -118h176q-2 16 -1 58v9q0 39 -8 86q-10 52 -35.5 107.5t-80.5 101.5t-144.5 75.5t-226.5 29.5q-217 0 -365.5 -58.5t-246.5 -162.5t-154.5 -251.5t-91.5 -326.5q-27 -135 -27 -238 q0 -38 4 -72z" />
<glyph unicode="D" horiz-adv-x="1429" d="M143 0h529q160 0 277.5 31.5t203.5 87t143.5 128t95.5 154.5t60.5 169t38.5 169q31 157 31 276q0 39 -4 75q-14 142 -71.5 225.5t-160 119t-239.5 35.5h-617zM371 166l221 1139h432q119 0 186.5 -43t95.5 -120q24 -66 25 -152q0 -14 -1 -30q-5 -106 -30 -229 q-31 -164 -81 -273.5t-119.5 -174t-158.5 -91t-200 -26.5h-370z" />
<glyph unicode="E" horiz-adv-x="1282" d="M143 0h1096l33 166h-901l102 532h807l33 166h-807l86 441h876l33 165h-1071z" />
<glyph unicode="F" horiz-adv-x="1169" d="M143 0h195l133 688h688l31 160h-688l90 457h821l33 165h-1016z" />
<glyph unicode="G" horiz-adv-x="1486" d="M204 426q9 -152 70.5 -254t180 -153.5t297.5 -51.5q109 0 185.5 18.5t133.5 46t100 61.5t82 67l19 -160h133l147 762h-618l-31 -164h422q-8 -37 -18.5 -82t-31 -91t-55 -94t-90.5 -91q-78 -61 -160.5 -88t-174.5 -27q-262 0 -351 153q-53 90 -53 239q0 106 27 243 t74 244.5t118.5 183.5t171 115.5t232.5 39.5q137 0 215 -32.5t114.5 -80.5t40.5 -102q2 -19 2 -36q0 -33 -6 -62h201q0 6 3 44q1 11 1 24q0 30 -5 66q-7 53 -32.5 112t-82 109.5t-150.5 83t-238 32.5q-358 0 -567 -184t-277 -537q-31 -163 -31 -293q0 -32 2 -61z" />
<glyph unicode="H" horiz-adv-x="1415" d="M143 0h195l137 702h780l-137 -702h195l286 1470h-194l-119 -608h-780l119 608h-195z" />
<glyph unicode="I" horiz-adv-x="479" d="M164 0h192l287 1470h-192z" />
<glyph unicode="J" horiz-adv-x="1050" d="M110 178q17 -88 66 -135t127 -61.5t174 -14.5q88 0 152.5 9.5t114 28t86 46t73.5 62.5q59 61 85 142t42 171l205 1044h-195l-200 -1032q-16 -86 -32.5 -146.5t-50.5 -97t-96.5 -53t-168.5 -16.5q-57 0 -99.5 8t-67 36t-29.5 80q-1 12 -1 27q0 45 12 111l17 84h-187 q-4 -16 -7 -30.5t-7 -30.5q-18 -92 -18 -161q0 -40 5 -71z" />
<glyph unicode="K" horiz-adv-x="1314" d="M143 0h193l104 537l254 196l406 -733h239l-487 862l739 608h-243l-865 -712l140 712h-193z" />
<glyph unicode="L" horiz-adv-x="1122" d="M143 0h969l33 166h-774l254 1304h-195z" />
<glyph unicode="M" horiz-adv-x="1708" d="M143 0h189l239 1237l230 -1237h145l711 1237l-240 -1237h189l286 1470h-260l-710 -1222l-232 1222h-260z" />
<glyph unicode="N" horiz-adv-x="1415" d="M143 0h189l231 1194l535 -1194h215l286 1470h-188l-237 -1214l-539 1214h-205z" />
<glyph unicode="O" horiz-adv-x="1595" d="M204 412q14 -142 82 -241t191 -151.5t307 -52.5q377 0 587 191.5t286 576.5q26 131 26 243q1 40 -3 78q-12 142 -78 241.5t-190 151.5t-312 52q-209 0 -359.5 -58.5t-255 -161.5t-167 -243.5t-93.5 -302.5q-25 -127 -25 -236q0 -45 4 -87zM414 717q31 154 81 270.5 t127.5 196.5t187.5 119.5t257 39.5q270 1 365 -145q59 -90 59 -242q0 -94 -23 -213q-59 -305 -208.5 -461.5t-419.5 -156.5q-288 -1 -386 149q-61 94 -62 244q0 90 22 199z" />
<glyph unicode="P" horiz-adv-x="1310" d="M143 0h193l119 614h499q102 0 179 27t132.5 67t91.5 90t58.5 98t32.5 87t14 59q15 75 14 134q0 67 -18 113q-35 87 -109.5 127t-174 47t-197.5 7h-547zM487 780l103 525h371q70 0 134 -3.5t111 -27.5q46 -23 68 -74q12 -28 12 -69q0 -34 -8 -78q-12 -59 -32.5 -109.5 t-58.5 -86.5t-96.5 -56.5t-144.5 -20.5h-459z" />
<glyph unicode="Q" horiz-adv-x="1595" d="M204 412q15 -142 82.5 -241t190.5 -151.5t307 -52.5q72 0 182.5 12.5t221.5 63.5l176 -166l127 129l-143 133q63 51 113 118t88 144.5t65 162.5t43 171q26 131 26 243q0 40 -3 78q-13 142 -78.5 241.5t-189.5 151.5t-312 52q-209 0 -359.5 -58.5t-255 -161.5t-167 -243.5 t-93.5 -302.5q-25 -127 -25 -236q0 -45 4 -87zM414 717q31 154 81 270.5t127.5 196.5t187.5 119.5t257 39.5q270 0 365 -145q59 -90 59 -242q0 -95 -23 -213q-33 -166 -93 -293.5t-148 -195.5l-170 158l-125 -129l131 -123q-53 -23 -116.5 -29t-106.5 -6q-289 0 -386 149 q-62 94 -62 244q0 90 22 199z" />
<glyph unicode="R" horiz-adv-x="1402" d="M143 0h193l121 618h461q39 0 75.5 -3t68.5 -16t53.5 -41t29.5 -75q3 -20 3 -48q0 -29 -3 -63q-6 -70 -14.5 -143t-12.5 -137q-1 -18 -1 -33q0 -38 7 -59h217q-12 23 -18 47.5t-6 56.5q0 33 3 77t9 108q5 68 13 128q4 32 5 62q1 25 -3 51q-6 54 -32 97t-85 73q43 16 89 42 t88 68t74.5 104.5t51.5 152.5q13 67 13 120q0 27 -3 50q-10 70 -41 115t-75 68.5t-92 34.5t-94 13t-81 2h-727zM487 784l103 521h411q98 0 171 -3.5t117 -26t58 -71.5q6 -21 6 -51q0 -38 -10 -88q-23 -109 -68.5 -166t-102 -82.5t-118 -29t-112.5 -3.5h-455z" />
<glyph unicode="S" horiz-adv-x="1349" d="M162 280q10 -96 67.5 -165.5t169 -108.5t297.5 -39q143 0 247 25.5t175.5 65.5t116.5 90.5t70.5 99.5t37 92t15.5 70q14 70 14 125q0 49 -11 85q-24 78 -80 121t-139 61.5t-177 35.5q-147 25 -238.5 44t-140.5 46q-48 28 -60 70q-6 21 -6 47q0 28 6 63q25 129 128.5 182 t273.5 53q119 0 187.5 -24.5t100 -66.5t34.5 -98q1 -11 1 -23q0 -46 -10 -97h186q10 80 11 162q0 84 -43 151.5t-144.5 110.5t-292.5 43q-92 0 -190 -14t-184 -57.5t-150.5 -120t-89.5 -199.5q-13 -66 -13 -119q-1 -39 7 -71q18 -74 75.5 -120t155 -72t234.5 -48 q113 -18 189.5 -34.5t121.5 -41.5q46 -26 60 -69q7 -22 7 -52q0 -29 -7 -65q-6 -35 -21.5 -85t-59.5 -96.5t-126 -79t-222 -32.5q-143 0 -225 31.5t-121 83.5q-39 50 -45 116q-2 25 -2 50q0 42 6 86h-190q-10 -71 -10 -135q0 -40 4 -77z" />
<glyph unicode="T" horiz-adv-x="1191" d="M274 1311h480l-254 -1311h192l254 1311h479l33 159h-1151z" />
<glyph unicode="U" horiz-adv-x="1394" d="M222 246q7 -60 34 -111t80 -88t139 -58.5t213 -21.5q150 0 256.5 23.5t181 65.5t121.5 97.5t76 119t45.5 131t28.5 133.5l182 933h-195l-192 -981q-16 -80 -39 -146.5t-71 -114.5t-129 -75.5t-210 -27.5q-141 0 -211 36t-96 89q-21 43 -21 93q0 13 1 25q6 64 16 121 l193 981h-195l-188 -968q-12 -66 -20 -132q-4 -34 -3 -66q0 -29 3 -58z" />
<glyph unicode="V" horiz-adv-x="1208" d="M276 1470l234 -1470h201l794 1470h-190l-662 -1263l-184 1263h-193z" />
<glyph unicode="W" horiz-adv-x="1824" d="M276 1470l113 -1470h180l584 1239l100 -1239h166l703 1470h-197l-534 -1191l-86 1191h-211l-559 -1191l-60 1191h-199z" />
<glyph unicode="X" horiz-adv-x="1198" d="M0 0h209l508 590l289 -590h204l-358 723l653 747h-213l-520 -598l-268 598h-217l350 -747z" />
<glyph unicode="Y" horiz-adv-x="1275" d="M276 1470l388 -852l-121 -618h194l121 618l715 852h-211l-569 -694l-301 694h-216z" />
<glyph unicode="Z" horiz-adv-x="1177" d="M10 0h1157l33 166h-944l1126 1143l33 161h-1081l-33 -165h852l-1110 -1137z" />
<glyph unicode="[" horiz-adv-x="544" d="M156 0h389l26 133h-213l236 1221h213l27 127h-390z" />
<glyph unicode="\" horiz-adv-x="561" d="M266 1491l148 -1534h157l-147 1534h-158z" />
<glyph unicode="]" horiz-adv-x="544" d="M0 0h389l289 1481h-389l-27 -127h213l-235 -1221h-213z" />
<glyph unicode="^" horiz-adv-x="696" d="M274 1022h121l221 342l80 -342h121l-115 448h-120z" />
<glyph unicode="_" horiz-adv-x="1054" d="M-53 -279h1052l25 136h-1053z" />
<glyph unicode="`" horiz-adv-x="512" d="M403 1522l144 -297h100l-43 297h-201z" />
<glyph unicode="a" horiz-adv-x="1105" d="M120 152q7 -60 41 -100t98.5 -60.5t164.5 -20.5q92 0 156.5 13.5t110.5 37t79 52t61 59.5q2 -39 9.5 -65.5t27 -42t51 -21.5t82.5 -6q18 0 37 1t37 1l27 133q-50 1 -74 13q-16 8 -16 41q0 16 4 38l104 529q12 66 13 119q0 23 -3 43q-8 66 -48 107.5t-112.5 60 t-183.5 18.5q-172 0 -271 -35t-152.5 -89t-73 -117.5t-31.5 -119.5h170q12 59 28.5 100.5t49.5 68t87 37.5t140 11q66 0 112 -6t71 -24q26 -20 33 -52q3 -13 3 -30q0 -24 -6 -55q-2 -12 -7 -33t-15.5 -41.5t-25.5 -37.5t-38 -20q-217 -29 -353 -58.5t-215 -71.5t-114 -99 t-49 -137q-11 -56 -11 -102q0 -21 2 -39zM307 274q8 43 20.5 78t47.5 61.5t99.5 47t178.5 35.5q51 6 111.5 17t138.5 36l-24 -127q-31 -160 -129.5 -233.5t-260.5 -73.5q-92 -1 -146 33q-40 25 -40 84q0 19 4 42z" />
<glyph unicode="b" horiz-adv-x="1165" d="M133 0h160l31 156q10 -35 28.5 -68t52 -58.5t89 -42t141.5 -16.5q100 0 189 27t162 93.5t127 179t89 284.5q22 118 23 210q1 132 -47 208q-80 129 -322 129q-92 0 -152.5 -16.5t-101.5 -44t-66.5 -62.5t-50.5 -70l113 572h-176zM384 349v22q0 67 15 149q10 49 33 123 t68 144.5t117.5 120.5t185.5 50q92 0 146.5 -24.5t76.5 -73.5q20 -44 21 -110q-1 -7 -1 -15q-2 -76 -22 -176q-23 -115 -51.5 -197.5t-70.5 -138t-101.5 -82t-143.5 -26.5q-92 0 -151.5 27.5t-89 79.5t-32.5 127z" />
<glyph unicode="c" horiz-adv-x="1107" d="M164 244q24 -110 84.5 -171t147.5 -81.5t177 -20.5q152 0 252.5 43t162 104.5t91 130.5t39.5 122h-174q-14 -45 -31.5 -91.5t-52.5 -83t-94 -59t-158 -22.5q-98 0 -157.5 26.5t-87 78.5t-28.5 129v7q0 74 19 172q23 113 56.5 195t85 134t120 76.5t158.5 24.5 q84 0 131 -19t70.5 -51t29 -72t5.5 -79h174q3 28 3 57.5t-3 62.5q-6 65 -43 119t-116 90t-216 36q-125 0 -228.5 -32t-183.5 -101.5t-136 -177t-85 -259.5q-21 -106 -21 -188q0 -56 9 -100z" />
<glyph unicode="d" horiz-adv-x="1161" d="M158 310q8 -100 38.5 -165t76.5 -101t95.5 -51.5t95.5 -18.5t75 -3q76 0 132 12.5t98 34t72.5 51t57.5 66.5l-27 -135h177l288 1481h-176l-110 -561q-18 80 -94 131t-205 51q-31 0 -77 -2t-100.5 -17.5t-113 -48.5t-112.5 -94t-98 -154.5t-71 -230.5q-23 -115 -23 -202 q-1 -22 1 -43zM342 362q2 82 25 195q20 113 52 189.5t75 124t101 67.5t136 20q123 0 181 -47t76 -115q11 -44 12 -92q0 -26 -4 -53q-10 -76 -21 -133q-6 -37 -24.5 -104.5t-59.5 -134t-111.5 -115.5t-183.5 -49q-92 0 -148 27q-56 26 -82 82q-24 51 -24 126v12z" />
<glyph unicode="e" horiz-adv-x="1159" d="M158 258q16 -102 70.5 -165.5t141.5 -92.5t199 -29q141 0 237.5 31t158 81t95.5 112.5t50 126.5h-166q-20 -51 -46 -90t-63.5 -65t-93 -39t-133.5 -13q-117 0 -175 35q-59 34 -81 88q-18 44 -17 94v22q5 64 15 123h807q4 20 9.5 41t9.5 41q21 106 22 186q0 23 -2 43 q-8 94 -39 153.5t-76 92.5t-94 48.5t-96 17.5t-78 2q-131 0 -235.5 -31t-184.5 -101.5t-135 -183t-88 -276.5q-18 -96 -18 -172q0 -43 6 -80zM379 621q18 66 45 126t70 107t108.5 75.5t163.5 28.5q94 0 148 -24q56 -25 80 -69q23 -41 23 -99q-1 -4 -1 -7q-2 -62 -15 -138 h-622z" />
<glyph unicode="f" horiz-adv-x="550" d="M158 0h176l178 913h197l30 160h-196l24 133q6 29 13.5 51.5t24 39t47 25.5t83.5 9q12 0 26.5 -1t26.5 -1l29 148q-25 2 -50.5 3t-49.5 1q-90 0 -147.5 -21.5t-93.5 -57.5t-54.5 -84t-28.5 -104l-26 -141h-148l-31 -160h148z" />
<glyph unicode="g" horiz-adv-x="1173" d="M119 -88q-7 -36 -7 -68q0 -92 62 -148q84 -75 322 -75q184 0 291.5 39t166 103.5t82 148.5t41.5 174l193 987h-176l-33 -162q-8 33 -25.5 67t-49.5 61.5t-84 45t-132 17.5q-127 0 -226.5 -37t-171 -105.5t-118.5 -167t-72 -223.5q-26 -129 -26 -222q0 -49 8 -87 q20 -113 77.5 -171t141.5 -73.5t172 -15.5q143 0 228 46t141 151q-27 -135 -51.5 -219t-63.5 -132.5t-100.5 -65t-161.5 -16.5q-55 0 -105.5 3.5t-87.5 16.5t-54 43q-11 19 -11 48q0 17 4 37h-174zM338 382q2 75 20 167q12 66 34 137.5t64 132t110.5 100t174.5 39.5 q82 0 134.5 -24.5t81 -63.5t40 -87t11.5 -97q0 -47 -7.5 -89t-11.5 -69q-27 -139 -75 -217t-104 -114.5t-113.5 -45t-100.5 -8.5q-98 0 -154.5 29t-81.5 82q-22 49 -22 117v11z" />
<glyph unicode="h" horiz-adv-x="1114" d="M133 0h176l121 625q33 162 127 247.5t236 85.5q74 0 114.5 -15t58.5 -48q18 -31 18 -77q0 -48 -13 -124l-135 -694h176l137 707q13 63 21 133q2 19 2 37q0 49 -16 91q-22 58 -87 96t-201 38q-94 0 -158.5 -20.5t-107.5 -51.5t-70.5 -67.5t-48.5 -67.5l115 586h-176z" />
<glyph unicode="i" horiz-adv-x="442" d="M143 0h176l209 1073h-176zM389 1268h176l43 213h-176z" />
<glyph unicode="j" horiz-adv-x="415" d="M-125 -379h111q53 0 108.5 7t104.5 57q39 39 51 70.5t22 90.5l240 1227h-176l-230 -1184q-10 -47 -17 -71.5t-26.5 -36.5t-56.5 -14.5t-104 -4.5zM373 1268h176l43 213h-176z" />
<glyph unicode="k" horiz-adv-x="1042" d="M133 0h176l82 424l189 151l270 -575h213l-352 680l485 393h-219l-551 -473l172 881h-176z" />
<glyph unicode="l" horiz-adv-x="442" d="M143 0h176l289 1481h-176z" />
<glyph unicode="m" horiz-adv-x="1638" d="M123 0h176l129 668q12 63 43 116.5t74 92t96 60t109 21.5q68 0 100 -22q33 -22 42 -54q6 -21 6 -44q0 -13 -2 -28q-5 -40 -13 -79l-142 -731h177l135 698q25 127 107.5 193.5t197.5 66.5q57 0 91 -13t49 -44q13 -27 13 -69v-11q-2 -49 -16 -123l-135 -698h176l139 721 q17 91 19 163v8q0 66 -25 112q-27 48 -87 73t-165 25q-92 0 -155.5 -19.5t-105.5 -50.5t-65.5 -67.5t-37.5 -69.5q1 10 1 21q0 22 -3 46q-4 36 -27 67.5t-70 52t-133 20.5q-78 0 -135 -17.5t-99 -46t-72 -63.5t-52 -68l33 166h-164z" />
<glyph unicode="n" horiz-adv-x="1105" d="M123 0h176l121 623q18 98 57 162.5t89 102.5t109.5 52t121.5 14q76 0 115 -20q40 -18 54 -54q11 -28 12 -65q0 -9 -1 -21q-4 -50 -16 -112l-134 -682h177l141 731q12 57 18 123q1 13 1 26q0 51 -18 95q-24 55 -90.5 91t-197.5 36q-90 0 -153.5 -18.5t-108.5 -47 t-72.5 -63.5t-48.5 -66l33 166h-176z" />
<glyph unicode="o" horiz-adv-x="1177" d="M156 298q6 -106 53 -178.5t137 -110.5t234 -38q160 0 270.5 45t183 122t113 178t63.5 216q21 108 21 199q0 17 -1 35q-5 106 -49 181t-131 115t-229 40q-279 0 -434.5 -139.5t-210.5 -425.5q-22 -107 -22 -197q1 -22 2 -42zM337 366q1 74 17 160q16 88 44 166t75 137.5 t120 94t181 34.5q98 0 157.5 -27.5t87.5 -81.5t28 -136q-1 -80 -21 -189q-20 -104 -51 -182t-80 -128t-123 -74.5t-178 -24.5q-96 0 -152 33q-54 32 -80 88q-25 53 -25 124v6z" />
<glyph unicode="p" horiz-adv-x="1169" d="M59 -377l177 -2l100 520q8 -35 23.5 -66.5t47 -54t84 -36t136.5 -13.5q117 0 209 27t162.5 90.5t120.5 169.5t81 268q24 129 24 230v22q-3 109 -43 180.5t-120 107.5t-205 36q-84 0 -145.5 -15.5t-105.5 -41t-73.5 -58.5t-50.5 -69l31 155h-170zM389 378q2 81 21 177 q37 188 133 294.5t274 106.5q84 0 134 -24.5t73 -78.5q20 -48 20 -121v-20q-3 -87 -28 -212q-12 -63 -31.5 -131t-58.5 -124.5t-105.5 -93t-171.5 -36.5q-96 0 -153.5 32.5t-83.5 90.5q-23 55 -23 128v12z" />
<glyph unicode="q" horiz-adv-x="1148" d="M150 264q8 -104 52 -168.5t125 -94.5t197 -30q88 0 148.5 16.5t102.5 41t68.5 55.5t45.5 61l-103 -524h177l282 1452h-162l-28 -147q-12 31 -28.5 62.5t-47.5 56t-82 41t-135 16.5q-37 0 -87 -4t-106.5 -21.5t-115 -53.5t-111.5 -100.5t-97 -162.5t-73 -240 q-23 -121 -23 -211q0 -24 1 -45zM331 349q3 73 21 163q23 117 52.5 202t74.5 139t110.5 79.5t160.5 25.5q100 0 153 -39.5t73 -100.5q18 -50 18 -109q0 -12 -1 -24q-4 -73 -16 -136q-16 -84 -45 -162t-78 -138.5t-120.5 -97t-176.5 -36.5q-88 0 -137 28.5t-70 80.5 q-19 46 -19 107v18z" />
<glyph unicode="r" horiz-adv-x="729" d="M123 0h176l117 596q25 125 77 192.5t113.5 99.5t120.5 37t96 5h80l33 166q-25 4 -52.5 5t-43.5 1q-35 0 -83 -3t-99.5 -25.5t-102.5 -71t-92 -138.5l41 209h-172z" />
<glyph unicode="s" horiz-adv-x="1056" d="M147 340q-6 -45 -6 -84q0 -73 22 -121q34 -74 94 -110.5t135 -45t140 -8.5q55 0 136.5 5.5t161 34t144 92t87.5 180.5q10 54 10 96q0 26 -4 47q-10 55 -51 91t-114 59.5t-179 46.5q-66 14 -121 26.5t-93 31.5q-37 19 -55 49q-11 19 -12 47q0 16 4 34q18 92 94 119.5 t187 27.5q86 0 131 -15q46 -15 64 -43q18 -27 17 -60q0 -18 -3 -80h176q3 32 3 62q1 128 -63 196q-78 84 -286 84q-63 0 -140 -6t-148.5 -36t-128 -90.5t-77.5 -170.5q-9 -47 -9 -84q-1 -29 5 -53q12 -52 52 -86.5t109 -57t167 -43t157.5 -36t91.5 -33.5q32 -16 39 -42 q3 -12 3 -28q0 -18 -4 -41q-12 -68 -45 -104.5t-78 -54t-96.5 -19.5t-100.5 -2q-84 0 -134 14t-75.5 42t-33.5 71q-5 28 -4 61q0 18 1 37h-170z" />
<glyph unicode="t" horiz-adv-x="573" d="M195 928h153l-131 -678q-10 -49 -16 -95q-2 -15 -2 -28q0 -29 9 -54q13 -36 53 -57.5t122 -21.5q70 0 137 6l27 141q-18 -2 -35.5 -3t-36.5 -1q-39 0 -59.5 3t-27.5 15.5t-4 37t11 67.5l129 668h203l29 145h-203l63 324h-176l-63 -324h-154z" />
<glyph unicode="u" horiz-adv-x="1099" d="M163 218q-1 -10 -1 -20q0 -52 22 -98q26 -56 92 -92.5t199 -36.5q90 0 152.5 17.5t105.5 45t70.5 61.5t50.5 69l-33 -164h166l209 1073h-176l-125 -639q-10 -47 -28.5 -103.5t-58.5 -104.5t-108.5 -79.5t-177.5 -31.5q-74 0 -112 21q-38 20 -52 58q-10 27 -11 63 q0 13 2 27q5 54 18 122l131 667h-176l-144 -739q-10 -54 -15 -116z" />
<glyph unicode="v" horiz-adv-x="911" d="M178 1073l174 -1073h189l583 1073h-184l-453 -876l-118 876h-191z" />
<glyph unicode="w" horiz-adv-x="1439" d="M178 1073l131 -1073h183l378 844l56 -844h170l557 1073h-185l-411 -848l-49 848h-183l-385 -858l-78 858h-184z" />
<glyph unicode="x" horiz-adv-x="970" d="M-33 0h207l393 451l236 -451h217l-330 575l455 498h-211l-322 -385l-174 385h-217l275 -498z" />
<glyph unicode="y" horiz-adv-x="954" d="M12 -377q33 -2 64 -2h63q57 0 101.5 5t84.5 26.5t79.5 68t87.5 129.5l702 1223h-190l-455 -837l-178 837h-193l246 -1030l-90 -158q-27 -47 -48.5 -70.5t-51 -32.5t-74.5 -10t-119 -1z" />
<glyph unicode="z" horiz-adv-x="956" d="M31 0h895l28 145h-690l817 834l19 94h-824l-26 -139h604l-799 -803z" />
<glyph unicode="{" horiz-adv-x="2074" d="M203 567l647 -800h268l-569 702h1526l36 199h-1525l844 702h-269z" />
<glyph unicode="|" d="M57 -309h176l349 1790h-176z" />
<glyph unicode="}" horiz-adv-x="2074" d="M184 469h1526l-844 -702h269l958 800l-647 803h-268l569 -702h-1526z" />
<glyph unicode="~" horiz-adv-x="1085" d="M197 414h104q10 27 20.5 56.5t24.5 52t33.5 37.5t46.5 15q53 0 98 -32.5t92.5 -71.5t101.5 -71.5t126 -32.5q55 0 96 22.5t69.5 60t49.5 87t37 102.5h-99q-8 -18 -16 -47t-22.5 -55.5t-38 -45t-60.5 -18.5q-45 0 -92 34t-97 74t-104.5 72.5t-115.5 32.5 q-55 0 -96.5 -23.5t-72 -62.5t-51 -87t-34.5 -99z" />
<glyph unicode="&#xa1;" horiz-adv-x="450" d="M45 -410h197l106 543l62 598h-93l-165 -590zM295 879h197l38 194h-196z" />
<glyph unicode="&#xa2;" horiz-adv-x="1105" d="M198.5 495.5q14.5 -104.5 62.5 -170t123 -96t165 -41.5l-37 -188h117l37 188q111 8 193.5 41t143 86.5t97.5 123t53 149.5h-170q-16 -59 -37.5 -106.5t-55.5 -80t-82 -51t-118 -20.5l164 839q59 -4 96 -19t58.5 -43t30 -67t8.5 -90h176q0 70 -10.5 133.5t-46.5 112.5 t-103.5 80t-179.5 39l24 125h-116l-25 -125q-90 -12 -176 -41t-159 -91.5t-129 -165t-87 -260t-16.5 -262zM376 539.5q-7 78.5 17 212.5q41 213 126 312t220 105l-166 -837q-47 6 -90 22.5t-71.5 61.5t-35.5 123.5z" />
<glyph unicode="&#xa3;" horiz-adv-x="1208" d="M70 96l47 -125q63 35 138 69t179 34q51 0 100.5 -14.5t97.5 -33t94 -32.5t91 -14q76 0 145.5 36.5t126 100t96.5 147.5t58 176h-158q-10 -37 -25.5 -90t-44 -102t-73.5 -85t-115 -36q-31 0 -66.5 15.5t-75.5 34t-85 33.5t-94 15q18 39 36.5 78t28.5 96q14 70 10.5 137.5 t-10.5 133.5h381l23 116h-443q-23 70 -38 142.5t0 150.5q23 117 99.5 173.5t190.5 56.5q102 0 153.5 -27t72 -69t18.5 -91t-6 -94h158q4 45 8 93t-1 96.5t-23.5 91.5t-59.5 74.5t-107.5 51t-167.5 19.5q-96 0 -178 -21.5t-146.5 -65.5t-108.5 -112.5t-62 -160.5 q-16 -78 -9 -158t25 -150h-133l-22 -116h202q16 -59 27.5 -122t-4.5 -149q-12 -63 -33.5 -103t-48.5 -85q-31 -8 -58.5 -16.5t-58.5 -20.5t-67.5 -30.5t-83.5 -47.5z" />
<glyph unicode="&#xa4;" horiz-adv-x="1433" d="M141 518h178q8 -129 57.5 -231.5t130.5 -173t191.5 -108.5t239.5 -38q143 0 279.5 49t240.5 117l-96 107q-190 -117 -383 -117q-201 0 -328 104.5t-157 290.5h684l30 156h-719q2 16 4.5 29.5t4.5 25.5q4 14 7 27.5t7 34.5h719l31 155h-684q45 86 111.5 158t146 124 t170 80.5t186.5 28.5q98 0 180 -24.5t148 -71.5l139 115q-82 66 -189.5 101.5t-224.5 35.5q-133 0 -260 -37t-236.5 -107.5t-198.5 -172t-147 -230.5h-178l-30 -155h149q-4 -20 -7 -34t-7 -26q-2 -12 -4 -24.5t-4 -32.5h-150z" />
<glyph unicode="&#xa5;" horiz-adv-x="1024" d="M240 188h215l-37 -188h192l37 188h215l21 109h-215l20 100h215l19 103h-215l32 159l576 811h-213l-432 -673l-170 673h-217l264 -802l-33 -168h-215l-18 -103h215l-21 -100h-215z" />
<glyph unicode="&#xa7;" horiz-adv-x="1024" d="M102 47q-35 -180 40 -267t294 -87q78 0 150.5 11t133 44t103.5 91.5t62 152.5q10 55 6 95t-16.5 69.5t-32 51t-37.5 40.5q39 14 80 42.5t76.5 67.5t62.5 87.5t37 103.5q16 88 -18.5 151.5t-106.5 112.5l-279 191q-72 49 -105.5 101t-21.5 116q10 53 41 81.5t68 42 t71.5 15.5t55.5 2q78 0 120 -14.5t58.5 -41t15 -63.5t-9.5 -82h164q16 80 13 143.5t-37.5 107.5t-106.5 66.5t-190 22.5q-174 0 -285 -72.5t-141 -226.5q-10 -55 -7.5 -92t16 -63.5t35 -46t46.5 -39.5q-47 -16 -89 -48t-78 -73t-60.5 -89.5t-32.5 -95.5q-16 -80 13.5 -139 t92.5 -106l363 -271q41 -31 51 -67.5t4 -73.5q-18 -94 -74.5 -129t-163.5 -35q-92 0 -136 17.5t-60.5 46t-14.5 67.5t4 82h-174zM362 664q4 23 24 55.5t47.5 62t60 50t61.5 20.5t50.5 -11.5t43.5 -27.5l166 -133q53 -45 71.5 -76t8.5 -78h-2q-6 -31 -26.5 -62.5t-48 -57 t-57.5 -42t-52 -16.5q-16 0 -31.5 7t-30.5 18l-246 184q-20 16 -32.5 46t-6.5 61z" />
<glyph unicode="&#xa8;" horiz-adv-x="706" d="M371 1272h176l39 205h-176zM659 1272h172l39 205h-172z" />
<glyph unicode="&#xa9;" horiz-adv-x="1126" d="M262 1006q-18 -102 3.5 -191.5t74.5 -156t135 -106.5t184 -40q104 0 205 41t182.5 111.5t139.5 165t74 198.5q14 100 -10.5 187.5t-82 152t-140.5 100t-183.5 33.5t-196.5 -42t-175 -107.5t-134 -156.5t-76 -189zM356 1001q14 82 59.5 155t110 129t142 90t159.5 36 t152 -26.5t116 -81t66 -124t8 -153.5q-12 -86 -58 -163t-113.5 -135t-149.5 -93t-168 -35q-82 0 -148.5 32t-110.5 87t-62.5 128t-2.5 154zM485 1014q-10 -57 0.5 -108.5t40 -91.5t73.5 -64.5t101 -28.5q72 -4 140 22.5t131 79.5l-64 74q-82 -78 -178 -74q-35 2 -64.5 17.5 t-49 40t-26.5 56.5t-1 69q8 39 27.5 74.5t47 62t61.5 43t69 18.5q98 2 157 -67l90 75q-88 106 -229 99q-59 -4 -112.5 -30t-97.5 -65.5t-73.5 -92t-42.5 -109.5z" />
<glyph unicode="&#xaa;" horiz-adv-x="798" d="M272 977q-18 -96 24 -143.5t169 -47.5q55 0 93 8.5t64.5 21.5t46 30.5t38.5 36.5q4 -47 29.5 -63.5t88.5 -16.5h47l19 92q-33 0 -47.5 11.5t-7.5 41.5l57 299q23 115 -25.5 161t-187.5 46q-96 0 -157.5 -20.5t-97.5 -52t-51.5 -69.5t-21.5 -71h121q6 35 16.5 57.5t30 35 t50 17.5t79.5 5q84 0 109.5 -14.5t15.5 -71.5q-2 -6 -5 -19.5t-9 -26t-17.5 -21.5t-25.5 -11q-127 -16 -209 -33.5t-131 -42t-72.5 -58.5t-32.5 -81zM399 965q4 27 13.5 46t31 32.5t59.5 23.5t99 16q57 6 143 31l-16 -74q-23 -94 -73 -125.5t-152 -31.5q-59 0 -87 16t-18 66 z" />
<glyph unicode="&#xab;" horiz-adv-x="909" d="M168 518l182 -412h162l-178 412l366 430h-161zM496 524l182 -418h172l-186 412l362 430h-166z" />
<glyph unicode="&#xac;" horiz-adv-x="1607" d="M215 627h1321l-92 -475h100l115 585h-1421z" />
<glyph unicode="&#xad;" horiz-adv-x="757" d="M293 465h534l70 180h-535z" />
<glyph unicode="&#xae;" horiz-adv-x="1126" d="M268 1016q-20 -102 0.5 -193.5t74.5 -160t135 -109.5t184 -41q102 0 201.5 42t180 112.5t137 164t72.5 195.5q16 98 -7 185t-77.5 151.5t-135.5 101.5t-179 37q-100 0 -196.5 -38t-175.5 -104.5t-136 -154.5t-78 -188zM360.5 855q-16.5 75 0 157t63.5 154.5t112.5 127 t145.5 85t162 30.5q80 0 144.5 -30.5t107.5 -83t61 -122t6 -149.5q-12 -84 -58 -162t-113.5 -136t-149.5 -92t-166 -34q-82 0 -147.5 34t-108.5 90t-59.5 131zM543 758h96l41 209h106l41 -209h109l-53 219q43 18 75.5 51t42.5 96q10 57 -8 90t-45.5 49.5t-57.5 19.5t-44 3 h-201zM694 1055l27 139h108q35 0 59.5 -15.5t18.5 -50.5q-6 -27 -16 -41t-25.5 -21t-34 -9t-36.5 -2h-101z" />
<glyph unicode="&#xaf;" horiz-adv-x="819" d="M606 1296h615l61 154h-614z" />
<glyph unicode="&#xb0;" horiz-adv-x="860" d="M309.5 1116.5q-14.5 -69.5 1 -132t52 -109t94 -73t127.5 -26.5t136 26.5t120.5 73t92.5 107.5t52 131q12 70 -2 132.5t-52 108.5t-94.5 72.5t-125.5 26.5q-70 0 -136.5 -26.5t-121 -72.5t-92 -107.5t-52 -131zM442 1112q8 43 32 81t57.5 66.5t74.5 45t84 16.5t77 -16.5 t55.5 -45t30.5 -65.5t1 -80t-31.5 -80t-57.5 -65.5t-74 -45t-83 -16.5q-86 0 -134 59.5t-32 145.5z" />
<glyph unicode="&#xb1;" horiz-adv-x="1187" d="M2 -283h1073l35 181h-1073zM147 465h449l-90 -465h176l90 465h449l34 180h-448l84 428h-176l-84 -428h-449z" />
<glyph unicode="&#xb4;" horiz-adv-x="491" d="M332 1225h90l270 295h-200z" />
<glyph unicode="&#xb6;" horiz-adv-x="860" d="M195 977q-18 -96 1 -179t70 -145.5t127 -98.5t170 -36l-176 -909h70l350 1800h117l-351 -1800h60l350 1800h147l13 61h-162q-139 0 -256 -19t-225 -73q-63 -33 -115.5 -80t-91.5 -101t-63.5 -111.5t-34.5 -108.5z" />
<glyph unicode="&#xb7;" horiz-adv-x="512" d="M258 670h258l47 252h-258z" />
<glyph unicode="&#xb8;" d="M-12 -340.5q-2 -19.5 8 -38t37.5 -33t83.5 -14.5q92 0 136 50t60 130q8 47 2 76t-22.5 45t-38 22.5t-41.5 8.5l25 121h-95l-41 -205q59 0 90 -9.5t21 -64.5q-16 -86 -86 -86q-35 0 -40 19.5t-3 39.5h-84q-2 -8 -4 -15t-4 -15q-2 -12 -4 -31.5z" />
<glyph unicode="&#xba;" horiz-adv-x="798" d="M291 1120q-33 -166 23.5 -250t236.5 -84q98 0 165.5 24t112.5 68t72 104t41 134q14 76 10 138.5t-32.5 107.5t-84 68.5t-143.5 23.5q-176 0 -271 -82t-130 -252zM406 1020q0 43 10 94t25.5 95t43 77t70.5 51.5t109 18.5q61 0 97 -14.5t52 -44t15 -76t-13 -109.5 q-12 -61 -29.5 -105t-46 -72t-71.5 -40t-109 -12q-57 0 -91 17.5t-48 48t-14 71.5z" />
<glyph unicode="&#xbb;" horiz-adv-x="909" d="M100 106h172l346 418l-200 424h-166l194 -430zM438 106h162l342 412l-203 430h-161l198 -430z" />
<glyph unicode="&#xbf;" horiz-adv-x="993" d="M38.5 -219.5q16.5 -77.5 65 -123.5t123 -64.5t166.5 -18.5q166 0 268.5 49t164 123t89 162t43.5 166h-167q-14 -72 -36 -137.5t-63 -115.5t-105.5 -80t-162.5 -30q-121 0 -179.5 59.5t-35.5 178.5q14 70 35.5 115t50.5 77.5t64.5 58t78.5 58.5q59 43 108.5 84t89.5 93 t69.5 122t50.5 174h-156q-16 -70 -30.5 -117t-41 -87t-73.5 -82t-127 -99q-57 -41 -102.5 -74.5t-81 -72.5t-60.5 -91.5t-39 -130.5q-23 -119 -6.5 -196.5zM610 879h195l39 194h-195z" />
<glyph unicode="&#xc0;" horiz-adv-x="1255" d="M-10 0h194l236 444h563l74 -444h209l-265 1470h-202zM508 604l348 660l102 -660h-450zM758 1921l143 -297h100l-43 297h-200z" />
<glyph unicode="&#xc1;" horiz-adv-x="1255" d="M-10 0h194l236 444h563l74 -444h209l-265 1470h-202zM508 604l348 660l102 -660h-450zM883 1624h90l270 295h-201z" />
<glyph unicode="&#xc2;" horiz-adv-x="1255" d="M-10 0h194l236 444h563l74 -444h209l-265 1470h-202zM508 604l348 660l102 -660h-450zM713 1624h104l166 199l90 -199h101l-70 305h-199z" />
<glyph unicode="&#xc3;" horiz-adv-x="1255" d="M-10 0h194l236 444h563l74 -444h209l-265 1470h-202zM508 604l348 660l102 -660h-450zM670 1634h145q4 27 11.5 46.5t29.5 19.5q23 0 46.5 -12.5t50 -25.5t56 -25.5t64.5 -12.5q63 0 113.5 45t62.5 113l11 49h-140q-6 -29 -14 -50.5t-37 -21.5q-18 0 -41.5 12.5t-50.5 28 t-57.5 28.5t-63.5 13q-8 0 -33.5 -6t-54.5 -26.5t-56.5 -62.5t-41.5 -112z" />
<glyph unicode="&#xc4;" horiz-adv-x="1255" d="M-10 0h194l236 444h563l74 -444h209l-265 1470h-202zM508 604l348 660l102 -660h-450zM713 1624h176l41 205h-176zM1001 1624h173l40 205h-172z" />
<glyph unicode="&#xc5;" horiz-adv-x="1255" d="M-10 0h194l236 444h563l74 -444h209l-265 1470h-202zM508 604l348 660l102 -660h-450zM768 1688q-6 -35 18.5 -49.5t55.5 -14.5h198q35 0 66 19.5t41 64.5l20 100q6 39 -15.5 54.5t-51.5 15.5h-221q-41 0 -61.5 -20.5t-24.5 -49.5zM831 1722l15 66q4 18 17.5 21t27.5 3 h168q23 0 36 -2t9 -16l-14 -80q-4 -16 -13.5 -20t-42.5 -4h-168q-41 0 -35 32z" />
<glyph unicode="&#xc6;" horiz-adv-x="2191" d="M-10 0h217l428 492h510l-96 -492h1099l33 166h-905l102 534h815l33 160h-815l86 445h887l33 165h-1153zM764 649l534 637l-122 -637h-412z" />
<glyph unicode="&#xc7;" horiz-adv-x="1441" d="M190.5 428.5q6.5 -115.5 38 -195t82.5 -130t112.5 -79t127 -41t123.5 -14.5l-49 -258h176l49 258q119 8 219 44t180 103.5t137.5 170.5t90.5 248h-181q-27 -84 -59.5 -154t-79.5 -122t-114.5 -85t-161.5 -45q-53 -6 -95.5 -5t-80.5 5q-74 8 -141.5 36t-112.5 91 t-59.5 172t18.5 277q31 162 76.5 281.5t118.5 199.5t176.5 118.5t250.5 38.5q113 0 180.5 -24.5t105.5 -67.5t53 -99t22 -118h176q-2 16 -1 58.5t-8.5 94.5t-35 107.5t-80.5 101.5t-144.5 75.5t-226.5 29.5q-217 0 -365.5 -58.5t-247 -162.5t-154.5 -251.5t-91 -326.5 q-31 -158 -24.5 -273.5z" />
<glyph unicode="&#xc8;" horiz-adv-x="1282" d="M143 0h1096l33 166h-901l102 532h807l33 166h-807l86 441h876l33 165h-1071zM913 1921l144 -297h100l-43 297h-201z" />
<glyph unicode="&#xc9;" horiz-adv-x="1282" d="M143 0h1096l33 166h-901l102 532h807l33 166h-807l86 441h876l33 165h-1071zM854 1620h92l271 295h-203z" />
<glyph unicode="&#xca;" horiz-adv-x="1282" d="M143 0h1096l33 166h-901l102 532h807l33 166h-807l86 441h876l33 165h-1071zM776 1624h105l166 199l90 -199h100l-70 305h-198z" />
<glyph unicode="&#xcb;" horiz-adv-x="1282" d="M143 0h1096l33 166h-901l102 532h807l33 166h-807l86 441h876l33 165h-1071zM776 1624h176l41 205h-176zM1065 1624h172l41 205h-172z" />
<glyph unicode="&#xcc;" horiz-adv-x="471" d="M154 0h192l287 1470h-193zM471 1921l145 -297h101l-45 297h-201z" />
<glyph unicode="&#xcd;" horiz-adv-x="446" d="M137 0h193l286 1470h-192zM397 1624h90l271 295h-201z" />
<glyph unicode="&#xce;" horiz-adv-x="444" d="M139 0h193l286 1470h-192zM322 1624h102l166 199l90 -199h100l-67 305h-199z" />
<glyph unicode="&#xcf;" horiz-adv-x="446" d="M139 0h193l286 1470h-192zM319 1624h177l41 205h-177zM608 1624h174l41 205h-174z" />
<glyph unicode="&#xd1;" horiz-adv-x="1417" d="M147 0h189l231 1194l535 -1194h215l287 1470h-189l-237 -1214l-539 1214h-205zM774 1634h146q4 27 11 46.5t30 19.5t46 -12.5t49.5 -25.5t56.5 -25.5t65 -12.5q63 0 113.5 45t62.5 113l10 49h-139q-6 -29 -14.5 -50.5t-36.5 -21.5q-18 0 -42 12.5t-50.5 28t-57.5 28.5 t-63 13q-8 0 -34 -6t-54.5 -26.5t-56.5 -62.5t-42 -112z" />
<glyph unicode="&#xd2;" horiz-adv-x="1595" d="M204.5 412.5q14.5 -142.5 82 -241.5t190.5 -151.5t307 -52.5q377 0 587 191.5t286 576.5q35 178 22.5 320.5t-78 242t-189.5 151.5t-312 52q-209 0 -359.5 -58.5t-255 -161.5t-167 -243.5t-93.5 -302.5q-35 -180 -20.5 -322.5zM414 717q31 154 81 270.5t127.5 196.5 t187.5 119.5t257 39.5q270 0 365 -145.5t36 -454.5q-59 -305 -208.5 -461.5t-419.5 -156.5q-289 0 -386.5 149.5t-39.5 442.5zM1020 1921l143 -297h101l-43 297h-201z" />
<glyph unicode="&#xd3;" horiz-adv-x="1595" d="M204.5 412.5q14.5 -142.5 82 -241.5t190.5 -151.5t307 -52.5q377 0 587 191.5t286 576.5q35 178 22.5 320.5t-78 242t-189.5 151.5t-312 52q-209 0 -359.5 -58.5t-255 -161.5t-167 -243.5t-93.5 -302.5q-35 -180 -20.5 -322.5zM414 717q31 154 81 270.5t127.5 196.5 t187.5 119.5t257 39.5q270 0 365 -145.5t36 -454.5q-59 -305 -208.5 -461.5t-419.5 -156.5q-289 0 -386.5 149.5t-39.5 442.5zM961 1624h92l270 295h-203z" />
<glyph unicode="&#xd4;" horiz-adv-x="1595" d="M204.5 412.5q14.5 -142.5 82 -241.5t190.5 -151.5t307 -52.5q377 0 587 191.5t286 576.5q35 178 22.5 320.5t-78 242t-189.5 151.5t-312 52q-209 0 -359.5 -58.5t-255 -161.5t-167 -243.5t-93.5 -302.5q-35 -180 -20.5 -322.5zM414 717q31 154 81 270.5t127.5 196.5 t187.5 119.5t257 39.5q270 0 365 -145.5t36 -454.5q-59 -305 -208.5 -461.5t-419.5 -156.5q-289 0 -386.5 149.5t-39.5 442.5zM883 1624h104l166 199l90 -199h100l-69 305h-199z" />
<glyph unicode="&#xd5;" horiz-adv-x="1595" d="M204.5 412.5q14.5 -142.5 82 -241.5t190.5 -151.5t307 -52.5q377 0 587 191.5t286 576.5q35 178 22.5 320.5t-78 242t-189.5 151.5t-312 52q-209 0 -359.5 -58.5t-255 -161.5t-167 -243.5t-93.5 -302.5q-35 -180 -20.5 -322.5zM414 717q31 154 81 270.5t127.5 196.5 t187.5 119.5t257 39.5q270 0 365 -145.5t36 -454.5q-59 -305 -208.5 -461.5t-419.5 -156.5q-289 0 -386.5 149.5t-39.5 442.5zM840 1634h145q4 27 11.5 46.5t29.5 19.5q23 0 46.5 -12.5t50 -25.5t56 -25.5t64.5 -12.5q63 0 113.5 45t62.5 113l11 49h-140q-6 -29 -14 -50.5 t-37 -21.5q-18 0 -41.5 12.5t-50.5 28t-57.5 28.5t-63.5 13q-8 0 -33.5 -6t-54.5 -26.5t-56.5 -62.5t-41.5 -112z" />
<glyph unicode="&#xd6;" horiz-adv-x="1595" d="M204.5 412.5q14.5 -142.5 82 -241.5t190.5 -151.5t307 -52.5q377 0 587 191.5t286 576.5q35 178 22.5 320.5t-78 242t-189.5 151.5t-312 52q-209 0 -359.5 -58.5t-255 -161.5t-167 -243.5t-93.5 -302.5q-35 -180 -20.5 -322.5zM414 717q31 154 81 270.5t127.5 196.5 t187.5 119.5t257 39.5q270 0 365 -145.5t36 -454.5q-59 -305 -208.5 -461.5t-419.5 -156.5q-289 0 -386.5 149.5t-39.5 442.5zM883 1624h176l41 205h-176zM1171 1624h172l41 205h-172z" />
<glyph unicode="&#xd8;" horiz-adv-x="1597" d="M82 0h162l106 98q70 -66 170.5 -98.5t247.5 -32.5q180 0 325.5 42t257 134.5t188.5 239.5t118 358q23 117 26 206t-7.5 154.5t-29 110.5t-36.5 74l194 184h-162l-106 -96q-27 25 -62.5 47.5t-88 41t-122 28.5t-163.5 10q-193 0 -340.5 -51t-255 -149.5t-176 -242 t-105.5 -327.5q-25 -123 -24 -217q0 -92 12 -158.5t31.5 -108.5t33.5 -63zM390 474q-5 95 26 249q29 145 77 261t125.5 196t188.5 121.5t262 41.5q78 0 132 -9t92 -23.5t63 -33t43 -38.5l-971 -913q-33 53 -38 148zM492 231l968 916q12 -27 21.5 -59.5t11.5 -81t-3.5 -114 t-23.5 -157.5q-29 -141 -76 -253.5t-123.5 -192.5t-187 -122t-262.5 -42q-123 0 -206 30.5t-119 75.5z" />
<glyph unicode="&#xd9;" horiz-adv-x="1394" d="M222 245.5q7 -59.5 34 -110.5t80 -88t139 -58.5t213 -21.5q150 0 256.5 23.5t181 65.5t121.5 97.5t76 119t45.5 131t28.5 133.5l182 933h-195l-192 -981q-16 -80 -39 -146.5t-71 -114.5t-129 -75.5t-210 -27.5q-141 0 -211.5 36t-96 89t-19.5 117.5t16 121.5l193 981 h-195l-188 -968q-12 -66 -19.5 -131.5t-0.5 -125zM940 1921l143 -297h101l-43 297h-201z" />
<glyph unicode="&#xda;" horiz-adv-x="1394" d="M222 245.5q7 -59.5 34 -110.5t80 -88t139 -58.5t213 -21.5q150 0 256.5 23.5t181 65.5t121.5 97.5t76 119t45.5 131t28.5 133.5l182 933h-195l-192 -981q-16 -80 -39 -146.5t-71 -114.5t-129 -75.5t-210 -27.5q-141 0 -211.5 36t-96 89t-19.5 117.5t16 121.5l193 981 h-195l-188 -968q-12 -66 -19.5 -131.5t-0.5 -125zM881 1624h92l270 295h-203z" />
<glyph unicode="&#xdb;" horiz-adv-x="1394" d="M222 245.5q7 -59.5 34 -110.5t80 -88t139 -58.5t213 -21.5q150 0 256.5 23.5t181 65.5t121.5 97.5t76 119t45.5 131t28.5 133.5l182 933h-195l-192 -981q-16 -80 -39 -146.5t-71 -114.5t-129 -75.5t-210 -27.5q-141 0 -211.5 36t-96 89t-19.5 117.5t16 121.5l193 981 h-195l-188 -968q-12 -66 -19.5 -131.5t-0.5 -125zM803 1624h104l166 199l90 -199h101l-70 305h-199z" />
<glyph unicode="&#xdc;" horiz-adv-x="1372" d="M186.5 307.5q-4.5 -96.5 37.5 -172.5t142.5 -122t290.5 -46q223 0 354.5 52.5t203 134.5t101.5 183t48 200h2l182 933h-196l-193 -981q-16 -80 -38.5 -146.5t-71 -114.5t-129 -75.5t-209.5 -27.5q-141 0 -212 36t-96.5 89t-19.5 117.5t16 121.5l193 981h-195l-188 -968 q-18 -98 -22.5 -194.5zM770 1624h176l41 205h-176zM1059 1624h174l41 205h-174z" />
<glyph unicode="&#xdf;" horiz-adv-x="1228" d="M211 0h176l221 1135q8 41 19.5 80.5t37 70.5t73.5 50.5t128 19.5q186 0 156 -152q-10 -57 -46 -95t-76 -66.5t-74.5 -55t-41.5 -63.5q-8 -39 13.5 -72t57.5 -66.5t78 -72.5t74.5 -86t49 -107.5t2.5 -140.5q-18 -98 -64.5 -151.5t-102.5 -78t-114.5 -28.5t-101.5 -4 q-33 0 -56.5 1t-43 3t-38 4t-40.5 6l-27 -143q45 -6 86 -11.5t98 -5.5q23 0 68 2t102.5 13.5t121 35t119.5 68.5t100.5 115t64.5 172q18 102 5 176t-45 127t-73 90t-77.5 65.5t-59.5 52t-18 50.5q4 25 37.5 45.5t74.5 49t79 71.5t52 115q12 66 -5 114.5t-57 81.5 t-101.5 49.5t-137.5 16.5q-147 0 -235 -34t-137.5 -82t-68 -102.5t-26.5 -93.5l-18 -96h-139l-29 -149h139z" />
<glyph unicode="&#xe0;" horiz-adv-x="1075" d="M110 152.5q7 -60.5 40.5 -100.5t98 -60.5t165.5 -20.5q92 0 156.5 13.5t110.5 37t79 52t61 59.5q2 -39 9.5 -65.5t27 -42t51 -21.5t82.5 -6q18 0 37 1t37 1l27 133q-49 0 -74 12.5t-12 79.5l104 529q18 96 10 162.5t-48 107.5t-112.5 59.5t-183.5 18.5q-172 0 -271 -35 t-152.5 -89t-73 -117.5t-31.5 -119.5h170q12 59 28.5 100.5t49 68t87 37.5t140.5 11q66 0 112 -6t71.5 -24.5t32.5 -51t-3 -85.5q-2 -12 -7 -33t-15.5 -41.5t-26 -37.5t-37.5 -20q-217 -29 -353.5 -58.5t-215 -71.5t-113.5 -99t-49 -137q-16 -80 -9 -140.5zM297 274 q8 43 20.5 78t47 61.5t99 47t179.5 35.5q51 6 111.5 17t138.5 36l-25 -127q-31 -160 -129 -233.5t-260 -73.5q-92 0 -146 33.5t-36 125.5zM707 1522l145 -297h100l-45 297h-200z" />
<glyph unicode="&#xe1;" horiz-adv-x="1075" d="M110 152.5q7 -60.5 40.5 -100.5t98 -60.5t165.5 -20.5q92 0 156.5 13.5t110.5 37t79 52t61 59.5q2 -39 9.5 -65.5t27 -42t51 -21.5t82.5 -6q18 0 37 1t37 1l27 133q-49 0 -74 12.5t-12 79.5l104 529q18 96 10 162.5t-48 107.5t-112.5 59.5t-183.5 18.5q-172 0 -271 -35 t-152.5 -89t-73 -117.5t-31.5 -119.5h170q12 59 28.5 100.5t49 68t87 37.5t140.5 11q66 0 112 -6t71.5 -24.5t32.5 -51t-3 -85.5q-2 -12 -7 -33t-15.5 -41.5t-26 -37.5t-37.5 -20q-217 -29 -353.5 -58.5t-215 -71.5t-113.5 -99t-49 -137q-16 -80 -9 -140.5zM297 274 q8 43 20.5 78t47 61.5t99 47t179.5 35.5q51 6 111.5 17t138.5 36l-25 -127q-31 -160 -129 -233.5t-260 -73.5q-92 0 -146 33.5t-36 125.5zM649 1225h90l271 295h-201z" />
<glyph unicode="&#xe2;" horiz-adv-x="1075" d="M110 152.5q7 -60.5 40.5 -100.5t98 -60.5t165.5 -20.5q92 0 156.5 13.5t110.5 37t79 52t61 59.5q2 -39 9.5 -65.5t27 -42t51 -21.5t82.5 -6q18 0 37 1t37 1l27 133q-49 0 -74 12.5t-12 79.5l104 529q18 96 10 162.5t-48 107.5t-112.5 59.5t-183.5 18.5q-172 0 -271 -35 t-152.5 -89t-73 -117.5t-31.5 -119.5h170q12 59 28.5 100.5t49 68t87 37.5t140.5 11q66 0 112 -6t71.5 -24.5t32.5 -51t-3 -85.5q-2 -12 -7 -33t-15.5 -41.5t-26 -37.5t-37.5 -20q-217 -29 -353.5 -58.5t-215 -71.5t-113.5 -99t-49 -137q-16 -80 -9 -140.5zM297 274 q8 43 20.5 78t47 61.5t99 47t179.5 35.5q51 6 111.5 17t138.5 36l-25 -127q-31 -160 -129 -233.5t-260 -73.5q-92 0 -146 33.5t-36 125.5zM571 1225h103l166 198l90 -198h100l-67 305h-199z" />
<glyph unicode="&#xe3;" horiz-adv-x="1075" d="M110 152.5q7 -60.5 40.5 -100.5t98 -60.5t165.5 -20.5q92 0 156.5 13.5t110.5 37t79 52t61 59.5q2 -39 9.5 -65.5t27 -42t51 -21.5t82.5 -6q18 0 37 1t37 1l27 133q-49 0 -74 12.5t-12 79.5l104 529q18 96 10 162.5t-48 107.5t-112.5 59.5t-183.5 18.5q-172 0 -271 -35 t-152.5 -89t-73 -117.5t-31.5 -119.5h170q12 59 28.5 100.5t49 68t87 37.5t140.5 11q66 0 112 -6t71.5 -24.5t32.5 -51t-3 -85.5q-2 -12 -7 -33t-15.5 -41.5t-26 -37.5t-37.5 -20q-217 -29 -353.5 -58.5t-215 -71.5t-113.5 -99t-49 -137q-16 -80 -9 -140.5zM297 274 q8 43 20.5 78t47 61.5t99 47t179.5 35.5q51 6 111.5 17t138.5 36l-25 -127q-31 -160 -129 -233.5t-260 -73.5q-92 0 -146 33.5t-36 125.5zM537 1276h143q4 27 12 46t29 19q23 0 46.5 -12t50 -25.5t56 -25.5t64.5 -12q63 0 113.5 44.5t62.5 112.5l10 50h-137 q-6 -29 -15 -50.5t-36 -21.5q-18 0 -42 12t-50.5 27.5t-57 29t-63.5 13.5q-8 0 -33.5 -6.5t-54.5 -26.5t-56.5 -62t-41.5 -112z" />
<glyph unicode="&#xe4;" horiz-adv-x="1075" d="M110 152.5q7 -60.5 40.5 -100.5t98 -60.5t165.5 -20.5q92 0 156.5 13.5t110.5 37t79 52t61 59.5q2 -39 9.5 -65.5t27 -42t51 -21.5t82.5 -6q18 0 37 1t37 1l27 133q-49 0 -74 12.5t-12 79.5l104 529q18 96 10 162.5t-48 107.5t-112.5 59.5t-183.5 18.5q-172 0 -271 -35 t-152.5 -89t-73 -117.5t-31.5 -119.5h170q12 59 28.5 100.5t49 68t87 37.5t140.5 11q66 0 112 -6t71.5 -24.5t32.5 -51t-3 -85.5q-2 -12 -7 -33t-15.5 -41.5t-26 -37.5t-37.5 -20q-217 -29 -353.5 -58.5t-215 -71.5t-113.5 -99t-49 -137q-16 -80 -9 -140.5zM297 274 q8 43 20.5 78t47 61.5t99 47t179.5 35.5q51 6 111.5 17t138.5 36l-25 -127q-31 -160 -129 -233.5t-260 -73.5q-92 0 -146 33.5t-36 125.5zM580 1272h176l39 205h-177zM868 1272h174l39 205h-174z" />
<glyph unicode="&#xe5;" horiz-adv-x="1075" d="M110 152.5q7 -60.5 40.5 -100.5t98 -60.5t165.5 -20.5q92 0 156.5 13.5t110.5 37t79 52t61 59.5q2 -39 9.5 -65.5t27 -42t51 -21.5t82.5 -6q18 0 37 1t37 1l27 133q-49 0 -74 12.5t-12 79.5l104 529q18 96 10 162.5t-48 107.5t-112.5 59.5t-183.5 18.5q-172 0 -271 -35 t-152.5 -89t-73 -117.5t-31.5 -119.5h170q12 59 28.5 100.5t49 68t87 37.5t140.5 11q66 0 112 -6t71.5 -24.5t32.5 -51t-3 -85.5q-2 -12 -7 -33t-15.5 -41.5t-26 -37.5t-37.5 -20q-217 -29 -353.5 -58.5t-215 -71.5t-113.5 -99t-49 -137q-16 -80 -9 -140.5zM297 274 q8 43 20.5 78t47 61.5t99 47t179.5 35.5q51 6 111.5 17t138.5 36l-25 -127q-31 -160 -129 -233.5t-260 -73.5q-92 0 -146 33.5t-36 125.5zM602 1309q-6 -35 19.5 -49.5t56.5 -14.5h199q35 0 66.5 19.5t39.5 64.5l21 101q8 39 -15.5 54t-54.5 15h-221q-41 0 -61.5 -20.5 t-24.5 -48.5zM668 1343l12 66q4 18 18.5 21.5t28.5 3.5h168q23 0 36 -2t9 -17l-16 -80q-4 -16 -13.5 -20t-42.5 -4h-168q-41 0 -32 32z" />
<glyph unicode="&#xe6;" horiz-adv-x="1863" d="M122 135.5q13 -61.5 51 -97.5t100.5 -51.5t144.5 -15.5q104 0 177 19.5t125 49.5t88 64.5t66 65.5q20 -25 43 -58.5t64 -65.5t109.5 -53.5t181.5 -21.5q152 0 249 35t155.5 87t87 112.5t44.5 113.5h-159q-20 -41 -42 -77.5t-58 -65.5t-92 -45t-144 -16q-78 0 -136.5 16 t-93 57t-45 111t10.5 178h809q6 25 13 47t11 47q10 47 15.5 105.5t-1 118t-27 115t-64.5 98.5t-114.5 68.5t-174.5 25.5q-90 0 -156 -13.5t-114 -33t-83 -40t-65 -32.5q-16 16 -38 36.5t-57.5 39t-91 31t-137.5 12.5q-168 0 -267 -40t-152.5 -97.5t-73 -122t-29.5 -113.5 h170q12 45 24.5 87t43 74t87 50t154.5 18q78 0 124 -11t69.5 -32.5t26.5 -54.5t-5 -74q-10 -51 -31.5 -87.5t-62.5 -45.5q-131 -25 -252 -40t-218 -46.5t-163.5 -95t-91.5 -182.5q-18 -92 -5 -153.5zM307 291q14 78 59.5 114.5t119 56t177 34t236.5 47.5q-8 -35 -13.5 -67.5 t-11.5 -67.5q-10 -45 -42.5 -96.5t-82 -95.5t-110.5 -72.5t-129 -28.5q-125 0 -175 35.5t-28 140.5zM1077 621q16 47 40 105t66 110.5t110.5 87t172.5 34.5q94 0 149.5 -24.5t81 -69.5t25.5 -106t-14 -137h-631z" />
<glyph unicode="&#xe7;" horiz-adv-x="1105" d="M159.5 266q16.5 -104 65.5 -167.5t122 -91t155 -34.5l-31 -163h145l33 165q129 10 214 55.5t138.5 105t79 123t35.5 112.5h-174q-12 -41 -27.5 -82t-43 -76t-74.5 -60.5t-121 -33.5q-33 -4 -78 -4q-43 0 -68 4q-72 10 -115.5 40.5t-63 83t-18.5 124t19 161.5 q23 113 56.5 195t85 134t120 76.5t158.5 24.5q84 0 131 -19t70.5 -51t29 -72t5.5 -79h174q6 55 0 120t-43 119t-116 90t-216 36q-125 0 -228.5 -32t-183.5 -101.5t-136 -177t-85 -259.5q-31 -162 -14.5 -266z" />
<glyph unicode="&#xe8;" horiz-adv-x="1159" d="M157.5 258q16.5 -102 71 -165.5t141.5 -92.5t199 -29q141 0 237.5 31t158 81t95.5 112.5t50 126.5h-166q-20 -51 -46 -90t-63.5 -65t-93 -39t-133.5 -13q-117 0 -175 34.5t-80.5 88t-17.5 117t15 122.5h807q4 20 9.5 41t9.5 41q27 135 19.5 228.5t-38.5 153.5t-76 93 t-94 48.5t-96 17.5t-78 2q-131 0 -235.5 -31t-184.5 -101.5t-135 -183t-88 -276.5q-29 -150 -12.5 -252zM379 621q18 66 45 126t70 107t108.5 75.5t163.5 28.5q94 0 148.5 -24.5t79 -68.5t23 -106t-15.5 -138h-622zM713 1522l145 -297h100l-45 297h-200z" />
<glyph unicode="&#xe9;" horiz-adv-x="1159" d="M157.5 258q16.5 -102 71 -165.5t141.5 -92.5t199 -29q141 0 237.5 31t158 81t95.5 112.5t50 126.5h-166q-20 -51 -46 -90t-63.5 -65t-93 -39t-133.5 -13q-117 0 -175 34.5t-80.5 88t-17.5 117t15 122.5h807q4 20 9.5 41t9.5 41q27 135 19.5 228.5t-38.5 153.5t-76 93 t-94 48.5t-96 17.5t-78 2q-131 0 -235.5 -31t-184.5 -101.5t-135 -183t-88 -276.5q-29 -150 -12.5 -252zM379 621q18 66 45 126t70 107t108.5 75.5t163.5 28.5q94 0 148.5 -24.5t79 -68.5t23 -106t-15.5 -138h-622zM655 1225h90l271 295h-201z" />
<glyph unicode="&#xea;" horiz-adv-x="1126" d="M155.5 258q16.5 -102 71 -165.5t141.5 -92.5t199 -29q141 0 237.5 31t158 81t95.5 112.5t50 126.5h-166q-20 -51 -46 -90t-63.5 -65t-93 -39t-133.5 -13q-117 0 -175 34.5t-80.5 88t-17.5 117t15 122.5h807q4 20 9.5 41t9.5 41q27 135 19.5 228.5t-38.5 153.5t-76 93 t-94 48.5t-96 17.5t-78 2q-131 0 -235.5 -31t-184.5 -101.5t-135 -183t-88 -276.5q-29 -150 -12.5 -252zM377 621q18 66 45 126t70 107t108.5 75.5t163.5 28.5q94 0 148.5 -24.5t79 -68.5t23 -106t-15.5 -138h-622zM575 1225h103l166 198l90 -198h100l-67 305h-199z" />
<glyph unicode="&#xeb;" horiz-adv-x="1126" d="M155.5 258q16.5 -102 71 -165.5t141.5 -92.5t199 -29q141 0 237.5 31t158 81t95.5 112.5t50 126.5h-166q-20 -51 -46 -90t-63.5 -65t-93 -39t-133.5 -13q-117 0 -175 34.5t-80.5 88t-17.5 117t15 122.5h807q4 20 9.5 41t9.5 41q27 135 19.5 228.5t-38.5 153.5t-76 93 t-94 48.5t-96 17.5t-78 2q-131 0 -235.5 -31t-184.5 -101.5t-135 -183t-88 -276.5q-29 -150 -12.5 -252zM377 621q18 66 45 126t70 107t108.5 75.5t163.5 28.5q94 0 148.5 -24.5t79 -68.5t23 -106t-15.5 -138h-622zM584 1272h176l39 205h-176zM872 1272h175l38 205h-174z " />
<glyph unicode="&#xec;" horiz-adv-x="436" d="M145 0h177l208 1073h-176zM377 1522l145 -297h101l-45 297h-201z" />
<glyph unicode="&#xed;" horiz-adv-x="456" d="M145 0h177l208 1073h-176zM319 1225h91l270 295h-201z" />
<glyph unicode="&#xee;" horiz-adv-x="483" d="M162 0h176l209 1073h-176zM258 1225h102l166 198l90 -198h101l-68 305h-198z" />
<glyph unicode="&#xef;" horiz-adv-x="462" d="M143 0h176l209 1073h-176zM248 1272h176l39 205h-176zM537 1272h174l39 205h-175z" />
<glyph unicode="&#xf1;" horiz-adv-x="1105" d="M123 0h176l121 623q18 98 57 162.5t89 102.5t109.5 52t121.5 14q76 0 115.5 -19.5t54 -55t10.5 -86t-16 -111.5l-134 -682h177l141 731q12 57 18 123t-17.5 121t-90 91t-197.5 36q-90 0 -153.5 -18.5t-108.5 -47t-72.5 -63.5t-48.5 -66l33 166h-176zM537 1276h143 q4 27 12 46t29 19q23 0 46.5 -12t50 -25.5t56 -25.5t64.5 -12q63 0 113.5 44.5t62.5 112.5l10 50h-137q-6 -29 -15 -50.5t-36 -21.5q-18 0 -42 12t-50.5 27.5t-57 29t-63.5 13.5q-8 0 -33.5 -6.5t-54.5 -26.5t-56.5 -62t-41.5 -112z" />
<glyph unicode="&#xf2;" horiz-adv-x="1177" d="M155.5 298.5q6.5 -105.5 53.5 -178.5t137 -111t234 -38q160 0 270.5 45t183 122t113 178t63.5 216q25 129 20 234.5t-49 180.5t-131 115t-229 40q-279 0 -434.5 -139.5t-210.5 -425.5q-27 -133 -20.5 -238.5zM337 365.5q1 74.5 17 160.5q16 88 44 166t75 137.5t120 94 t181 34.5q98 0 157.5 -27.5t87.5 -81.5t28 -136q-1 -80 -21 -189q-20 -104 -51 -182t-80 -128t-123 -74.5t-178 -24.5q-96 0 -151.5 32.5t-81 88t-24.5 130zM733 1522l144 -297h100l-43 297h-201z" />
<glyph unicode="&#xf3;" horiz-adv-x="1177" d="M155.5 298.5q6.5 -105.5 53.5 -178.5t137 -111t234 -38q160 0 270.5 45t183 122t113 178t63.5 216q25 129 20 234.5t-49 180.5t-131 115t-229 40q-279 0 -434.5 -139.5t-210.5 -425.5q-27 -133 -20.5 -238.5zM337 365.5q1 74.5 17 160.5q16 88 44 166t75 137.5t120 94 t181 34.5q98 0 157.5 -27.5t87.5 -81.5t28 -136q-1 -80 -21 -189q-20 -104 -51 -182t-80 -128t-123 -74.5t-178 -24.5q-96 0 -151.5 32.5t-81 88t-24.5 130zM674 1225h92l270 295h-202z" />
<glyph unicode="&#xf4;" horiz-adv-x="1177" d="M155.5 298.5q6.5 -105.5 53.5 -178.5t137 -111t234 -38q160 0 270.5 45t183 122t113 178t63.5 216q25 129 20 234.5t-49 180.5t-131 115t-229 40q-279 0 -434.5 -139.5t-210.5 -425.5q-27 -133 -20.5 -238.5zM337 365.5q1 74.5 17 160.5q16 88 44 166t75 137.5t120 94 t181 34.5q98 0 157.5 -27.5t87.5 -81.5t28 -136q-1 -80 -21 -189q-20 -104 -51 -182t-80 -128t-123 -74.5t-178 -24.5q-96 0 -151.5 32.5t-81 88t-24.5 130zM596 1225h104l166 198l90 -198h101l-70 305h-199z" />
<glyph unicode="&#xf5;" horiz-adv-x="1177" d="M155.5 298.5q6.5 -105.5 53.5 -178.5t137 -111t234 -38q160 0 270.5 45t183 122t113 178t63.5 216q25 129 20 234.5t-49 180.5t-131 115t-229 40q-279 0 -434.5 -139.5t-210.5 -425.5q-27 -133 -20.5 -238.5zM337 365.5q1 74.5 17 160.5q16 88 44 166t75 137.5t120 94 t181 34.5q98 0 157.5 -27.5t87.5 -81.5t28 -136q-1 -80 -21 -189q-20 -104 -51 -182t-80 -128t-123 -74.5t-178 -24.5q-96 0 -151.5 32.5t-81 88t-24.5 130zM561 1276h146q4 27 11 46t30 19t46 -12t49.5 -25.5t56.5 -25.5t65 -12q63 0 113.5 44.5t62.5 112.5l10 50h-139 q-6 -29 -14.5 -50.5t-36.5 -21.5q-18 0 -42 12t-50.5 27.5t-57.5 29t-63 13.5q-8 0 -34 -6.5t-54.5 -26.5t-56.5 -62t-42 -112z" />
<glyph unicode="&#xf6;" horiz-adv-x="1177" d="M155.5 298.5q6.5 -105.5 53.5 -178.5t137 -111t234 -38q160 0 270.5 45t183 122t113 178t63.5 216q25 129 20 234.5t-49 180.5t-131 115t-229 40q-279 0 -434.5 -139.5t-210.5 -425.5q-27 -133 -20.5 -238.5zM337 365.5q1 74.5 17 160.5q16 88 44 166t75 137.5t120 94 t181 34.5q98 0 157.5 -27.5t87.5 -81.5t28 -136q-1 -80 -21 -189q-20 -104 -51 -182t-80 -128t-123 -74.5t-178 -24.5q-96 0 -151.5 32.5t-81 88t-24.5 130zM606 1272h176l39 205h-176zM895 1272h172l39 205h-172z" />
<glyph unicode="&#xf7;" horiz-adv-x="1228" d="M168 465h1073l35 180h-1073zM506 0h207l41 209h-207zM674 864h207l41 209h-207z" />
<glyph unicode="&#xf8;" horiz-adv-x="1228" d="M80 -29h129l88 88q35 -37 108.5 -62.5t192.5 -25.5q98 0 197.5 17.5t186.5 77t156.5 173t106.5 308.5q18 90 19.5 156.5t-7 114.5t-22.5 81t-27 55l148 144h-129l-78 -78q-16 12 -40 26.5t-59.5 26.5t-87 20.5t-124.5 8.5q-29 0 -79 -3t-110.5 -17.5t-127 -48.5t-127 -93 t-108.5 -152.5t-75 -228.5q-16 -86 -22.5 -151.5t-2.5 -115.5t17.5 -90t34.5 -77zM377 268q-29 66 8 260q20 109 54 190t85 134t124 79.5t171 26.5q66 0 122 -15t81 -48h-2zM422 186l645 629q8 -29 12 -53.5t4 -54.5q0 -31 -6 -73.5t-18 -103.5q-25 -125 -63 -205.5 t-90 -126.5t-117.5 -64.5t-143.5 -18.5q-111 0 -159 21.5t-64 49.5z" />
<glyph unicode="&#xf9;" horiz-adv-x="1099" d="M163 218.5q-5 -62.5 20.5 -118t92 -92.5t199.5 -37q90 0 152.5 17.5t105.5 45t70.5 61.5t50.5 69l-33 -164h166l209 1073h-176l-125 -639q-10 -47 -28.5 -103.5t-58.5 -104.5t-108.5 -79.5t-177.5 -31.5q-74 0 -112.5 20.5t-52 58t-8.5 91t18 121.5l131 667h-176 l-144 -739q-10 -53 -15 -115.5zM694 1522l144 -297h100l-43 297h-201z" />
<glyph unicode="&#xfa;" horiz-adv-x="1099" d="M163 218.5q-5 -62.5 20.5 -118t92 -92.5t199.5 -37q90 0 152.5 17.5t105.5 45t70.5 61.5t50.5 69l-33 -164h166l209 1073h-176l-125 -639q-10 -47 -28.5 -103.5t-58.5 -104.5t-108.5 -79.5t-177.5 -31.5q-74 0 -112.5 20.5t-52 58t-8.5 91t18 121.5l131 667h-176 l-144 -739q-10 -53 -15 -115.5zM635 1225h92l270 295h-202z" />
<glyph unicode="&#xfb;" horiz-adv-x="997" d="M163 218.5q-5 -62.5 20.5 -118t92 -92.5t199.5 -37q90 0 152.5 17.5t105.5 45t70.5 61.5t50.5 69l-33 -164h166l209 1073h-176l-125 -639q-10 -47 -28.5 -103.5t-58.5 -104.5t-108.5 -79.5t-177.5 -31.5q-74 0 -112.5 20.5t-52 58t-8.5 91t18 121.5l131 667h-176 l-144 -739q-10 -53 -15 -115.5zM557 1225h105l165 198l91 -198h100l-70 305h-198z" />
<glyph unicode="&#xfc;" horiz-adv-x="997" d="M163 218.5q-5 -62.5 20.5 -118t92 -92.5t199.5 -37q90 0 152.5 17.5t105.5 45t70.5 61.5t50.5 69l-33 -164h166l209 1073h-176l-125 -639q-10 -47 -28.5 -103.5t-58.5 -104.5t-108.5 -79.5t-177.5 -31.5q-74 0 -112.5 20.5t-52 58t-8.5 91t18 121.5l131 667h-176 l-144 -739q-10 -53 -15 -115.5zM567 1272h176l39 205h-176zM856 1272h172l39 205h-172z" />
<glyph unicode="&#xff;" horiz-adv-x="1013" d="M47 -377q33 -2 64 -2h63q57 0 101 5t84 26.5t80 68t87 129.5l703 1223h-191l-454 -837l-178 837h-193l246 -1030l-90 -158q-27 -47 -48.5 -70.5t-51 -32.5t-74.5 -10t-119 -1zM547 1272h176l39 205h-176zM836 1272h172l39 205h-173z" />
<glyph unicode="&#x152;" horiz-adv-x="2428" d="M205.5 387q21.5 -143 95.5 -236.5t195.5 -138.5t285.5 -45q133 0 226.5 21.5t156 53.5t99 66.5t59.5 61.5l-33 -170h1096l33 166h-903l104 536h815l31 160h-815l86 443h886l33 165h-1079l-33 -165q-16 39 -45 74.5t-80 63t-130 43t-193 15.5q-379 0 -588 -194.5 t-285 -581.5q-39 -195 -17.5 -338zM408 711q31 160 82 278.5t127.5 197.5t184 117.5t251.5 38.5q150 0 243 -40.5t138 -118.5t49 -189t-23 -252q-29 -143 -77 -257.5t-123.5 -194.5t-183 -123t-251.5 -43q-270 0 -372.5 145.5t-44.5 440.5z" />
<glyph unicode="&#x153;" horiz-adv-x="2023" d="M174 524q-55 -285 43 -419t363 -134q111 0 190.5 20.5t136 49.5t91 61.5t55.5 57.5q14 -33 37.5 -66t65.5 -60.5t108.5 -45t165.5 -17.5q150 0 248 34t159 85t92 113.5t45 118.5h-170q-10 -39 -30.5 -76t-57.5 -66.5t-95 -47t-144 -17.5q-66 0 -123.5 12t-97 50 t-54 109.5t7.5 190.5h813q31 154 33 271.5t-34.5 195.5t-119.5 118t-225 40q-182 0 -294.5 -55.5t-184.5 -135.5q-14 33 -39.5 68t-68.5 61.5t-109 44t-160 17.5q-121 0 -224 -26.5t-186 -92t-143.5 -177.5t-93.5 -282zM356 537q27 141 72 224t101.5 127t120 57t128.5 13 q82 0 140.5 -20t91 -69.5t38 -128t-17.5 -195.5q-18 -92 -43.5 -171t-72 -136.5t-118 -90t-184.5 -32.5q-180 0 -239.5 99t-16.5 323zM1239 621q18 55 43 115.5t68 109.5t110.5 80.5t175.5 31.5q90 0 143.5 -24.5t78 -68.5t24.5 -107q0 -61 -14 -137h-629z" />
<glyph unicode="&#x178;" horiz-adv-x="1259" d="M266 1470l387 -852l-121 -618h195l121 618l715 852h-211l-570 -694l-301 694h-215zM715 1624h176l41 205h-176zM1004 1624h172l41 205h-173z" />
<glyph unicode="&#x2c6;" horiz-adv-x="614" d="M315 1225h103l166 198l90 -198h100l-67 305h-199z" />
<glyph unicode="&#x2dc;" horiz-adv-x="778" d="M362 1276h144q4 27 12 46t29 19q23 0 46 -12t50 -25.5t56.5 -25.5t64.5 -12q63 0 113.5 44.5t62.5 112.5l10 50h-137q-6 -29 -15.5 -50.5t-35.5 -21.5q-18 0 -42 12t-50.5 27.5t-57 29t-63.5 13.5q-8 0 -34 -6.5t-54.5 -26.5t-56 -62t-42.5 -112z" />
<glyph unicode="&#x2000;" horiz-adv-x="964" />
<glyph unicode="&#x2001;" horiz-adv-x="1929" />
<glyph unicode="&#x2002;" horiz-adv-x="964" />
<glyph unicode="&#x2003;" horiz-adv-x="1929" />
<glyph unicode="&#x2004;" horiz-adv-x="643" />
<glyph unicode="&#x2005;" horiz-adv-x="482" />
<glyph unicode="&#x2006;" horiz-adv-x="321" />
<glyph unicode="&#x2007;" horiz-adv-x="321" />
<glyph unicode="&#x2008;" horiz-adv-x="241" />
<glyph unicode="&#x2009;" horiz-adv-x="385" />
<glyph unicode="&#x200a;" horiz-adv-x="107" />
<glyph unicode="&#x2010;" horiz-adv-x="757" d="M293 465h534l70 180h-535z" />
<glyph unicode="&#x2011;" horiz-adv-x="757" d="M293 465h534l70 180h-535z" />
<glyph unicode="&#x2012;" horiz-adv-x="757" d="M293 465h534l70 180h-535z" />
<glyph unicode="&#x2013;" horiz-adv-x="768" d="M207 465h534l35 180h-534z" />
<glyph unicode="&#x2014;" horiz-adv-x="1597" d="M211 465h1356l35 180h-1356z" />
<glyph unicode="&#x2018;" d="M311 1038h193l37 195h-86q8 27 15 46t19.5 36.5t32 32t47.5 30.5l19 97q-96 -29 -159.5 -91.5t-86.5 -179.5z" />
<glyph unicode="&#x2019;" d="M309 1036q96 29 159.5 91.5t86.5 179.5l33 166h-193l-39 -195h86q-6 -27 -14 -46.5t-20.5 -36.5t-31 -31.5t-48.5 -30.5z" />
<glyph unicode="&#x201a;" d="M53 -252q47 8 86 36t69 65.5t48.5 79.5t26.5 81l32 164h-178l-35 -174h88q-14 -72 -42.5 -108.5t-77.5 -61.5z" />
<glyph unicode="&#x201c;" horiz-adv-x="614" d="M285 1038h190l37 195h-86q8 27 16.5 46t20.5 36.5t30.5 32t47.5 30.5l18 97q-94 -29 -157.5 -91.5t-86.5 -179.5zM549 1038h190l37 195h-86q8 27 15.5 46t19.5 36.5t31.5 32t48.5 30.5l18 97q-94 -29 -157.5 -91.5t-85.5 -179.5z" />
<glyph unicode="&#x201d;" horiz-adv-x="614" d="M283 1036q94 29 157 91.5t86 179.5l33 166h-190l-39 -195h86q-6 -27 -14.5 -46.5t-20.5 -36.5t-31.5 -31.5t-48.5 -30.5zM547 1036q94 29 157.5 91.5t86.5 179.5l32 166h-190l-39 -195h84q-6 -27 -13.5 -46.5t-19.5 -36.5t-31.5 -31.5t-48.5 -30.5z" />
<glyph unicode="&#x201e;" horiz-adv-x="675" d="M61 -252q49 8 88 36t69 65.5t48.5 79.5t26.5 81h-2l33 164h-179l-34 -174h90q-14 -72 -44 -108.5t-79 -61.5zM336 -252q49 8 88 36t68.5 65.5t48 79.5t26.5 81l33 164h-180l-35 -174h90q-14 -72 -44 -108.5t-79 -61.5z" />
<glyph unicode="&#x2022;" horiz-adv-x="921" d="M237 612.5q15 -69.5 56 -122t103.5 -83t140.5 -30.5q74 0 146.5 28.5t133 77.5t103.5 116.5t59 145.5q14 78 0 148t-53 121t-100.5 80.5t-139.5 29.5q-76 0 -149.5 -28.5t-135 -77.5t-104.5 -115.5t-59 -142.5q-16 -78 -1 -147.5z" />
<glyph unicode="&#x2026;" horiz-adv-x="1413" d="M102 0h207l41 209h-207zM590 0h207l41 209h-207zM1075 0h207l41 209h-207z" />
<glyph unicode="&#x202f;" horiz-adv-x="385" />
<glyph unicode="&#x2039;" horiz-adv-x="614" d="M184 516l183 -410h161l-180 410l367 432h-164z" />
<glyph unicode="&#x203a;" horiz-adv-x="614" d="M104 106h162l369 431l-189 411h-161l186 -411z" />
<glyph unicode="&#x205f;" horiz-adv-x="482" />
<glyph unicode="&#x20ac;" horiz-adv-x="1433" d="M141 518h178q8 -129 57.5 -231.5t130.5 -173t191.5 -108.5t239.5 -38q143 0 279.5 49t240.5 117l-96 107q-190 -117 -383 -117q-201 0 -328 104.5t-157 290.5h684l30 156h-719q2 16 4.5 29.5t4.5 25.5q4 14 7 27.5t7 34.5h719l31 155h-684q45 86 111.5 158t146 124 t170 80.5t186.5 28.5q98 0 180 -24.5t148 -71.5l139 115q-82 66 -189.5 101.5t-224.5 35.5q-133 0 -260 -37t-236.5 -107.5t-198.5 -172t-147 -230.5h-178l-30 -155h149q-4 -20 -7 -34t-7 -26q-2 -12 -4 -24.5t-4 -32.5h-150z" />
<glyph unicode="&#x2122;" horiz-adv-x="1372" d="M367 1374h190l-100 -524h118l101 524h190l21 105h-500zM813 850h117l78 403l73 -403h88l232 403l-78 -403h115l121 629h-138l-264 -453l-84 453h-139z" />
<glyph unicode="&#xe000;" horiz-adv-x="1075" d="M0 0v1075h1075v-1075h-1075z" />
<glyph unicode="&#xfb01;" horiz-adv-x="872" d="M160 0h176l178 913h197l30 160h-196l24 133q6 29 13.5 51.5t24 39t47 25.5t83.5 9q12 0 26.5 -1t27.5 -1l28 148q-25 2 -50.5 3t-49.5 1q-90 0 -147.5 -21.5t-93.5 -57.5t-54 -84t-29 -104l-26 -141h-148l-31 -160h148zM592 0h176l209 1073h-176zM838 1268h176l43 213 h-176z" />
<glyph unicode="&#xfb02;" horiz-adv-x="872" d="M160 0h176l178 913h197l30 160h-196l24 133q6 29 13.5 51.5t24 39t47 25.5t83.5 9q12 0 26.5 -1t27.5 -1l28 148q-25 2 -50.5 3t-49.5 1q-90 0 -147.5 -21.5t-93.5 -57.5t-54 -84t-29 -104l-26 -141h-148l-31 -160h148zM594 0h176l289 1481h-176z" />
</font>
</defs>
</svg>
