<?xml version="1.0" standalone="no"?>
<!DOCTYPE svg PUBLIC "-//W3C//DTD SVG 1.1//EN" "http://www.w3.org/Graphics/SVG/1.1/DTD/svg11.dtd" >
<svg xmlns="http://www.w3.org/2000/svg">
<metadata></metadata>
<defs>
<font id="heldustryft_demi_italicRg" horiz-adv-x="1318" >
<font-face units-per-em="2048" ascent="1638" descent="-410" />
<missing-glyph horiz-adv-x="450" />
<glyph horiz-adv-x="2048" />
<glyph horiz-adv-x="2048" />
<glyph unicode="&#xd;" horiz-adv-x="1024" />
<glyph unicode=" "  horiz-adv-x="450" />
<glyph unicode="&#x09;" horiz-adv-x="450" />
<glyph unicode="&#xa0;" horiz-adv-x="450" />
<glyph unicode="!" horiz-adv-x="522" d="M115 0h297l55 281h-297zM242 397h200l191 709l72 364h-312l-71 -364z" />
<glyph unicode="&#x22;" horiz-adv-x="716" d="M297 1047h162l121 423h-224zM651 1047h162l121 423h-223z" />
<glyph unicode="#" horiz-adv-x="1146" d="M119 451h188l-153 -451h200l154 451h188l-155 -451h204l152 451h188l74 211h-188l57 172h189l71 210h-190l125 371h-201l-127 -371h-188l127 371h-201l-125 -371h-189l-71 -210h190l-59 -172h-191zM580 662l57 172h188l-59 -172h-186z" />
<glyph unicode="$" horiz-adv-x="1290" d="M145 294.5q9 -93.5 64 -161.5q35 -43 83 -70.5t98 -44t100.5 -25.5t89.5 -13l-31 -162h125l31 162q78 8 173 25.5t185 65.5t160.5 136t99.5 235q16 88 5 151.5t-42 107.5t-78 72t-102 46.5t-114.5 29.5t-112.5 21l69 367q8 0 25.5 -4t36 -10t36 -16.5t29.5 -24.5 q16 -18 22.5 -41t6.5 -45q0 -23 -2 -46.5t-4 -45.5h280q23 129 2.5 220t-100.5 152q-33 25 -75 40.5t-83 24.5t-76.5 13t-54.5 4l21 105h-125l-21 -105q-80 -4 -169 -22.5t-168.5 -64.5t-140 -125t-85.5 -206q-16 -84 -4 -144t44 -102t78 -69t96 -43t100.5 -26.5t89.5 -18.5 l-82 -426q-43 10 -86 23.5t-72 52.5q-33 43 -35 103.5t6 101.5h-288q-14 -104 -5 -197.5zM585.5 979q-10.5 33 2.5 92q10 55 38.5 87t64.5 49.5t72 22.5t60 7l-67 -348q-41 8 -77 15t-59.5 24.5t-34 50.5zM750 211l79 407q53 -10 96.5 -19t72 -28.5t39.5 -52.5t1 -88 q-16 -80 -51 -124t-77 -65.5t-85 -25.5t-75 -4z" />
<glyph unicode="%" horiz-adv-x="1904" d="M248.5 830.5q3.5 -78.5 23 -131t53 -81t71.5 -42t78 -16.5t73 -3q55 0 118.5 12.5t125 59.5t113.5 140t83 257q20 109 16 185.5t-26.5 125.5t-56 77t-70.5 41t-73 16.5t-60 3.5q-53 0 -120 -13.5t-129 -60.5t-116.5 -136t-83.5 -239q-23 -117 -19.5 -195.5zM484 886 q3 52 20 132q18 96 40.5 149.5t47 79t47.5 30.5t41 5q76 0 85.5 -71.5t-15.5 -198.5q-6 -35 -16.5 -80t-29 -87t-49 -71t-75.5 -29q-35 0 -56.5 12.5t-32 44.5t-7.5 84zM547 -53h213l866 1515h-207zM1182.5 232.5q3.5 -78.5 23 -131t52 -81t70.5 -42t78 -16.5t73 -3 q55 0 118.5 12.5t125 59.5t113.5 140t85 257q20 109 15 185.5t-26.5 125.5t-56 77t-71.5 41t-73 16.5t-60 3.5q-53 0 -119 -13.5t-129.5 -60.5t-116.5 -136t-82 -239q-23 -117 -19.5 -195.5zM1417 288q2 52 19 132q18 96 40.5 149.5t47 79t47 30.5t41.5 5q76 0 85 -71.5 t-16 -198.5q-6 -35 -16 -80t-28.5 -87t-49.5 -71t-76 -29q-35 0 -56 12.5t-30.5 44.5t-7.5 84z" />
<glyph unicode="&#x26;" horiz-adv-x="1341" d="M93 224.5q5 -70.5 49 -128t135.5 -93.5t248.5 -36q88 0 157 13.5t123 34t93 44t68 41.5l57 -100h317l-192 334q27 47 49.5 95t40.5 108q16 49 28.5 96t16.5 80h-233l-15 -66q-4 -23 -11 -45t-11 -45l-152 258q45 31 94.5 69t92.5 85t74.5 104t45.5 125q18 92 -3 151.5 t-67 93.5t-110.5 46t-134.5 12q-104 0 -171 -22.5t-124 -65.5q-53 -43 -88 -103.5t-45 -117.5q-8 -45 -1 -89t24.5 -86t39 -82t41.5 -75q-63 -41 -130.5 -87t-128 -104.5t-105.5 -132t-64 -169.5q-14 -72 -9 -142.5zM387 385q10 51 38 94t64.5 79t76.5 63.5t73 46.5 l217 -381q-47 -31 -120.5 -67t-166.5 -36q-113 0 -155.5 58.5t-26.5 142.5zM686 1200q10 47 45 72.5t88 25.5q59 0 80 -24.5t10 -79.5h-2q-10 -59 -50 -101t-97 -96q-33 53 -58.5 101.5t-15.5 101.5z" />
<glyph unicode="'" horiz-adv-x="430" d="M256 891q78 8 136.5 40t107.5 89q35 41 56.5 92t31.5 102l51 256h-274l-52 -260h154q-12 -43 -23.5 -73.5t-35.5 -61.5q-29 -37 -63 -59.5t-75 -44.5z" />
<glyph unicode="(" horiz-adv-x="716" d="M144.5 154.5q7.5 -103.5 35 -175t71.5 -117.5t92 -70.5t94 -34t77 -9.5h66l43 217q-63 0 -107.5 21.5t-65 79t-17.5 155.5t34 252l102 533q27 137 58.5 234t73.5 158.5t96.5 90.5t126.5 29l43 217h-33q-20 0 -66.5 -4.5t-107 -23.5t-129 -60t-132 -114t-117.5 -183.5 t-85 -270.5l-131 -680q-29 -141 -21.5 -244.5z" />
<glyph unicode=")" horiz-adv-x="716" d="M39 -252h65q31 0 81.5 9.5t107.5 34t118.5 70.5t118 117.5t103.5 175t74 244.5l131 680q31 160 20.5 270.5t-45.5 183.5t-87 114t-104.5 60t-97.5 23.5t-65 4.5h-33l-43 -217q72 0 115 -29t60 -90.5t11 -158.5t-32 -234l-103 -533q-31 -154 -65.5 -252t-76.5 -155.5 t-94.5 -79t-115.5 -21.5z" />
<glyph unicode="*" horiz-adv-x="778" d="M305 1077l47 -129l160 84l-33 -164h156l33 164l127 -84l96 129l-121 86l154 82l-47 129l-158 -80l33 170h-156l-33 -170l-129 80l-96 -129l121 -82z" />
<glyph unicode="+" horiz-adv-x="1228" d="M145 436h422l-84 -436h262l84 436h422l54 266h-422l78 404h-263l-77 -404h-422z" />
<glyph unicode="," horiz-adv-x="501" d="M39 -342q53 4 95 20.5t74 37t53.5 42t31.5 33.5q47 57 72.5 116t35.5 118l52 264h-293l-56 -289h156q0 -8 -5 -26.5t-12 -40t-19.5 -45t-26.5 -42.5q-27 -35 -63 -58.5t-77 -33.5z" />
<glyph unicode="-" horiz-adv-x="737" d="M299 446h483l99 250h-484z" />
<glyph unicode="." horiz-adv-x="501" d="M104 0h293l56 289h-293z" />
<glyph unicode="/" horiz-adv-x="585" d="M-41 -74h229l707 1544h-229z" />
<glyph unicode="0" horiz-adv-x="1320" d="M201 430q-2 -141 42 -241.5t141 -154.5t263 -54q197 0 324 61t206.5 167.5t123.5 250t77 305.5q27 141 32 273t-37 232.5t-143.5 161t-285.5 60.5q-158 0 -274.5 -48t-200.5 -142.5t-140.5 -233.5t-90.5 -322q-35 -174 -37 -315zM492.5 542.5q11.5 100.5 33.5 215.5 q16 82 41 172t67 164.5t106.5 123t162.5 48.5q86 0 135 -33t68.5 -100.5t11.5 -169t-35 -238.5q-35 -176 -77.5 -279.5t-92 -156.5t-104.5 -69.5t-115 -16.5q-92 0 -138 44t-60.5 119.5t-3 176z" />
<glyph unicode="1" horiz-adv-x="880" d="M283 1028h370l-200 -1028h295l284 1468h-246q-33 -53 -72.5 -100t-103.5 -84q-76 -43 -154.5 -49t-136.5 -8z" />
<glyph unicode="2" horiz-adv-x="1269" d="M100 0h1067l47 240h-753q12 14 27.5 31.5t31.5 29.5q82 59 171 105.5t176 91.5t169 93t149.5 110.5t116.5 145t72 195.5q27 133 11.5 220.5t-70.5 137.5t-149.5 70.5t-227.5 20.5q-76 0 -166 -10.5t-175 -52.5t-151.5 -124.5t-95.5 -228.5l-18 -92h289q16 82 33.5 136.5 t47 87t79.5 47t130 14.5q63 0 101.5 -14.5t56.5 -40t19.5 -61.5t-7.5 -79q-10 -51 -21 -88t-28.5 -67.5t-44 -57t-67.5 -57.5q-74 -55 -157 -102.5t-166 -94.5t-161 -98t-143.5 -113.5t-112.5 -142.5t-67 -182q-4 -16 -6.5 -35t-6.5 -35z" />
<glyph unicode="3" horiz-adv-x="1320" d="M178 291q12 -92 67.5 -162t161 -109.5t275.5 -39.5q256 0 420 107t211 347q20 111 5 177.5t-51 103.5t-83 50t-86 19q61 14 109 44t84 70t58.5 88t32.5 99q25 125 -1.5 204t-88 124t-147.5 61.5t-180 16.5q-162 0 -273.5 -40t-185.5 -106.5t-114 -153.5t-58 -179h282 q10 49 29 95t51.5 82t85 58.5t129.5 22.5q47 0 85 -7.5t62.5 -29t33 -62.5t-4.5 -108q-6 -35 -22 -66.5t-44 -56.5t-72 -40t-105 -15h-105l-43 -217h101q57 0 104 -8.5t77 -33t40 -71.5t-4 -123q-27 -133 -101.5 -181t-199.5 -48q-102 0 -153.5 28.5t-71 70.5t-16.5 92t7 93 h-293q-20 -104 -8 -196z" />
<glyph unicode="4" horiz-adv-x="1249" d="M147 334h650l-66 -334h275l65 334h199l41 211h-199l178 923h-280l-807 -852zM416 545l532 567l-110 -567h-422z" />
<glyph unicode="5" horiz-adv-x="1269" d="M165 328.5q1 -43.5 15.5 -91t44 -93.5t80.5 -82.5t128 -59t183 -22.5q117 0 226.5 27.5t201 89t156.5 163t94 248.5q27 141 7.5 239.5t-75 161t-137 90t-180.5 27.5q-104 0 -170.5 -30.5t-117.5 -59.5l120 293h631l45 239h-827l-314 -780h252q31 20 58.5 41t61.5 37 t75 25.5t98 9.5q72 0 115 -21.5t62.5 -61.5t19.5 -95t-14 -125q-16 -84 -44 -139.5t-68 -88t-94.5 -47t-123.5 -14.5q-84 0 -128 25.5t-62.5 62.5t-18.5 78v76h-285l-10 -48q-6 -31 -5 -74.5z" />
<glyph unicode="6" horiz-adv-x="1320" d="M190 423q-8 -134 33 -232.5t145.5 -154.5t299.5 -56q127 0 234.5 30.5t190.5 93t139 158.5t81 227q27 133 7 228.5t-75 156t-143 88t-201 27.5q-123 0 -213 -40t-143 -93q31 121 64.5 200t76.5 125t100.5 64.5t139.5 18.5q66 0 102.5 -13.5t56 -35t25.5 -49t10 -54.5h285 q2 66 -6 133.5t-49 121.5t-128 89t-241 35q-66 0 -137.5 -5t-142 -29.5t-139 -73t-131 -135.5t-114 -218t-88.5 -319q-31 -154 -39 -288zM489 485q6 35 22.5 82t52.5 89t98.5 72t160.5 30q135 0 184.5 -58.5t22.5 -189.5q-23 -117 -58.5 -179.5t-78.5 -90t-90 -30.5t-92 -3 q-156 0 -202 69.5t-20 208.5z" />
<glyph unicode="7" horiz-adv-x="1126" d="M209 0h311q20 68 49 152t67 177t87 192.5t111 195.5q113 178 242 309t229 207l45 235h-1004l-45 -235h705q-72 -53 -189 -167t-252 -306q-68 -94 -127 -207t-106 -220.5t-79 -196.5t-44 -136z" />
<glyph unicode="8" horiz-adv-x="1320" d="M172 416q-39 -201 83 -318.5t402 -117.5q106 0 214 21.5t198 75.5t156.5 144.5t93.5 229.5q18 98 3 162.5t-51 104.5t-83 59.5t-90 27.5q49 12 93 30.5t81 52.5t64.5 87t43.5 133q18 96 0 161.5t-59 107.5t-96.5 65.5t-108.5 34t-98 12.5t-66 2q-117 0 -215 -22.5 t-175 -71.5t-129 -129t-75 -193q-12 -59 -2.5 -104t31 -79t53 -55.5t66.5 -31.5q-61 -18 -113.5 -44t-94.5 -70t-73.5 -110.5t-52.5 -164.5zM471 430q12 59 32.5 107.5t58.5 82t95.5 52t143.5 18.5q61 0 110.5 -8t80 -33.5t40.5 -76t-6 -134.5q-25 -123 -102.5 -178 t-225.5 -55q-158 0 -203.5 57t-23.5 168zM644 1011q-3 36 7 83q12 63 43 99t68 53.5t77 20.5t70 3q104 0 150 -34t26 -138q-23 -117 -84 -157t-165 -40q-68 0 -109 12.5t-60.5 37t-22.5 60.5z" />
<glyph unicode="9" horiz-adv-x="1320" d="M190 354q-10 -102 9.5 -173.5t72 -116t140.5 -64.5t215 -20q68 0 137.5 4t139 27.5t135 73.5t126 141t111.5 231.5t90 343.5q33 166 35 294t-45 216t-151.5 134t-286.5 46q-119 0 -223.5 -30.5t-187.5 -92t-140.5 -157t-81.5 -224.5q-27 -135 -8.5 -231.5t71.5 -157.5 t138 -90t194 -29q145 0 232 42t128 85q-23 -78 -44 -150.5t-58 -129t-96.5 -90t-157.5 -33.5q-72 0 -114 11t-63.5 31.5t-27.5 48.5t-8 60h-281zM554 875.5q3 52.5 15 113.5q29 143 100.5 213t219.5 70q63 0 110.5 -13.5t75 -46t34.5 -85t-7 -132.5q-12 -68 -36 -122 t-62.5 -92t-95 -58.5t-136.5 -20.5q-90 0 -137 21.5t-65.5 60.5t-15.5 91.5z" />
<glyph unicode=":" horiz-adv-x="501" d="M104 0h293l56 289h-293zM256 782h293l57 291h-293z" />
<glyph unicode=";" horiz-adv-x="501" d="M-27 -342q53 4 99.5 20.5t81 37t60.5 42t38 33.5q59 57 95 116t59 118l102 264h-293l-111 -289h156q-2 -8 -10 -26.5t-20.5 -40t-29 -45t-34.5 -42.5q-33 -35 -74 -58.5t-82 -33.5zM408 782h292l115 291h-293z" />
<glyph unicode="&#x3c;" horiz-adv-x="1269" d="M178 424l991 -440l52 260l-662 282l772 289l49 254l-1163 -442z" />
<glyph unicode="=" horiz-adv-x="1024" d="M133 197h836l51 266h-836zM217 633h836l51 266h-836z" />
<glyph unicode="&#x3e;" horiz-adv-x="1269" d="M92 -16l1163 440l39 203l-991 442l-49 -254l661 -289l-772 -282z" />
<glyph unicode="?" horiz-adv-x="1085" d="M264 1012h271q14 72 34.5 125t53 88t80 51t112.5 16q92 0 126 -51t15 -147q-10 -55 -35.5 -96.5t-61.5 -76t-80 -67.5t-91 -72q-35 -29 -71.5 -65.5t-69.5 -83.5t-59.5 -104.5t-38.5 -125.5h262q10 41 29.5 91.5t78.5 109.5q45 45 108.5 89t124 96.5t110 121t67.5 164.5 q25 127 2 209t-77 130t-133 67.5t-169 19.5q-127 0 -226.5 -31.5t-171 -88t-115.5 -134.5t-63 -168zM354 0h297l56 281h-297z" />
<glyph unicode="@" horiz-adv-x="1515" d="M137 336q-74 -383 56.5 -563.5t482.5 -180.5q72 0 139.5 7.5t149.5 31.5l39 201q-86 -23 -146.5 -33t-124.5 -10q-125 0 -207 34t-124 103.5t-47 177t24 256.5q59 297 202.5 440.5t372.5 143.5q80 0 139.5 -16.5t98.5 -44t54.5 -64.5t8.5 -76q-6 -27 -27.5 -39t-64.5 -18 q-41 -6 -95 -10t-126 -17q-178 -33 -279.5 -117.5t-130.5 -238.5q-33 -164 43 -254t236 -90q47 0 90 7t86 22.5t89 40t100 59.5q6 -59 50 -86t122 -27q23 0 51.5 4.5t77.5 14.5l36 182q-27 -4 -36 -4h-13q-39 0 -42 13.5t3 43.5l5 23l53 270q27 141 26 248q0 106 -51 182 q-57 90 -177 139.5t-284 49.5q-350 0 -566 -200t-294 -605zM799 322q12 66 49 101.5t113 49.5q47 10 86.5 15.5t72.5 11.5q29 6 52.5 14t54.5 27l-35 -181q-8 -45 -35 -81.5t-65.5 -62.5t-86 -40t-98.5 -14q-143 0 -108 160z" />
<glyph unicode="A" horiz-adv-x="1316" d="M-10 0h295l159 317h537l39 -317h307l-233 1470h-314zM555 535l328 649l71 -649h-399z" />
<glyph unicode="B" horiz-adv-x="1435" d="M147 0h644q102 0 205.5 15.5t192.5 62.5t155.5 134t95.5 232q11 61 11 109q0 29 -4 54q-11 65 -45 105t-86 56t-114 16q129 14 202 84t101 211q12 56 12 113q0 12 -1 24q-3 70 -40.5 126.5t-116.5 92t-214 35.5h-711zM489 244l82 418h441q31 0 60.5 -7.5t50 -31 t27.5 -66.5q2 -14 2 -32q0 -35 -9 -83q-23 -109 -79 -153.5t-167 -44.5h-408zM614 887l68 344h420q84 0 106 -36q13 -21 13 -58q0 -27 -7 -64q-16 -84 -64 -135t-149 -51h-387z" />
<glyph unicode="C" horiz-adv-x="1454" d="M212 416q11 -146 77.5 -246t191.5 -151.5t320 -51.5q170 0 291.5 45t205.5 119t136.5 169.5t83.5 197.5h-291q-20 -47 -45 -98.5t-66 -94.5t-106.5 -70.5t-167.5 -27.5q-94 0 -166 20.5t-115 75.5t-52 153q-2 23 -3 49q0 86 24 208q29 150 70 256t102.5 171.5t147.5 96.5 t205 31q96 0 150.5 -21.5t81 -56.5t33.5 -78t11 -88h279q1 19 1 39q1 62 -9 126q-12 85 -65.5 153.5t-161 113.5t-294.5 45q-182 0 -323.5 -51t-245.5 -148.5t-173 -236.5t-101 -313q-29 -146 -29 -267q0 -36 3 -69z" />
<glyph unicode="D" horiz-adv-x="1484" d="M147 0h529q184 0 327.5 40t249 128t175 227t108.5 338q27 145 27 263q1 26 -1 52q-8 138 -65 231t-167.5 142t-282.5 49h-613zM487 244l193 987h307q86 0 147.5 -21.5t95.5 -76t38 -144.5q1 -12 1 -24q0 -84 -24 -203q-29 -141 -64.5 -240.5t-89 -161t-130 -89 t-183.5 -27.5h-291z" />
<glyph unicode="E" horiz-adv-x="1335" d="M147 0h1153l48 244h-859l80 413h770l47 238h-770l66 336h836l47 239h-1131z" />
<glyph unicode="F" horiz-adv-x="1253" d="M147 0h295l125 643h654l47 238h-654l68 350h776l47 239h-1071z" />
<glyph unicode="G" horiz-adv-x="1517" d="M213 440q8 -143 67.5 -248.5t179.5 -165t312 -59.5q117 0 196 21.5t133 53.5t89 70t65 72l-34 -184h225l153 795h-638l-46 -238h349q-6 -12 -15.5 -44t-27 -71t-46 -81t-73.5 -76.5t-108.5 -57t-151.5 -22.5q-123 0 -196 32.5t-106 102.5q-32 66 -32 164v12q2 105 31 250 q27 133 66.5 229.5t100 157.5t142.5 90t192 29q111 0 170.5 -25.5t85 -64.5t26.5 -85v-10q0 -41 -7 -77h303q8 44 8 89q0 42 -7 85q-15 88 -74.5 158.5t-171 114.5t-288.5 44q-348 0 -561 -186.5t-286 -562.5q-27 -135 -27 -255q0 -29 2 -57z" />
<glyph unicode="H" horiz-adv-x="1468" d="M147 0h295l129 666h619l-129 -666h295l286 1470h-294l-113 -575h-619l113 575h-295z" />
<glyph unicode="I" horiz-adv-x="593" d="M168 0h293l287 1470h-293z" />
<glyph unicode="J" horiz-adv-x="1112" d="M123 408q-15 -77 -15 -139q0 -132 67 -201q99 -101 349 -101q135 0 232.5 34t162 91.5t102.5 134t54 160.5l211 1083h-293l-205 -1052q-10 -53 -24 -94t-40 -69t-69 -41t-112 -13q-47 0 -81 9t-54.5 32.5t-24.5 65.5q-1 10 -1 22q0 36 9 86l23 114h-269z" />
<glyph unicode="K" horiz-adv-x="1392" d="M147 0h295l101 516l190 160l324 -676h362l-444 872l692 598h-371l-690 -624l123 624h-295z" />
<glyph unicode="L" horiz-adv-x="1185" d="M147 0h1024l48 244h-730l240 1226h-295z" />
<glyph unicode="M" horiz-adv-x="1748" d="M147 0h283l217 1118l94 -1118h299l533 1118l-217 -1118h280l287 1470h-432l-533 -1146l-104 1146h-420z" />
<glyph unicode="N" horiz-adv-x="1472" d="M147 0h295l201 1028l412 -1028h305l287 1470h-293l-199 -1021l-418 1021h-303z" />
<glyph unicode="O" horiz-adv-x="1619" d="M220 390q24 -142 96.5 -236.5t189.5 -140.5t264 -46q377 0 600 186.5t299 577.5q25 130 25 240q0 43 -4 83q-14 142 -79 241.5t-186.5 152.5t-302.5 53q-164 0 -307 -40t-259 -130t-198 -239.5t-125 -366.5q-22 -117 -22 -215q0 -64 9 -120zM511 507q-1 17 0 34 q0 84 19 184q25 129 64 230.5t101.5 171t154.5 105.5t225 36q94 0 164 -28t110 -89t48 -162q2 -23 2 -48q0 -86 -21 -198q-20 -102 -52 -199.5t-92 -174t-155.5 -122.5t-242.5 -46q-106 0 -176 36.5t-107 104.5t-42 165z" />
<glyph unicode="P" horiz-adv-x="1351" d="M147 0h295l115 588h379q164 0 269.5 47t168 115.5t92 143.5t39.5 130q12 65 11 121q0 39 -5 74q-14 84 -60 140t-120 83.5t-168 27.5h-729zM600 815l82 416h356q51 0 90 -5t61.5 -25.5t27.5 -60.5q1 -12 1 -26q0 -34 -8 -84q-14 -68 -33.5 -110.5t-47 -65.5t-64.5 -31 t-88 -8h-377z" />
<glyph unicode="Q" horiz-adv-x="1619" d="M220 376q28 -143 104.5 -234t194.5 -133t261 -42q41 0 95.5 4t111.5 14.5t113.5 26t105.5 39.5l131 -155l156 135l-111 137q12 10 48 44t80 100.5t87 169t72 249.5q25 130 25 240q0 43 -4 83q-13 142 -78.5 241.5t-187 152.5t-302.5 53q-164 0 -307 -40t-259 -130 t-198 -239.5t-125 -366.5q-24 -122 -24 -222q0 -68 11 -127zM512 484q-3 27 -3 56q0 81 21 185q25 129 64 230.5t101.5 171t154.5 105.5t225 36q94 0 164 -28t110 -89t48 -162q2 -23 2 -48q0 -86 -21 -198q-23 -106 -56.5 -209.5t-98.5 -175.5l-117 138l-158 -138l105 -120 q-55 -23 -112.5 -30t-104.5 -7q-92 0 -161 29.5t-111 92t-52 161.5z" />
<glyph unicode="R" horiz-adv-x="1441" d="M147 0h295l115 588h391q117 0 135 -78q8 -31 8 -74q0 -21 -2 -46q-6 -73 -14 -147.5t-12 -140.5q-1 -13 -1 -26q0 -48 13 -76h303q-18 52 -18 110q0 17 2 35q8 137 22 237q11 74 11 129q0 19 -1 37q-5 66 -38 104t-115 53q57 4 109.5 25.5t96.5 63.5t76.5 105.5 t51.5 153.5q13 67 13 121q0 58 -15 101q-29 83 -92.5 126t-147.5 56t-168 13h-731zM602 819l80 412h418q57 0 95 -7t59.5 -26.5t25.5 -57.5q1 -9 1 -20q0 -33 -9 -78q-10 -55 -26.5 -96t-47.5 -69.5t-81 -43t-126 -14.5h-389z" />
<glyph unicode="S" horiz-adv-x="1382" d="M168 485q-13 -69 -13 -130q0 -159 93 -255q129 -133 434 -133q317 0 491.5 115t217.5 338q11 58 11 115v9q-1 62 -18.5 115.5t-51.5 93.5t-87 58q-104 35 -193 54.5t-162 31.5t-128 22.5t-90 28.5q-36 18 -50 48q-9 17 -8 43q0 17 4 38q12 57 34 97t61 63t95 33t136 10 q104 0 154 -28q48 -29 66 -67q15 -32 15 -66v-12q-3 -40 -3 -63h284q10 56 10 115q0 21 -1 42q-5 81 -53 147.5t-151.5 109.5t-283.5 43q-86 0 -187.5 -13t-194.5 -56t-165 -122t-96 -208q-14 -73 -14 -129q0 -35 6 -63q14 -74 57 -119.5t111.5 -70t152.5 -44.5 q111 -27 202 -38t151 -30q62 -20 88 -58q17 -25 17 -68q0 -23 -5 -50q-14 -76 -45 -122t-76 -71.5t-105.5 -34.5t-136.5 -9q-98 0 -157.5 22.5t-91.5 62.5q-30 38 -38 92q-3 24 -3 50q0 31 4 63h-287z" />
<glyph unicode="T" horiz-adv-x="1185" d="M246 1231h440l-240 -1231h295l240 1231h438l47 239h-1173z" />
<glyph unicode="U" horiz-adv-x="1456" d="M230 264q14 -94 72 -160.5t164.5 -101.5t268.5 -35q289 0 468.5 118t232.5 388l194 997h-295l-196 -1011q-12 -61 -36 -108.5t-64 -80t-97 -50t-139 -17.5q-92 0 -150.5 16.5t-89.5 50t-36 83.5q-1 14 -1 29q0 39 9 87l194 1001h-295l-194 -993q-14 -75 -14 -140 q-1 -38 4 -73z" />
<glyph unicode="V" horiz-adv-x="1257" d="M270 1470l205 -1470h287l799 1470h-312l-553 -1091l-112 1091h-314z" />
<glyph unicode="W" horiz-adv-x="1875" d="M270 1470l152 -1470h287l436 1071l29 -1071h284l721 1470h-305l-496 -1097l-2 1097h-297l-438 -1097l-68 1097h-303z" />
<glyph unicode="X" horiz-adv-x="1253" d="M102 0h344l414 532l205 -532h344l-332 776l568 694h-334l-359 -458l-178 458h-334l297 -694z" />
<glyph unicode="Y" horiz-adv-x="1236" d="M266 1470l299 -923l-106 -547h295l106 551l686 919h-332l-444 -620l-170 620h-334z" />
<glyph unicode="Z" horiz-adv-x="1302" d="M10 0h1231l47 244h-854l1032 1007l43 219h-1171l-47 -239h813l-1055 -1032z" />
<glyph unicode="[" horiz-adv-x="598" d="M123 0h475l41 213h-205l203 1044h205l43 213h-475z" />
<glyph unicode="\" horiz-adv-x="567" d="M254 1470l104 -1544h230l-105 1544h-229z" />
<glyph unicode="]" horiz-adv-x="598" d="M0 0h475l287 1470h-475l-43 -213h205l-203 -1044h-205z" />
<glyph unicode="^" horiz-adv-x="634" d="M246 1022h121l221 342l80 -342h120l-114 448h-121z" />
<glyph unicode="_" horiz-adv-x="1116" d="M-61 -324h1112l45 226h-1112z" />
<glyph unicode="`" horiz-adv-x="593" d="M414 1505l161 -315h132l-52 315h-241z" />
<glyph unicode="a" horiz-adv-x="1173" d="M152 319q-9 -49 -9 -92q1 -100 51 -164q72 -92 279 -92q53 0 99 6.5t87 22.5t79 48t75 81q8 -18 14.5 -44t26.5 -46q25 -25 53.5 -32t67.5 -7h141l41 209q-27 -2 -41 4t-20 10q-4 4 -6.5 17.5t4.5 48.5l90 456q12 59 12 108q0 113 -64 169q-90 80 -309 80 q-135 0 -230 -24.5t-159.5 -67.5t-99.5 -101.5t-49 -126.5l-9 -47h261q8 33 18 62.5t32.5 53t64.5 37t118 13.5q100 0 128 -35q19 -24 19 -58q0 -16 -4 -34q-6 -37 -18 -65.5t-27 -38.5q-25 -16 -88 -22.5t-140 -12.5t-155.5 -16.5t-132.5 -32.5q-70 -29 -124 -89.5 t-76 -177.5zM434 305q14 74 57.5 105.5t100.5 44t119.5 18.5t117.5 31q8 4 17.5 8t17.5 8l-20 -110q-20 -104 -88 -168t-197 -64q-25 0 -50.5 4t-44.5 18q-20 12 -29 38q-5 14 -4 32q-1 16 3 35z" />
<glyph unicode="b" horiz-adv-x="1236" d="M133 0h285l24 131q6 -31 20.5 -59.5t41 -51t70.5 -36t112 -13.5q129 0 227.5 44t169 122t116.5 186.5t71 237.5q6 27 14 78q7 45 7 97v14q-1 60 -15 122t-54 113t-111 84t-181 33q-63 0 -109.5 -9.5t-83.5 -26.5t-67.5 -39.5t-61.5 -47.5l99 502h-285zM504 424 q6 62 16 117q14 72 37 134t59.5 109t90 75t127.5 28q70 0 106 -28t52 -71q13 -37 14 -82v-15q-2 -54 -13 -109q-16 -86 -36.5 -160t-53.5 -126t-83 -82t-128 -30q-86 0 -127 36t-54 89q-9 36 -9 77q0 18 2 38z" />
<glyph unicode="c" horiz-adv-x="1161" d="M174 541q-19 -97 -19 -177q1 -158 73 -252q108 -142 364 -141q158 0 265.5 43t176 107.5t103.5 139.5t47 138h-281q-14 -43 -26.5 -83t-39 -69.5t-75.5 -48t-137 -18.5q-70 0 -111 24q-42 24 -60 72q-17 44 -17 105q0 7 1 13q2 70 21 163q12 63 33.5 122.5t58.5 104.5 t91 73t132 28q80 0 119 -16.5t55.5 -43t15.5 -58.5t-1 -62h272q8 46 8 89q0 30 -4 60q-10 72 -55 127t-130 88t-218 33q-154 0 -267.5 -42t-193.5 -118t-128 -178t-73 -223z" />
<glyph unicode="d" horiz-adv-x="1206" d="M176 545q-21 -104 -21 -190q0 -136 51 -230q83 -154 310 -154q74 0 128 16.5t93 41t64.5 52.5t44.5 50l-25 -131h271l288 1481h-284l-99 -504q-14 20 -31.5 42.5t-46 41t-73.5 30t-115 11.5q-123 0 -216 -40t-159.5 -112.5t-110.5 -176t-69 -228.5zM442 408q4 68 21 153 q18 92 39.5 153.5t54.5 100.5t78 55.5t110 16.5q129 0 169 -83q22 -45 22 -119q0 -64 -16 -150q-10 -53 -28 -114t-51.5 -112t-90 -83.5t-144.5 -32.5q-68 0 -104 25q-36 26 -50 74q-10 37 -11 86q0 14 1 30z" />
<glyph unicode="e" horiz-adv-x="1181" d="M174 532q-20 -102 -20 -186q0 -146 61 -235q96 -140 371 -140q160 0 263 36t165.5 88t95.5 112.5t51 109.5h-278q-12 -25 -24.5 -48t-37 -41.5t-64.5 -30t-106 -11.5q-153 0 -195 66q-27 42 -27 109q0 38 9 85h766q29 117 39 234q2 26 2 51q-1 87 -27 159 q-34 93 -127.5 152.5t-271.5 59.5q-150 0 -260 -41t-187 -116t-125 -179t-73 -234zM483 645q14 41 30.5 83t49.5 77t86 57.5t139 22.5q70 0 107 -19.5t53 -53.5q13 -29 13 -65q-1 -6 -1 -12q-2 -43 -10 -90h-467z" />
<glyph unicode="f" horiz-adv-x="645" d="M154 0h284l172 889h178l37 184h-178l23 115q4 23 9 35t15 22q12 12 37 15.5t51 3.5h80l43 217h-149q-53 0 -122 -10.5t-122 -47.5q-55 -39 -82 -88t-39 -112l-29 -150h-141l-37 -184h142z" />
<glyph unicode="g" horiz-adv-x="1191" d="M118 -151q7 -60 47 -105t116.5 -71.5t203.5 -26.5q268 0 412.5 87t181.5 273l207 1067h-258l-31 -151q-8 25 -21 56.5t-43 59t-79 46t-129 18.5q-115 0 -205 -38t-157.5 -106.5t-112.5 -167t-70 -221.5q-18 -88 -18 -158q0 -43 6 -79q18 -96 68.5 -154.5t129 -84 t175.5 -25.5q78 0 131 17t87 39.5t50 42t20 26.5l-38 -203q-16 -80 -79 -103.5t-161 -23.5q-74 0 -111 7t-51 21.5t-13 36t3 49.5h-256q-8 -43 -8 -83q0 -23 3 -45zM450 478q7 57 19 116q31 160 100.5 226.5t196.5 66.5q119 0 146 -75q13 -36 13 -89q0 -59 -16 -141 q-10 -53 -26.5 -107.5t-46 -99.5t-76.5 -73t-121 -28q-86 0 -128 28t-55 73q-9 29 -9 63q0 19 3 40z" />
<glyph unicode="h" horiz-adv-x="1177" d="M133 0h285l133 686q23 111 74 153t151 42q39 0 71 -5.5t53.5 -23.5t29.5 -52q3 -14 3 -31q0 -26 -7 -60l-138 -709h285l141 725q15 76 15 134q1 46 -9 79q-22 76 -67 112.5t-103.5 44t-105.5 7.5q-82 0 -136 -8.5t-91 -26.5t-63.5 -48t-51.5 -73l105 535h-285z" />
<glyph unicode="i" horiz-adv-x="552" d="M143 0h285l209 1073h-285zM379 1212h285l53 269h-285z" />
<glyph unicode="j" horiz-adv-x="522" d="M-106 -354h192q18 0 47 3t58.5 9t58.5 17.5t47 29.5q43 39 60.5 84t27.5 98l231 1186h-284l-215 -1110q-4 -18 -9.5 -40.5t-15.5 -33.5q-12 -12 -30.5 -17t-55.5 -5h-69zM358 1212h285l53 269h-284z" />
<glyph unicode="k" horiz-adv-x="1087" d="M133 0h285l90 465l106 76l183 -541h336l-293 723l456 350h-350l-387 -344l148 752h-285z" />
<glyph unicode="l" horiz-adv-x="552" d="M143 0h285l289 1481h-285z" />
<glyph unicode="m" horiz-adv-x="1738" d="M123 0h285l131 676q6 31 16 65.5t33.5 65.5t62.5 50.5t101 19.5q130 0 130 -110q0 -22 -5 -48l-140 -719h285l137 705q31 167 203 167h2q72 0 106 -40q23 -27 22 -75q0 -23 -5 -50l-137 -707h284l152 776q7 39 7 73q1 39 -9 73q-18 62 -59.5 101.5t-102.5 59t-131 19.5 q-141 0 -217 -47t-129 -142q-4 33 -12.5 67t-35 60.5t-74.5 44t-130 17.5t-133 -13.5t-85 -37t-56.5 -55t-45.5 -68.5l29 145h-270z" />
<glyph unicode="n" horiz-adv-x="1167" d="M123 0h285l135 692q23 111 75 149t142 38q112 0 142 -44q20 -28 19 -71q0 -24 -6 -53l-137 -711h285l147 760q11 60 11 107q0 29 -4 55q-11 66 -51 105.5t-107.5 57t-159.5 17.5q-90 0 -147.5 -18.5t-92 -44t-52 -56.5t-29.5 -55l28 145h-274z" />
<glyph unicode="o" horiz-adv-x="1222" d="M172 528q-20 -100 -20 -181q0 -156 72 -243q110 -133 374 -133q154 0 265.5 41t189 116t125.5 179.5t73 231.5q20 104 21 188q0 153 -68 240q-104 135 -375 135q-117 0 -221 -26.5t-190 -92t-149.5 -176.5t-96.5 -279zM459 267q-18 42 -18.5 110.5t18.5 163.5 q20 104 49 171.5t68.5 105.5t94 53.5t126.5 15.5q133 0 170 -79q20 -42 20 -108q0 -59 -16 -137q-18 -92 -41 -162.5t-61 -119t-96 -73t-144 -24.5q-133 0 -170 83z" />
<glyph unicode="p" horiz-adv-x="1230" d="M63 -354h285l88 448q23 -47 82.5 -85t181.5 -38q131 0 226.5 43t161 118t106 176t63.5 216q22 106 22 199q0 15 -1 29q-4 106 -41 184t-112.5 122t-194.5 44q-74 0 -128 -15.5t-94 -39t-68 -50t-48 -51.5l24 127h-274zM497 400q1 67 17 145q35 186 116 262t197 76 q117 0 149 -76q16 -39 16 -99q0 -58 -15 -137q-16 -84 -33.5 -154.5t-47.5 -121.5t-78 -81t-128 -30q-72 0 -113.5 27t-60.5 75q-19 46 -19 108v6z" />
<glyph unicode="q" horiz-adv-x="1212" d="M174 532q-22 -114 -22 -204q0 -137 51 -220q84 -137 311 -137q70 0 122 13.5t89 33t62.5 44t46.5 47.5l-91 -463h285l279 1427h-271l-26 -135q-8 29 -23.5 57.5t-47.5 52t-81 39t-125 15.5q-225 0 -365.5 -147.5t-193.5 -422.5zM437 390q7 61 21.5 132.5t34 138 t52.5 116.5t82 81t123 31q125 0 164 -84q22 -48 22 -120q0 -53 -12 -120q-16 -84 -39 -152.5t-60 -117.5t-92 -77t-137 -28q-70 0 -105.5 25t-48.5 70q-8 29 -8 64q0 20 3 41z" />
<glyph unicode="r" horiz-adv-x="819" d="M123 0h285l112 580q8 39 28.5 102t65.5 109q39 37 84 51t95 14h174l47 236q-35 4 -69 7t-68 3q-80 0 -133.5 -20.5t-89.5 -53.5t-60.5 -74t-46.5 -82l39 201h-254z" />
<glyph unicode="s" horiz-adv-x="1105" d="M133 309q-2 -16 -2 -34q0 -26 4 -53q6 -46 28.5 -91t70 -80t126 -57.5t195.5 -22.5q242 0 384 82t177 260q8 41 8 77q0 94 -55 148q-76 76 -242 113q-92 20 -152.5 32.5t-94 26t-44 32t-4.5 51.5q6 31 26 50t45.5 30.5t57 14.5t62.5 3q63 0 98 -10.5t51 -30.5 q17 -20 18 -48v-11q0 -24 -3 -54h268q2 18 6 53q2 16 2 32q0 21 -3 43q-5 40 -23.5 82t-62.5 77t-117.5 56.5t-188.5 21.5q-90 0 -175 -15.5t-153.5 -52.5t-118 -100.5t-67.5 -159.5q-6 -38 -6 -69q0 -29 5 -53q11 -50 50 -88t105.5 -64.5t162.5 -46.5q76 -16 129.5 -25.5 t86 -22t45 -32t4.5 -56.5q-10 -49 -32 -75.5t-53.5 -39t-69.5 -14.5t-79 -2q-86 0 -128 16t-58 42q-13 22 -13 49q0 6 2 13q4 36 7 75h-269q-6 -31 -10 -72z" />
<glyph unicode="t" horiz-adv-x="661" d="M186 885h142l-119 -615q-6 -25 -10 -54.5t-4 -59.5q0 -29 6 -56.5t22 -46.5q35 -39 101.5 -46t126.5 -7h165l43 217h-92q-18 0 -35.5 2t-27.5 14q-10 14 -9 35t9 62l108 555h176l37 188h-176l66 340h-285l-65 -340h-142z" />
<glyph unicode="u" horiz-adv-x="1169" d="M160 196v-7q0 -50 24 -96q26 -50 89 -86t186 -36q92 0 148.5 12.5t92 33t57 47t42.5 55.5l-23 -119h279l209 1073h-285l-137 -700q-16 -92 -66.5 -135t-159.5 -43q-154 0 -154 119q0 20 5 44l139 715h-284l-154 -788q-6 -35 -8 -89z" />
<glyph unicode="v" horiz-adv-x="1032" d="M213 1073l180 -1073h271l596 1073h-302l-364 -762l-72 762h-309z" />
<glyph unicode="w" horiz-adv-x="1523" d="M213 1073l147 -1073h252l308 741l16 -741h244l571 1073h-301l-322 -737l-20 737h-246l-311 -737l-37 737h-301z" />
<glyph unicode="x" horiz-adv-x="1169" d="M0 0h324l338 387l194 -387h334l-332 584l465 489h-332l-256 -299l-147 299h-332l289 -489z" />
<glyph unicode="y" horiz-adv-x="1083" d="M31 -354h209q12 0 35.5 1t53 7t61.5 17.5t61 33.5q27 18 51 45t53 65t61.5 91t75.5 127l604 1040h-301l-374 -733l-113 733h-299l217 -999l-64 -105q-16 -25 -30.5 -46t-26.5 -27q-14 -8 -31.5 -10.5t-64.5 -2.5h-131z" />
<glyph unicode="z" horiz-adv-x="1024" d="M31 0h964l43 225h-639l725 623l45 225h-890l-43 -217h577l-741 -641z" />
<glyph unicode="{" horiz-adv-x="2048" d="M188 584l637 -789h336l-538 664h1439l47 252h-1439l796 661h-336z" />
<glyph unicode="|" horiz-adv-x="522" d="M147 -309h109l346 1779h-108z" />
<glyph unicode="}" horiz-adv-x="2048" d="M166 459h1440l-797 -664h336l940 789l-635 788h-336l539 -661h-1440z" />
<glyph unicode="~" horiz-adv-x="1146" d="M229 418h105q10 27 20.5 56.5t23.5 52t32.5 38t46.5 15.5q53 0 98 -33t92 -72t101.5 -71.5t125.5 -32.5q55 0 96.5 22.5t71 60.5t49 87t35.5 102h-98q-8 -18 -16 -47t-22.5 -55.5t-38 -45t-60.5 -18.5q-45 0 -91 34t-96.5 74t-104.5 72.5t-116 32.5q-55 0 -96 -23.5 t-71.5 -62.5t-51 -87t-35.5 -99z" />
<glyph unicode="&#xa1;" horiz-adv-x="522" d="M29 -395h311l72 358l88 709h-199l-201 -709zM274 793h297l56 280h-297z" />
<glyph unicode="&#xa2;" horiz-adv-x="1167" d="M206.5 469q24.5 -109 82 -172.5t136.5 -88t155 -30.5l-35 -178h119l34 178q78 8 160 29.5t162 79t127 134.5t65 165h-278q-12 -35 -25.5 -73t-44.5 -73q-20 -23 -57 -34t-66 -11l136 701q68 -4 94 -45q14 -25 17 -56.5t7 -56.5h277q10 98 -11.5 170t-86.5 125 q-29 23 -65 38t-73 24.5t-67.5 14.5t-48.5 5l22 117h-119l-22 -117q-121 -14 -217.5 -53t-169 -107t-122.5 -168t-77 -237q-33 -172 -8.5 -281zM484 618.5q5 65.5 20 139.5q29 145 87 236t167 102l-135 -701q-57 0 -89 29t-43.5 79t-6.5 115.5z" />
<glyph unicode="&#xa3;" horiz-adv-x="1259" d="M139 170l62 -182q18 10 44.5 22.5t57.5 23.5t63.5 18t63.5 7q66 0 119 -12t100 -27.5t90 -27.5t90 -12q119 0 198 47t129 115.5t77 149t39 148.5h-271q-8 -43 -19 -84t-28.5 -72.5t-42 -51t-57.5 -19.5q-35 0 -57.5 6t-47 15.5t-57.5 19.5t-86 18q18 23 35.5 44.5t33 47 t28 59.5t22.5 81q8 43 5 71.5t-7 61.5h287l22 115h-327q-63 184 -41 290q12 57 37.5 96.5t62.5 63t81 32.5t91 9q96 0 136 -62.5t18 -176.5h253q14 76 12.5 155.5t-37.5 145t-117 107.5t-222 42q-100 0 -200.5 -26.5t-185.5 -81t-146.5 -137.5t-84.5 -195q-12 -68 -7 -135.5 t22 -126.5h-156l-22 -115h202q6 -14 17.5 -42t23 -61.5t16.5 -72.5t-3 -78q-8 -41 -24.5 -61.5t-45.5 -40.5q-49 -12 -70.5 -19.5t-50.5 -21.5q-37 -16 -64.5 -31.5t-60.5 -38.5z" />
<glyph unicode="&#xa4;" horiz-adv-x="1529" d="M168 430h164q14 -94 56 -179t114.5 -148.5t179 -100.5t252.5 -37q84 0 166 12.5t155.5 36t135 56t104.5 73.5l-127 138q-164 -96 -360 -97q-86 0 -154 21.5t-116 56.5t-75.5 79t-33.5 89h573l43 219h-635q2 16 3 33.5t5.5 34t9.5 38t9 38.5h635l43 219h-596 q66 117 187.5 190.5t303.5 73.5q96 0 170 -22.5t127 -63.5l197 164q-80 68 -192.5 104.5t-247.5 36.5q-145 0 -272.5 -37t-233 -101.5t-185 -153.5t-129.5 -191h-163l-43 -219h110q-6 -23 -9 -40.5t-7 -33.5q-4 -14 -5 -30.5t-5 -39.5h-111z" />
<glyph unicode="&#xa5;" horiz-adv-x="1110" d="M217 131h193l-25 -131h299l25 131h192l25 125h-193l19 88h192l25 125h-193l31 162l596 839h-334l-350 -546l-109 546h-334l232 -839l-31 -162h-192l-25 -125h193l-19 -88h-192z" />
<glyph unicode="&#xa7;" horiz-adv-x="1187" d="M129 -2q-35 -184 69.5 -268t315.5 -84q104 0 191.5 15t154 53t109.5 100.5t61 154.5q10 55 6 94t-17 68t-33.5 52.5t-41.5 45.5q49 16 92 49t77 75t56.5 90.5t32.5 95.5q10 51 -3 94t-39.5 79t-59.5 63.5t-62 49.5l-209 156q-68 51 -104.5 84t-53 56.5t-17.5 41t3 37.5 q12 63 73 85t136 22q68 0 101.5 -12.5t49 -34t15.5 -50.5v-61h228q8 66 4 129t-39 112.5t-109 80t-205 30.5q-213 0 -341 -68.5t-160 -228.5q-10 -53 -6 -94t17 -71.5t32.5 -53t40.5 -39.5q-47 -8 -91.5 -34.5t-82 -65.5t-64.5 -86t-37 -98q-12 -61 -4 -104.5t30.5 -75 t54.5 -58.5t67 -53l313 -244q20 -16 42.5 -32.5t39 -36t25 -41t1.5 -46.5q-12 -68 -69 -93t-148 -25q-86 0 -128 12t-57 36.5t-13 58.5t6 77h-244zM457 668q6 29 25.5 55.5t44 48t48 33.5t37.5 12q33 0 60 -20l256 -209q16 -14 27.5 -34.5t7.5 -43.5q-4 -25 -20.5 -51.5 t-39 -48t-49.5 -36t-53 -14.5q-12 0 -23.5 3.5t-23.5 13.5l-260 205q-20 16 -30.5 37.5t-6.5 48.5z" />
<glyph unicode="&#xa8;" horiz-adv-x="716" d="M330 1225h205l47 243h-205zM657 1225h205l47 243h-204z" />
<glyph unicode="&#xa9;" horiz-adv-x="1136" d="M248 954q-20 -104 1 -195t76.5 -160t139.5 -108.5t186 -39.5q106 0 210 42t188 114.5t141.5 168t73.5 201.5q16 102 -9.5 191t-83 155t-142.5 102.5t-187.5 34.5t-200.5 -43t-179 -109.5t-138.5 -159.5t-75.5 -194zM360.5 950q14.5 80 58.5 152t106.5 126t139 87 t156.5 35t147.5 -27t112.5 -79t65.5 -119.5t8.5 -149.5q-12 -84 -57 -160t-111.5 -132t-146.5 -90t-164 -34q-80 0 -144.5 31t-107.5 84t-60.5 124.5t-3 151.5zM457.5 844q11.5 -53 42 -94t77 -67t105.5 -30q74 -4 145.5 25t143.5 88l-76 88q-51 -45 -93 -62.5t-85 -15.5 q-70 4 -110 53.5t-25 118.5q16 76 71.5 130.5t122.5 58.5q47 2 84 -14.5t72 -57.5l108 90q-53 59 -110.5 86t-132.5 23q-61 -4 -116.5 -31t-102 -69t-77 -95t-43 -112.5t-1 -112.5z" />
<glyph unicode="&#xaa;" horiz-adv-x="819" d="M289 1040q-20 -98 26.5 -152t178.5 -54q68 0 116.5 17t96.5 77q4 -10 9 -25.5t17 -28.5q16 -16 34.5 -19t41.5 -3h90l25 123q-18 -2 -27.5 1t-13.5 7q-2 4 -3 11t3 28l51 268q23 117 -33.5 164t-198.5 47q-84 0 -144 -14t-99 -39t-60.5 -59.5t-29.5 -75.5l-7 -29h164 q6 20 11.5 37.5t19.5 31t41 21.5t74 8q66 0 82 -20.5t10 -52.5q-4 -23 -11.5 -39.5t-17.5 -22.5q-14 -10 -54 -13t-88 -7t-97.5 -10.5t-83.5 -20.5q-43 -16 -77 -51t-46 -105zM467 1032q8 43 34.5 61.5t62.5 26.5t75 11.5t74 17.5q14 4 22 10l-12 -65q-12 -61 -54 -99.5 t-122 -38.5q-16 0 -31.5 3.5t-28 10.5t-18.5 22.5t-2 39.5z" />
<glyph unicode="&#xab;" horiz-adv-x="1013" d="M184 526l181 -413h219l-183 413l361 426h-213zM537 526l182 -413h217l-182 413l362 426h-213z" />
<glyph unicode="&#xac;" horiz-adv-x="1638" d="M244 696h1321l-92 -475h100l115 586h-1422z" />
<glyph unicode="&#xad;" horiz-adv-x="737" d="M299 446h483l99 250h-484z" />
<glyph unicode="&#xae;" horiz-adv-x="1136" d="M252.5 769q21.5 -93 76 -163.5t138.5 -112.5t186 -42q104 0 207 43t185.5 114.5t140.5 167t74 199.5q16 100 -7.5 189t-79 154.5t-138.5 103.5t-183 38q-102 0 -199.5 -39t-179.5 -106.5t-139.5 -157.5t-80 -192.5t-1 -195.5zM364.5 808q-16.5 73 0.5 153q14 80 60 150.5 t110.5 123.5t142.5 83t158 30q78 0 141 -30t105 -81t59.5 -118.5t5.5 -145.5q-12 -84 -57.5 -159t-110 -132t-144 -90t-161.5 -33q-80 0 -144.5 33t-106.5 88t-58.5 128zM520 696h117l41 209h90l41 -209h131l-55 226q45 18 75.5 53t40.5 98q10 61 -7 96t-46.5 51.5 t-61.5 20.5t-48 4h-211zM696 1014l23 119h98q35 0 55.5 -13.5t14.5 -42.5q-10 -47 -38 -55t-63 -8h-90z" />
<glyph unicode="&#xaf;" horiz-adv-x="757" d="M557 1260h627l69 180h-626z" />
<glyph unicode="&#xb0;" horiz-adv-x="1024" d="M350 1077q-14 -78 2.5 -145.5t56.5 -117.5t101 -79.5t139 -29.5q76 0 149.5 29.5t134 79.5t104 117.5t57.5 145.5q14 76 -1.5 144.5t-55.5 120t-102.5 81t-137.5 29.5q-78 0 -151 -29.5t-134 -81t-104 -120t-58 -144.5zM518 1077q8 43 31.5 80t57.5 64.5t74 44t83 16.5 q86 0 132 -59.5t30 -145.5q-8 -43 -31 -79.5t-55.5 -64.5t-72.5 -43.5t-83 -15.5t-77 15.5t-56.5 43.5t-31.5 64.5t-1 79.5z" />
<glyph unicode="&#xb1;" horiz-adv-x="1228" d="M-8 -356h1106l53 270h-1106zM145 436h422l-84 -436h262l84 436h422l54 266h-422l78 404h-263l-77 -404h-422z" />
<glyph unicode="&#xb4;" horiz-adv-x="583" d="M350 1190h135l275 315h-242z" />
<glyph unicode="&#xb6;" horiz-adv-x="1024" d="M276 977q-18 -96 1.5 -179t70.5 -145.5t127 -98.5t170 -36l-176 -909h72l348 1800h117l-351 -1800h60l350 1800h147l13 61h-162q-139 0 -256 -19t-225 -73q-63 -33 -115.5 -80t-91.5 -101t-63.5 -111.5t-35.5 -108.5z" />
<glyph unicode="&#xb7;" horiz-adv-x="819" d="M356 545h322l63 325h-321z" />
<glyph unicode="&#xb8;" horiz-adv-x="491" d="M2 -276q-16 -80 21.5 -112t126.5 -32q98 0 159.5 39t77.5 131q18 90 -16.5 122t-91.5 32l8 100h-109l-45 -194h51q20 0 38 -9.5t9 -54.5q-4 -23 -18 -42t-45 -19q-25 0 -31 12t-4 27h-131z" />
<glyph unicode="&#xba;" horiz-adv-x="819" d="M295 1163q-33 -174 37.5 -251.5t236.5 -77.5q96 0 167 24.5t119 68.5t78 105t44 137q35 174 -34 253t-241 79q-74 0 -139 -15.5t-118.5 -54t-92.5 -104t-57 -164.5zM475 1169q25 123 73 164t140 41q84 0 108.5 -46t4.5 -144h-2q-10 -55 -24.5 -97.5t-38 -71t-59.5 -43 t-91 -14.5q-84 0 -108.5 49.5t-2.5 161.5z" />
<glyph unicode="&#xbb;" horiz-adv-x="1013" d="M106 113h216l358 426l-182 413h-213l178 -413zM457 113h213l364 426l-182 413h-217l180 -413z" />
<glyph unicode="&#xbf;" horiz-adv-x="1085" d="M62 -150.5q8 -76.5 51 -134t124.5 -90.5t211.5 -33q158 0 265 44.5t174.5 114t105 156.5t53.5 175h-275q-14 -49 -29.5 -99.5t-43 -91.5t-73.5 -66.5t-122 -25.5q-57 0 -92 16.5t-52.5 43t-19.5 61.5t4 74q12 59 39 101t63.5 77t80.5 66.5t89 68.5q35 31 71 65t67.5 77 t56.5 97t39 126h-264q-6 -31 -26.5 -79t-49.5 -79q-59 -63 -128 -112.5t-131.5 -101.5t-111.5 -118.5t-69 -167.5q-16 -88 -8 -164.5zM592 793h297l55 280h-297z" />
<glyph unicode="&#xc0;" d="M-14 0h295l159 317h537l39 -317h307l-233 1470h-314zM551 535l328 649l71 -649h-399zM797 1939l161 -315h132l-52 315h-241z" />
<glyph unicode="&#xc1;" d="M-14 0h295l159 317h537l39 -317h307l-233 1470h-314zM551 535l328 649l71 -649h-399zM893 1624h135l275 315h-242z" />
<glyph unicode="&#xc2;" d="M-14 0h295l159 317h537l39 -317h307l-233 1470h-314zM551 535l328 649l71 -649h-399zM733 1624h129l137 156l76 -156h127l-49 311h-248z" />
<glyph unicode="&#xc3;" d="M-14 0h295l159 317h537l39 -317h307l-233 1470h-314zM551 535l328 649l71 -649h-399zM657 1626h170l7 25q4 16 13 30.5t30 14.5q20 0 43.5 -11.5t49 -24.5t57.5 -24.5t69 -11.5q84 0 139.5 55.5t71.5 137.5q4 10 4 20t2 21h-166q-8 -20 -18.5 -42t-45.5 -22 q-14 0 -35.5 10.5t-50 21.5t-61.5 21.5t-68 10.5q-68 0 -127 -48.5t-77 -140.5q-2 -10 -2 -22q0 -10 -5 -21z" />
<glyph unicode="&#xc4;" d="M-14 0h295l159 317h537l39 -317h307l-233 1470h-314zM551 535l328 649l71 -649h-399zM696 1624h205l47 244h-205zM1024 1624h205l47 244h-205z" />
<glyph unicode="&#xc5;" d="M-14 0h295l159 317h537l39 -317h307l-233 1470h-314zM551 535l328 649l71 -649h-399zM751 1686.5q-1 -23.5 15 -41.5q14 -16 41 -18.5t55 -2.5h189q29 0 56.5 2t47.5 19q23 18 31 41.5t14 56.5l23 106q4 23 6 47.5t-12 40.5q-10 14 -39 16.5t-58 2.5h-196q-29 0 -58.5 -2 t-46.5 -17q-20 -16 -27.5 -40.5t-11.5 -47.5l-22 -106q-6 -33 -7 -56.5zM853 1745q-1 8 3 29l8 41q6 27 21 34q8 4 22.5 5t28.5 1h127q14 0 28.5 -1t22.5 -5q10 -10 4 -34l-8 -41q-4 -20 -7 -28.5t-11 -12.5q-10 -6 -20.5 -7.5t-22.5 -1.5h-148q-10 0 -21.5 1t-21.5 8 q-4 4 -5 12z" />
<glyph unicode="&#xc6;" horiz-adv-x="2201" d="M-10 0h313l283 362h510l-70 -362h1145l47 244h-858l80 411h770l47 238h-770l65 338h844l47 239h-1243zM756 582l512 657l-129 -657h-383z" />
<glyph unicode="&#xc7;" horiz-adv-x="1454" d="M196.5 440.5q6.5 -137.5 58.5 -236t152.5 -156.5t256.5 -75l-46 -241h228l45 239q141 14 244.5 63.5t175 121t117.5 161t75 181.5h-291q-31 -80 -62.5 -135.5t-76.5 -90t-107.5 -50t-152.5 -15.5q-121 0 -191.5 37t-101.5 102.5t-28.5 158.5t24.5 208q29 150 70 256 t102.5 171.5t147.5 96.5t204 31q96 0 150.5 -21.5t81 -56.5t34 -78t11.5 -88h278q4 80 -8 165t-65.5 153.5t-161 113.5t-293.5 45q-182 0 -323.5 -51t-246 -148.5t-173 -236.5t-101.5 -313t-26.5 -311.5z" />
<glyph unicode="&#xc8;" horiz-adv-x="1335" d="M147 0h1153l48 244h-859l80 413h770l47 238h-770l66 336h836l47 239h-1131zM915 1939l162 -315h131l-51 315h-242z" />
<glyph unicode="&#xc9;" horiz-adv-x="1335" d="M147 0h1153l48 244h-859l80 413h770l47 238h-770l66 336h836l47 239h-1131zM981 1624h135l275 315h-242z" />
<glyph unicode="&#xca;" horiz-adv-x="1335" d="M147 0h1153l48 244h-859l80 413h770l47 238h-770l66 336h836l47 239h-1131zM846 1626h129l137 156l76 -156h127l-49 311h-248z" />
<glyph unicode="&#xcb;" horiz-adv-x="1335" d="M147 0h1153l48 244h-859l80 413h770l47 238h-770l66 336h836l47 239h-1131zM842 1624h205l47 244h-205zM1169 1624h205l47 244h-204z" />
<glyph unicode="&#xcc;" horiz-adv-x="548" d="M129 0h293l287 1470h-293zM387 1939l162 -315h131l-51 315h-242z" />
<glyph unicode="&#xcd;" horiz-adv-x="548" d="M131 0h293l287 1470h-293zM530 1624h136l274 315h-242z" />
<glyph unicode="&#xce;" horiz-adv-x="548" d="M129 0h293l287 1470h-293zM356 1624h129l138 156l75 -156h127l-49 311h-248z" />
<glyph unicode="&#xcf;" horiz-adv-x="548" d="M129 0h293l287 1470h-293zM324 1624h204l47 244h-204zM651 1624h205l47 244h-205z" />
<glyph unicode="&#xd1;" horiz-adv-x="1470" d="M147 0h295l201 1028l412 -1028h305l287 1470h-293l-199 -1021l-418 1021h-303zM766 1626h170l6 25q4 16 13.5 30.5t29.5 14.5t44 -11.5t49.5 -24.5t57 -24.5t68.5 -11.5q84 0 139.5 55.5t71.5 137.5q4 10 4 20t2 21h-166q-8 -20 -18 -42t-45 -22q-14 0 -35.5 10.5 t-50.5 21.5t-61.5 21.5t-67.5 10.5q-68 0 -127 -48.5t-78 -140.5q-2 -10 -2 -22q0 -10 -4 -21z" />
<glyph unicode="&#xd2;" horiz-adv-x="1605" d="M205.5 390q23.5 -142 96.5 -236.5t189.5 -140.5t264.5 -46q377 0 600 186.5t299 577.5q35 180 21.5 322.5t-79 242t-187.5 152.5t-302 53q-164 0 -307.5 -40t-259 -130t-197.5 -239.5t-125 -366.5q-37 -193 -13.5 -335zM497 507q-5 97 19 218q25 129 63.5 230.5t101 171 t155 105.5t225.5 36q94 0 163.5 -28t109.5 -89t48.5 -162t-18.5 -246q-20 -102 -52 -199.5t-92.5 -174t-155.5 -122.5t-243 -46q-106 0 -176 36.5t-106.5 104.5t-41.5 165zM944 1939l162 -315h131l-51 315h-242z" />
<glyph unicode="&#xd3;" horiz-adv-x="1605" d="M205.5 390q23.5 -142 96.5 -236.5t189.5 -140.5t264.5 -46q377 0 600 186.5t299 577.5q35 180 21.5 322.5t-79 242t-187.5 152.5t-302 53q-164 0 -307.5 -40t-259 -130t-197.5 -239.5t-125 -366.5q-37 -193 -13.5 -335zM497 507q-5 97 19 218q25 129 63.5 230.5t101 171 t155 105.5t225.5 36q94 0 163.5 -28t109.5 -89t48.5 -162t-18.5 -246q-20 -102 -52 -199.5t-92.5 -174t-155.5 -122.5t-243 -46q-106 0 -176 36.5t-106.5 104.5t-41.5 165zM1063 1624h135l275 315h-242z" />
<glyph unicode="&#xd4;" horiz-adv-x="1605" d="M205.5 390q23.5 -142 96.5 -236.5t189.5 -140.5t264.5 -46q377 0 600 186.5t299 577.5q35 180 21.5 322.5t-79 242t-187.5 152.5t-302 53q-164 0 -307.5 -40t-259 -130t-197.5 -239.5t-125 -366.5q-37 -193 -13.5 -335zM497 507q-5 97 19 218q25 129 63.5 230.5t101 171 t155 105.5t225.5 36q94 0 163.5 -28t109.5 -89t48.5 -162t-18.5 -246q-20 -102 -52 -199.5t-92.5 -174t-155.5 -122.5t-243 -46q-106 0 -176 36.5t-106.5 104.5t-41.5 165zM911 1624h129l138 156l75 -156h127l-49 311h-248z" />
<glyph unicode="&#xd5;" horiz-adv-x="1605" d="M205.5 390q23.5 -142 96.5 -236.5t189.5 -140.5t264.5 -46q377 0 600 186.5t299 577.5q35 180 21.5 322.5t-79 242t-187.5 152.5t-302 53q-164 0 -307.5 -40t-259 -130t-197.5 -239.5t-125 -366.5q-37 -193 -13.5 -335zM497 507q-5 97 19 218q25 129 63.5 230.5t101 171 t155 105.5t225.5 36q94 0 163.5 -28t109.5 -89t48.5 -162t-18.5 -246q-20 -102 -52 -199.5t-92.5 -174t-155.5 -122.5t-243 -46q-106 0 -176 36.5t-106.5 104.5t-41.5 165zM829 1638h170l5 25q4 16 13 30.5t30 14.5q20 0 43.5 -11t49 -24.5t57.5 -25t69 -11.5 q84 0 140.5 55.5t72.5 137.5q2 10 2 20t2 21h-166q-8 -20 -18.5 -42t-45.5 -22q-14 0 -35.5 10.5t-50 21.5t-61.5 21.5t-68 10.5q-68 0 -127 -48t-75 -141q-4 -10 -5 -22q0 -10 -2 -21z" />
<glyph unicode="&#xd6;" horiz-adv-x="1605" d="M205.5 390q23.5 -142 96.5 -236.5t189.5 -140.5t264.5 -46q377 0 600 186.5t299 577.5q35 180 21.5 322.5t-79 242t-187.5 152.5t-302 53q-164 0 -307.5 -40t-259 -130t-197.5 -239.5t-125 -366.5q-37 -193 -13.5 -335zM497 507q-5 97 19 218q25 129 63.5 230.5t101 171 t155 105.5t225.5 36q94 0 163.5 -28t109.5 -89t48.5 -162t-18.5 -246q-20 -102 -52 -199.5t-92.5 -174t-155.5 -122.5t-243 -46q-106 0 -176 36.5t-106.5 104.5t-41.5 165zM862 1624h205l47 244h-205zM1190 1624h205l47 244h-205z" />
<glyph unicode="&#xd8;" horiz-adv-x="1617" d="M88 -23h193l108 105q57 -41 109.5 -63.5t99.5 -34t92 -14.5t90 -3q219 0 375 64.5t260.5 171t164.5 245t89 285.5q25 131 25 230q0 98 -13.5 165.5t-35 108.5t-35.5 57l211 207h-205l-103 -104q-25 14 -55.5 32.5t-75.5 35t-109.5 26.5t-154.5 10q-180 0 -326.5 -45 t-258 -139t-188.5 -241.5t-116 -350.5q-25 -125 -23.5 -213t16 -149.5t36 -102.5t37.5 -72zM485 550.5q-6 74.5 11 151.5q25 131 69.5 235.5t112 178.5t160 114t215.5 40q63 0 105 -7.5t69.5 -18.5t45.5 -24.5t30 -25.5l-789 -786q-23 68 -29 142.5zM600 289l786 782 q12 -29 20.5 -56.5t10.5 -63.5t-2 -83.5t-18 -117.5q-25 -123 -71 -223.5t-112.5 -172t-153.5 -110.5t-194 -39q-88 0 -154.5 18.5t-111.5 65.5z" />
<glyph unicode="&#xd9;" horiz-adv-x="1445" d="M230.5 264q13.5 -94 71.5 -160.5t164.5 -101.5t268.5 -35q289 0 468.5 118t232.5 388l194 997h-295l-196 -1011q-12 -61 -36 -108.5t-64 -80t-97 -50t-139 -17.5q-92 0 -150.5 16.5t-89.5 50t-36 83.5t8 116l194 1001h-295l-194 -993q-23 -119 -9.5 -213zM872 1939 l162 -315h131l-51 315h-242z" />
<glyph unicode="&#xda;" horiz-adv-x="1445" d="M230.5 264q13.5 -94 71.5 -160.5t164.5 -101.5t268.5 -35q289 0 468.5 118t232.5 388l194 997h-295l-196 -1011q-12 -61 -36 -108.5t-64 -80t-97 -50t-139 -17.5q-92 0 -150.5 16.5t-89.5 50t-36 83.5t8 116l194 1001h-295l-194 -993q-23 -119 -9.5 -213zM983 1624h135 l275 315h-242z" />
<glyph unicode="&#xdb;" horiz-adv-x="1445" d="M230.5 264q13.5 -94 71.5 -160.5t164.5 -101.5t268.5 -35q289 0 468.5 118t232.5 388l194 997h-295l-196 -1011q-12 -61 -36 -108.5t-64 -80t-97 -50t-139 -17.5q-92 0 -150.5 16.5t-89.5 50t-36 83.5t8 116l194 1001h-295l-194 -993q-23 -119 -9.5 -213zM827 1624h129 l138 156l75 -156h127l-49 311h-248z" />
<glyph unicode="&#xdc;" horiz-adv-x="1402" d="M187.5 264q13.5 -94 71.5 -160.5t164.5 -101.5t268.5 -35q289 0 468.5 118t232.5 388l194 997h-295l-196 -1011q-12 -61 -36 -108.5t-64 -80t-97 -50t-139 -17.5q-92 0 -150.5 16.5t-89.5 50t-36 83.5t8 116l194 1001h-295l-194 -993q-23 -119 -9.5 -213zM756 1624h205 l47 244h-205zM1083 1624h205l47 244h-205z" />
<glyph unicode="&#xdf;" horiz-adv-x="1269" d="M182 0h279l225 1163q12 57 46 98.5t124 41.5q57 0 87 -25t22 -61q-10 -51 -39 -88t-63 -71t-63.5 -72t-39.5 -89q-8 -45 8 -81t46 -68.5t65.5 -66.5t64.5 -73t43 -88t2 -112q-16 -78 -47 -120t-71 -61.5t-85 -22.5t-88 -3q-29 0 -53 1t-53 3l-41 -217q31 -2 61.5 -4 t61.5 -2q102 0 199.5 23.5t178.5 74.5t138 133t80 199q23 111 3 182.5t-69 116.5q-39 35 -78 61.5t-68.5 50t-47 47t-11.5 52.5q6 31 40 54t75 54t78 75t51 116q8 45 -1 95t-46 91t-105.5 67.5t-177.5 26.5q-86 0 -168.5 -15.5t-150.5 -52t-116 -98t-66 -151.5l-21 -111 h-100l-41 -207h100z" />
<glyph unicode="&#xe0;" horiz-adv-x="1132" d="M131 319q-31 -164 42 -256t280 -92q53 0 99 6.5t87 22.5t79 48t75 81q8 -18 14 -44t27 -46q25 -25 53 -32t67 -7h142l41 209q-27 -2 -41.5 4t-20.5 10q-4 4 -6 17.5t4 48.5l90 456q39 197 -51 277t-309 80q-135 0 -230.5 -24.5t-160 -67.5t-99 -101.5t-49.5 -126.5 l-8 -47h260q8 33 18.5 62.5t33 53t64.5 37t118 13.5q100 0 127.5 -35t15.5 -92q-6 -37 -18.5 -65.5t-26.5 -38.5q-25 -16 -88.5 -22.5t-140 -12.5t-155.5 -16.5t-132 -32.5q-70 -29 -124 -89.5t-77 -177.5zM414 305q14 74 57 105.5t100.5 44t120 18.5t117.5 31q8 4 17.5 8 t17.5 8l-21 -110q-20 -104 -87.5 -168t-196.5 -64q-25 0 -50.5 4t-45 17.5t-28.5 39t-1 66.5zM623 1505l161 -315h131l-51 315h-241z" />
<glyph unicode="&#xe1;" horiz-adv-x="1132" d="M131 319q-31 -164 42 -256t280 -92q53 0 99 6.5t87 22.5t79 48t75 81q8 -18 14 -44t27 -46q25 -25 53 -32t67 -7h142l41 209q-27 -2 -41.5 4t-20.5 10q-4 4 -6 17.5t4 48.5l90 456q39 197 -51 277t-309 80q-135 0 -230.5 -24.5t-160 -67.5t-99 -101.5t-49.5 -126.5 l-8 -47h260q8 33 18.5 62.5t33 53t64.5 37t118 13.5q100 0 127.5 -35t15.5 -92q-6 -37 -18.5 -65.5t-26.5 -38.5q-25 -16 -88.5 -22.5t-140 -12.5t-155.5 -16.5t-132 -32.5q-70 -29 -124 -89.5t-77 -177.5zM414 305q14 74 57 105.5t100.5 44t120 18.5t117.5 31q8 4 17.5 8 t17.5 8l-21 -110q-20 -104 -87.5 -168t-196.5 -64q-25 0 -50.5 4t-45 17.5t-28.5 39t-1 66.5zM756 1190h135l274 315h-241z" />
<glyph unicode="&#xe2;" horiz-adv-x="1132" d="M131 319q-31 -164 42 -256t280 -92q53 0 99 6.5t87 22.5t79 48t75 81q8 -18 14 -44t27 -46q25 -25 53 -32t67 -7h142l41 209q-27 -2 -41.5 4t-20.5 10q-4 4 -6 17.5t4 48.5l90 456q39 197 -51 277t-309 80q-135 0 -230.5 -24.5t-160 -67.5t-99 -101.5t-49.5 -126.5 l-8 -47h260q8 33 18.5 62.5t33 53t64.5 37t118 13.5q100 0 127.5 -35t15.5 -92q-6 -37 -18.5 -65.5t-26.5 -38.5q-25 -16 -88.5 -22.5t-140 -12.5t-155.5 -16.5t-132 -32.5q-70 -29 -124 -89.5t-77 -177.5zM414 305q14 74 57 105.5t100.5 44t120 18.5t117.5 31q8 4 17.5 8 t17.5 8l-21 -110q-20 -104 -87.5 -168t-196.5 -64q-25 0 -50.5 4t-45 17.5t-28.5 39t-1 66.5zM571 1190h129l138 156l75 -156h127l-51 311h-248z" />
<glyph unicode="&#xe3;" horiz-adv-x="1132" d="M131 319q-31 -164 42 -256t280 -92q53 0 99 6.5t87 22.5t79 48t75 81q8 -18 14 -44t27 -46q25 -25 53 -32t67 -7h142l41 209q-27 -2 -41.5 4t-20.5 10q-4 4 -6 17.5t4 48.5l90 456q39 197 -51 277t-309 80q-135 0 -230.5 -24.5t-160 -67.5t-99 -101.5t-49.5 -126.5 l-8 -47h260q8 33 18.5 62.5t33 53t64.5 37t118 13.5q100 0 127.5 -35t15.5 -92q-6 -37 -18.5 -65.5t-26.5 -38.5q-25 -16 -88.5 -22.5t-140 -12.5t-155.5 -16.5t-132 -32.5q-70 -29 -124 -89.5t-77 -177.5zM414 305q14 74 57 105.5t100.5 44t120 18.5t117.5 31q8 4 17.5 8 t17.5 8l-21 -110q-20 -104 -87.5 -168t-196.5 -64q-25 0 -50.5 4t-45 17.5t-28.5 39t-1 66.5zM498 1235h170l6 25q4 16 13 30.5t30 14.5q20 0 43.5 -11.5t49.5 -25t57.5 -24.5t68.5 -11q84 0 139.5 55t71.5 137q2 10 3 20.5t3 20.5h-166q-8 -20 -18.5 -41.5t-44.5 -21.5 q-14 0 -36 10t-50.5 21.5t-61.5 21.5t-67 10q-68 0 -127.5 -48t-77.5 -140q-2 -10 -2 -23q0 -10 -4 -20z" />
<glyph unicode="&#xe4;" horiz-adv-x="1132" d="M131 319q-31 -164 42 -256t280 -92q53 0 99 6.5t87 22.5t79 48t75 81q8 -18 14 -44t27 -46q25 -25 53 -32t67 -7h142l41 209q-27 -2 -41.5 4t-20.5 10q-4 4 -6 17.5t4 48.5l90 456q39 197 -51 277t-309 80q-135 0 -230.5 -24.5t-160 -67.5t-99 -101.5t-49.5 -126.5 l-8 -47h260q8 33 18.5 62.5t33 53t64.5 37t118 13.5q100 0 127.5 -35t15.5 -92q-6 -37 -18.5 -65.5t-26.5 -38.5q-25 -16 -88.5 -22.5t-140 -12.5t-155.5 -16.5t-132 -32.5q-70 -29 -124 -89.5t-77 -177.5zM414 305q14 74 57 105.5t100.5 44t120 18.5t117.5 31q8 4 17.5 8 t17.5 8l-21 -110q-20 -104 -87.5 -168t-196.5 -64q-25 0 -50.5 4t-45 17.5t-28.5 39t-1 66.5zM553 1225h205l47 243h-205zM881 1225h204l48 243h-205z" />
<glyph unicode="&#xe5;" horiz-adv-x="1132" d="M131 319q-31 -164 42 -256t280 -92q53 0 99 6.5t87 22.5t79 48t75 81q8 -18 14 -44t27 -46q25 -25 53 -32t67 -7h142l41 209q-27 -2 -41.5 4t-20.5 10q-4 4 -6 17.5t4 48.5l90 456q39 197 -51 277t-309 80q-135 0 -230.5 -24.5t-160 -67.5t-99 -101.5t-49.5 -126.5 l-8 -47h260q8 33 18.5 62.5t33 53t64.5 37t118 13.5q100 0 127.5 -35t15.5 -92q-6 -37 -18.5 -65.5t-26.5 -38.5q-25 -16 -88.5 -22.5t-140 -12.5t-155.5 -16.5t-132 -32.5q-70 -29 -124 -89.5t-77 -177.5zM414 305q14 74 57 105.5t100.5 44t120 18.5t117.5 31q8 4 17.5 8 t17.5 8l-21 -110q-20 -104 -87.5 -168t-196.5 -64q-25 0 -50.5 4t-45 17.5t-28.5 39t-1 66.5zM622 1242q-1 -23 15 -42q14 -16 41 -18t55 -2h189q29 0 56.5 2t47.5 18q23 18 31 41.5t14 56.5l21 107q4 23 7 47.5t-12 40.5q-12 14 -40.5 16t-57.5 2h-196q-29 0 -57.5 -2 t-45.5 -16q-20 -16 -28.5 -41t-12.5 -47l-20 -107q-6 -33 -7 -56zM724 1300.5q-1 8.5 3 28.5l8 41q6 25 19 35q10 4 24.5 5t28.5 1h127q14 0 28.5 -1t20.5 -5q12 -8 6 -35l-8 -41q-4 -20 -7 -28.5t-11 -12.5q-10 -6 -21.5 -7t-23.5 -1h-148q-10 0 -21.5 1t-19.5 7 q-4 4 -5 12.5z" />
<glyph unicode="&#xe6;" horiz-adv-x="1873" d="M145 289q-16 -86 2.5 -145.5t63.5 -98.5t113.5 -56.5t154.5 -17.5q94 0 160 18.5t112 47.5t78.5 63.5t61.5 67.5q29 -84 119 -140.5t272 -56.5q133 0 231.5 28t167 75t110.5 111.5t64 136.5h-270q-10 -16 -21.5 -41t-36 -46.5t-66.5 -37t-115 -15.5q-100 0 -146.5 27 t-62 68.5t-10 90t7.5 91.5h768l16 92q27 135 17.5 237.5t-56.5 172t-136 105.5t-224 36q-74 0 -127.5 -7.5t-95.5 -19.5t-77.5 -28.5t-74.5 -36.5q-45 47 -120 69.5t-194 22.5q-156 0 -257 -32t-162.5 -79t-90 -103.5t-38.5 -105.5q-2 -12 -3 -25.5t-6 -25.5h263 q6 35 19 65.5t37.5 54t64.5 37t104 13.5q39 0 71.5 -5t54 -20.5t30 -43t0.5 -72.5q-12 -61 -51.5 -83t-123.5 -32q-90 -12 -185 -21.5t-178 -41t-146.5 -98t-88.5 -195.5zM432 299q12 59 43 89t76 45.5t102.5 22.5t124.5 23q23 4 46.5 12.5t45.5 14.5q-4 -18 -6 -38t-6 -38 q-27 -131 -99.5 -195.5t-203.5 -64.5q-82 0 -107.5 37t-15.5 92zM1184 659q12 39 27.5 82t46 77t84 56.5t139.5 22.5q217 0 178 -201q-2 -10 -4 -18t-4 -19h-467z" />
<glyph unicode="&#xe7;" horiz-adv-x="1161" d="M174 541q-51 -262 35 -401.5t295 -164.5l-33 -165h207l33 170q123 16 208 62t140 106.5t85 127t40 123.5h-281q-14 -59 -32.5 -101t-48 -68.5t-73.5 -40t-110 -13.5q-84 0 -128 33t-60.5 86t-11.5 121.5t20 140.5q12 63 33.5 122.5t58.5 104.5t91 73t132 28 q80 0 119 -16.5t55.5 -43t15.5 -58.5t-1 -62h272q14 78 4 149.5t-55 126.5t-130 88t-218 33q-154 0 -267.5 -42t-193.5 -118t-128 -178t-73 -223z" />
<glyph unicode="&#xe8;" horiz-adv-x="1181" d="M174 532q-55 -281 41 -421t371 -140q160 0 263 36t165.5 88t95.5 112.5t51 109.5h-278q-12 -25 -24.5 -48t-37 -41.5t-64.5 -30t-106 -11.5q-152 0 -194.5 65.5t-18.5 194.5h766q29 117 39 234t-24.5 210t-128 152.5t-271.5 59.5q-150 0 -260 -41t-187 -116t-125 -179 t-73 -234zM483 645q14 41 30.5 83t49.5 77t86 57.5t139 22.5q70 0 107 -19.5t52.5 -53.5t13 -77t-10.5 -90h-467zM629 1505l162 -315h131l-52 315h-241z" />
<glyph unicode="&#xe9;" horiz-adv-x="1181" d="M174 532q-55 -281 41 -421t371 -140q160 0 263 36t165.5 88t95.5 112.5t51 109.5h-278q-12 -25 -24.5 -48t-37 -41.5t-64.5 -30t-106 -11.5q-152 0 -194.5 65.5t-18.5 194.5h766q29 117 39 234t-24.5 210t-128 152.5t-271.5 59.5q-150 0 -260 -41t-187 -116t-125 -179 t-73 -234zM483 645q14 41 30.5 83t49.5 77t86 57.5t139 22.5q70 0 107 -19.5t52.5 -53.5t13 -77t-10.5 -90h-467zM766 1190h135l275 315h-242z" />
<glyph unicode="&#xea;" horiz-adv-x="1179" d="M174 532q-55 -281 41 -421t371 -140q160 0 263 36t165.5 88t95.5 112.5t51 109.5h-278q-12 -25 -24.5 -48t-37 -41.5t-64.5 -30t-106 -11.5q-152 0 -194.5 65.5t-18.5 194.5h766q29 117 39 234t-24.5 210t-128 152.5t-271.5 59.5q-150 0 -260 -41t-187 -116t-125 -179 t-73 -234zM483 645q14 41 30.5 83t49.5 77t86 57.5t139 22.5q70 0 107 -19.5t52.5 -53.5t13 -77t-10.5 -90h-467zM602 1190h129l137 156l76 -156h127l-51 311h-248z" />
<glyph unicode="&#xeb;" horiz-adv-x="1179" d="M174 532q-55 -281 41 -421t371 -140q160 0 263 36t165.5 88t95.5 112.5t51 109.5h-278q-12 -25 -24.5 -48t-37 -41.5t-64.5 -30t-106 -11.5q-152 0 -194.5 65.5t-18.5 194.5h766q29 117 39 234t-24.5 210t-128 152.5t-271.5 59.5q-150 0 -260 -41t-187 -116t-125 -179 t-73 -234zM483 645q14 41 30.5 83t49.5 77t86 57.5t139 22.5q70 0 107 -19.5t52.5 -53.5t13 -77t-10.5 -90h-467zM565 1227h205l49 243h-205zM893 1227h205l49 243h-205z" />
<glyph unicode="&#xec;" horiz-adv-x="526" d="M119 0h284l209 1073h-284zM340 1505l162 -315h131l-51 315h-242z" />
<glyph unicode="&#xed;" horiz-adv-x="526" d="M119 0h284l209 1073h-284zM371 1190h137l274 315h-243z" />
<glyph unicode="&#xee;" horiz-adv-x="526" d="M121 0h285l208 1073h-284zM260 1190h129l137 156l76 -156h127l-51 311h-248z" />
<glyph unicode="&#xef;" horiz-adv-x="526" d="M121 0h285l208 1073h-284zM233 1225h205l47 243h-204zM561 1225h207l47 243h-207z" />
<glyph unicode="&#xf1;" horiz-adv-x="1167" d="M123 0h285l135 692q23 111 75 149t142 38q111 0 141.5 -44t13.5 -124l-137 -711h285l147 760q18 96 7 161.5t-51 105.5t-107.5 57.5t-159.5 17.5q-90 0 -147.5 -18.5t-92 -44t-52 -56.5t-29.5 -55l28 145h-274zM530 1233h170l5 24q4 16 14 31t31 15q20 0 43.5 -11.5 t49 -25t57.5 -24.5t69 -11q84 0 139.5 55t71.5 137q2 10 3 20.5t3 20.5h-166q-10 -20 -19.5 -41.5t-44.5 -21.5q-14 0 -35.5 10t-50 21.5t-61.5 21.5t-68 10q-68 0 -127 -48t-77 -140z" />
<glyph unicode="&#xf2;" horiz-adv-x="1222" d="M172 528q-57 -291 52.5 -424t373.5 -133q154 0 265.5 41t189 116t125.5 179.5t73 231.5q57 293 -47 428t-375 135q-117 0 -221 -26.5t-190 -92t-149.5 -176.5t-96.5 -279zM459 267q-37 83 0 274q20 104 49 171.5t68.5 105.5t94 53.5t126.5 15.5q133 0 170 -79t4 -245 q-18 -92 -41 -162.5t-61 -119t-96 -73t-144 -24.5q-133 0 -170 83zM649 1505l162 -315h131l-51 315h-242z" />
<glyph unicode="&#xf3;" horiz-adv-x="1222" d="M172 528q-57 -291 52.5 -424t373.5 -133q154 0 265.5 41t189 116t125.5 179.5t73 231.5q57 293 -47 428t-375 135q-117 0 -221 -26.5t-190 -92t-149.5 -176.5t-96.5 -279zM459 267q-37 83 0 274q20 104 49 171.5t68.5 105.5t94 53.5t126.5 15.5q133 0 170 -79t4 -245 q-18 -92 -41 -162.5t-61 -119t-96 -73t-144 -24.5q-133 0 -170 83zM772 1190h135l275 315h-242z" />
<glyph unicode="&#xf4;" horiz-adv-x="1222" d="M172 528q-57 -291 52.5 -424t373.5 -133q154 0 265.5 41t189 116t125.5 179.5t73 231.5q57 293 -47 428t-375 135q-117 0 -221 -26.5t-190 -92t-149.5 -176.5t-96.5 -279zM459 267q-37 83 0 274q20 104 49 171.5t68.5 105.5t94 53.5t126.5 15.5q133 0 170 -79t4 -245 q-18 -92 -41 -162.5t-61 -119t-96 -73t-144 -24.5q-133 0 -170 83zM627 1190h129l137 156l76 -156h127l-52 311h-247z" />
<glyph unicode="&#xf5;" horiz-adv-x="1222" d="M172 528q-57 -291 52.5 -424t373.5 -133q154 0 265.5 41t189 116t125.5 179.5t73 231.5q57 293 -47 428t-375 135q-117 0 -221 -26.5t-190 -92t-149.5 -176.5t-96.5 -279zM459 267q-37 83 0 274q20 104 49 171.5t68.5 105.5t94 53.5t126.5 15.5q133 0 170 -79t4 -245 q-18 -92 -41 -162.5t-61 -119t-96 -73t-144 -24.5q-133 0 -170 83zM567 1235h170l6 25q4 16 13.5 30.5t29.5 14.5t44 -11.5t49.5 -25t57.5 -24.5t69 -11q84 0 139.5 55t71.5 137q2 10 3 20.5t3 20.5h-166q-8 -20 -18.5 -41.5t-45.5 -21.5q-14 0 -35.5 10t-50 21.5 t-61.5 21.5t-68 10q-68 0 -127 -48t-78 -140q-2 -10 -2 -23q0 -10 -4 -20z" />
<glyph unicode="&#xf6;" horiz-adv-x="1222" d="M172 528q-57 -291 52.5 -424t373.5 -133q154 0 265.5 41t189 116t125.5 179.5t73 231.5q57 293 -47 428t-375 135q-117 0 -221 -26.5t-190 -92t-149.5 -176.5t-96.5 -279zM459 267q-37 83 0 274q20 104 49 171.5t68.5 105.5t94 53.5t126.5 15.5q133 0 170 -79t4 -245 q-18 -92 -41 -162.5t-61 -119t-96 -73t-144 -24.5q-133 0 -170 83zM586 1225h205l47 243h-205zM913 1225h205l47 243h-204z" />
<glyph unicode="&#xf7;" horiz-adv-x="1167" d="M147 446h1045l49 250h-1044zM432 0h293l55 289h-293zM590 815h293l57 291h-293z" />
<glyph unicode="&#xf8;" horiz-adv-x="1228" d="M68 -25h151l76 74q12 -10 32.5 -23.5t55.5 -25.5t90 -20.5t137 -8.5q145 0 255 41t187.5 115t126 175t72.5 222q20 104 22.5 178t-5.5 123t-22.5 79t-26.5 48l153 150h-149l-72 -70q-14 8 -36.5 20.5t-59.5 22.5t-91.5 18.5t-132.5 8.5q-289 0 -445.5 -145.5 t-211.5 -428.5q-18 -94 -19 -160.5t8 -113.5t23.5 -79t26.5 -54zM429 418q1 43 11 86q14 70 36 140.5t62 125.5t101 90t154 35q39 0 66.5 -3t46 -9t32 -14.5t25.5 -16.5l-531 -518q-4 41 -3 84zM477 231l531 517q0 -41 -2.5 -79t-10.5 -79q-10 -57 -28.5 -128t-54 -133.5 t-95 -105.5t-151.5 -43q-49 0 -77 4t-45.5 11.5t-31.5 16.5t-35 19z" />
<glyph unicode="&#xf9;" horiz-adv-x="1177" d="M170 196.5q-2 -53.5 24.5 -103.5t89 -86t185.5 -36q92 0 148.5 12.5t92 33t57 47t42.5 55.5l-23 -119h279l209 1073h-285l-137 -700q-16 -92 -66.5 -135t-158.5 -43q-180 0 -150 163l139 715h-284l-154 -788q-6 -35 -8 -88.5zM608 1505l162 -315h131l-51 315h-242z" />
<glyph unicode="&#xfa;" horiz-adv-x="1177" d="M170 196.5q-2 -53.5 24.5 -103.5t89 -86t185.5 -36q92 0 148.5 12.5t92 33t57 47t42.5 55.5l-23 -119h279l209 1073h-285l-137 -700q-16 -92 -66.5 -135t-158.5 -43q-180 0 -150 163l139 715h-284l-154 -788q-6 -35 -8 -88.5zM760 1190h135l274 315h-241z" />
<glyph unicode="&#xfb;" horiz-adv-x="1177" d="M170 196.5q-2 -53.5 24.5 -103.5t89 -86t185.5 -36q92 0 148.5 12.5t92 33t57 47t42.5 55.5l-23 -119h279l209 1073h-285l-137 -700q-16 -92 -66.5 -135t-158.5 -43q-180 0 -150 163l139 715h-284l-154 -788q-6 -35 -8 -88.5zM596 1190h129l137 156l76 -156h127l-51 311 h-248z" />
<glyph unicode="&#xfc;" horiz-adv-x="1177" d="M170 196.5q-2 -53.5 24.5 -103.5t89 -86t185.5 -36q92 0 148.5 12.5t92 33t57 47t42.5 55.5l-23 -119h279l209 1073h-285l-137 -700q-16 -92 -66.5 -135t-158.5 -43q-180 0 -150 163l139 715h-284l-154 -788q-6 -35 -8 -88.5zM573 1225h205l47 243h-204zM901 1225h205 l47 243h-205z" />
<glyph unicode="&#xff;" horiz-adv-x="1083" d="M31 -354h209q12 0 35.5 1t53 7t61.5 17.5t61 33.5q27 18 51 45t53 65t61.5 91t75.5 127l604 1040h-301l-374 -733l-113 733h-299l217 -999l-64 -105q-16 -25 -30.5 -46t-26.5 -27q-14 -8 -31.5 -10.5t-64.5 -2.5h-131zM514 1225h205l47 243h-205zM842 1225h205l47 243 h-205z" />
<glyph unicode="&#x152;" horiz-adv-x="2283" d="M213.5 435q11.5 -138 70 -242.5t169 -165t278.5 -60.5q96 0 166 8.5t120 20.5t88 26.5t69 26.5l-11 -49h1086l47 244h-791l80 411h699l47 238h-699l66 338h768l47 239h-1063l-10 -51q-35 18 -66 33.5t-69.5 26t-89 16.5t-121.5 6q-162 0 -301.5 -45t-251 -139 t-190.5 -239.5t-118 -346.5q-31 -158 -19.5 -296zM511 482.5q-9 105.5 21 269.5q53 270 183.5 391t335.5 121q90 0 152.5 -25t99 -67t48 -95t1.5 -108l-92 -473q-12 -61 -46 -113.5t-86.5 -91.5t-123 -61.5t-152.5 -22.5q-96 0 -170 23.5t-118 85t-53 167z" />
<glyph unicode="&#x153;" horiz-adv-x="1970" d="M174 539q-55 -285 43 -426.5t371 -141.5q90 0 156.5 11.5t116.5 29t87 40t72 44.5q25 -25 51.5 -47t66.5 -39.5t97 -28t141 -10.5q150 0 253.5 33t170 84t101 112.5t49.5 118.5h-275q-14 -27 -28.5 -50t-39 -41.5t-65.5 -29t-104 -10.5q-94 0 -140.5 22.5t-63.5 60.5 t-13 85t10 97h762q4 27 11 51t13 51q104 547 -411 547q-74 0 -132.5 -10.5t-107.5 -26.5t-91 -37.5t-83 -44.5q-35 29 -66.5 50.5t-70.5 36.5t-91.5 23.5t-132.5 8.5q-119 0 -224 -27.5t-191 -93.5t-148.5 -173.5t-93.5 -268.5zM437 399.5q5 61.5 18 128.5q16 84 40.5 150.5 t62.5 113t91 71t131 24.5q68 0 113 -14.5t68.5 -52.5t25.5 -102.5t-18 -164.5q-20 -106 -48 -177t-67 -114t-93 -60.5t-128 -17.5q-82 0 -125 29t-59.5 77t-11.5 109.5zM1278 649q8 49 29.5 92t56.5 75t85 50.5t120 18.5t109.5 -19.5t57 -52.5t17.5 -76t-8 -88h-467z" />
<glyph unicode="&#x178;" horiz-adv-x="1236" d="M266 1470l299 -923l-106 -547h295l106 551l686 919h-332l-444 -620l-170 620h-334zM668 1624h204l48 244h-205zM995 1624h205l47 244h-205z" />
<glyph unicode="&#x2c6;" horiz-adv-x="614" d="M305 1190h129l137 156l76 -156h127l-51 311h-248z" />
<glyph unicode="&#x2dc;" horiz-adv-x="747" d="M309 1231h170l4 24q4 16 13.5 30.5t29.5 14.5t44 -11t50.5 -24.5t58.5 -24.5t69 -11q84 0 139 55t71 137q2 10 3 21q0 10 2 20h-166q-10 -20 -19.5 -41.5t-44.5 -21.5q-14 0 -35.5 10t-50.5 21.5t-61.5 21.5t-67.5 10q-68 0 -127 -48t-78 -140q-2 -10 -2 -23 q0 -10 -2 -20z" />
<glyph unicode="&#x2000;" horiz-adv-x="978" />
<glyph unicode="&#x2001;" horiz-adv-x="1956" />
<glyph unicode="&#x2002;" horiz-adv-x="978" />
<glyph unicode="&#x2003;" horiz-adv-x="1956" />
<glyph unicode="&#x2004;" horiz-adv-x="652" />
<glyph unicode="&#x2005;" horiz-adv-x="489" />
<glyph unicode="&#x2006;" horiz-adv-x="326" />
<glyph unicode="&#x2007;" horiz-adv-x="326" />
<glyph unicode="&#x2008;" horiz-adv-x="244" />
<glyph unicode="&#x2009;" horiz-adv-x="391" />
<glyph unicode="&#x200a;" horiz-adv-x="108" />
<glyph unicode="&#x2010;" horiz-adv-x="737" d="M299 446h483l99 250h-484z" />
<glyph unicode="&#x2011;" horiz-adv-x="737" d="M299 446h483l99 250h-484z" />
<glyph unicode="&#x2012;" horiz-adv-x="737" d="M299 446h483l99 250h-484z" />
<glyph unicode="&#x2013;" horiz-adv-x="727" d="M209 446h483l49 250h-483z" />
<glyph unicode="&#x2014;" horiz-adv-x="1617" d="M195 446h1400l50 250h-1401z" />
<glyph unicode="&#x2018;" horiz-adv-x="430" d="M254 891h272l49 260h-151q10 43 21.5 73.5t35.5 61.5q29 37 63 59.5t74 45.5l17 79q-145 -14 -244 -129q-35 -41 -56.5 -92t-31.5 -102z" />
<glyph unicode="&#x2019;" horiz-adv-x="430" d="M256 891q78 8 136.5 40t107.5 89q35 41 56.5 92t31.5 102l51 256h-274l-52 -260h154q-12 -43 -23.5 -73.5t-35.5 -61.5q-29 -37 -63 -59.5t-75 -44.5z" />
<glyph unicode="&#x201a;" horiz-adv-x="501" d="M47 -319q76 8 134.5 39.5t107.5 89.5q35 41 56.5 92t31.5 102l51 256h-272l-52 -260h152q-10 -43 -21.5 -73.5t-35.5 -61.5q-29 -37 -63 -59.5t-75 -45.5z" />
<glyph unicode="&#x201c;" horiz-adv-x="819" d="M252 891h272l49 260h-151q12 43 23.5 73.5t35.5 61.5q29 37 63 59.5t74 45.5l17 79q-78 -8 -136.5 -39.5t-109.5 -89.5q-35 -41 -56.5 -92t-31.5 -102zM641 891h274l50 260h-154q12 43 23.5 73.5t35.5 61.5q29 37 63 59.5t75 45.5l16 79q-78 -8 -136.5 -39.5 t-109.5 -89.5q-35 -41 -56.5 -92t-31.5 -102z" />
<glyph unicode="&#x201d;" horiz-adv-x="819" d="M266 891q78 8 136.5 40t107.5 89q35 41 56.5 92t31.5 102h-2l51 256h-272l-51 -260h153q-12 -43 -23.5 -73.5t-35.5 -61.5q-29 -37 -62.5 -59.5t-74.5 -44.5zM635 891q78 8 136 40t108 89q35 41 56.5 92t31.5 102l51 256h-275l-51 -260h154q-12 -43 -23.5 -73.5 t-36.5 -61.5q-29 -37 -62.5 -59.5t-74.5 -44.5z" />
<glyph unicode="&#x201e;" horiz-adv-x="860" d="M51 -319q78 8 136.5 39.5t107.5 89.5q35 41 56.5 92t31.5 102h-2l51 256h-272l-51 -260h153q-10 -43 -22.5 -73.5t-36.5 -61.5q-29 -37 -63 -59.5t-74 -45.5zM420 -319q78 8 136 39.5t108 89.5q35 41 56.5 92t31.5 102l51 256h-275l-51 -260h154q-10 -43 -22.5 -73.5 t-37.5 -61.5q-29 -37 -62.5 -59.5t-74.5 -45.5z" />
<glyph unicode="&#x2022;" horiz-adv-x="1085" d="M316.5 601q15.5 -69 55.5 -120t103.5 -82.5t140.5 -33.5q74 -2 147 25.5t133 78.5t103.5 118.5t59.5 145.5q14 78 -0.5 147.5t-53 121t-100 81t-139.5 29.5q-76 0 -149.5 -28.5t-135 -78t-104.5 -116t-60 -141.5q-16 -78 -0.5 -147z" />
<glyph unicode="&#x2026;" horiz-adv-x="1576" d="M104 0h293l56 289h-293zM637 0h293l55 289h-293zM1165 0h293l55 289h-292z" />
<glyph unicode="&#x202f;" horiz-adv-x="391" />
<glyph unicode="&#x2039;" horiz-adv-x="604" d="M158 526l180 -413h219l-182 413l360 426h-213z" />
<glyph unicode="&#x203a;" horiz-adv-x="604" d="M92 113h221l340 413l-202 426h-213l198 -426z" />
<glyph unicode="&#x205f;" horiz-adv-x="489" />
<glyph unicode="&#x20ac;" horiz-adv-x="1529" d="M168 430h164q14 -94 56 -179t114.5 -148.5t179 -100.5t252.5 -37q84 0 166 12.5t155.5 36t135 56t104.5 73.5l-127 138q-164 -96 -360 -97q-86 0 -154 21.5t-116 56.5t-75.5 79t-33.5 89h573l43 219h-635q2 16 3 33.5t5.5 34t9.5 38t9 38.5h635l43 219h-596 q66 117 187.5 190.5t303.5 73.5q96 0 170 -22.5t127 -63.5l197 164q-80 68 -192.5 104.5t-247.5 36.5q-145 0 -272.5 -37t-233 -101.5t-185 -153.5t-129.5 -191h-163l-43 -219h110q-6 -23 -9 -40.5t-7 -33.5q-4 -14 -5 -30.5t-5 -39.5h-111z" />
<glyph unicode="&#x2122;" horiz-adv-x="1290" d="M373 1352h153l-100 -523h125l100 523h152l24 118h-430zM766 829h121l98 504l6 -502h137l191 484l-94 -484h116l125 639h-200l-168 -456v456h-207z" />
<glyph unicode="&#xe000;" horiz-adv-x="1075" d="M0 0v1075h1075v-1075h-1075z" />
<glyph unicode="&#xfb01;" horiz-adv-x="1073" d="M154 0h284l172 889h178l37 184h-178l23 115q4 23 9 35t15 22q12 12 37 15.5t51 3.5h80l43 217h-149q-53 0 -122 -10.5t-122 -47.5q-55 -39 -82 -88t-39 -112l-29 -150h-141l-37 -184h142zM692 0h285l209 1073h-285zM928 1212h284l54 269h-285z" />
<glyph unicode="&#xfb02;" horiz-adv-x="1073" d="M154 0h284l172 889h178l37 184h-178l23 115q4 23 9 35t15 22q12 12 37 15.5t51 3.5h80l43 217h-149q-53 0 -122 -10.5t-122 -47.5q-55 -39 -82 -88t-39 -112l-29 -150h-141l-37 -184h142zM692 0h285l289 1481h-285z" />
</font>
</defs>
</svg>
