<?xml version="1.0" standalone="no"?>
<!DOCTYPE svg PUBLIC "-//W3C//DTD SVG 1.1//EN" "http://www.w3.org/Graphics/SVG/1.1/DTD/svg11.dtd" >
<svg xmlns="http://www.w3.org/2000/svg">
<metadata></metadata>
<defs>
<font id="heldustryft_demiregular" horiz-adv-x="1318" >
<font-face units-per-em="2048" ascent="1638" descent="-410" />
<missing-glyph horiz-adv-x="450" />
<glyph horiz-adv-x="2048" />
<glyph horiz-adv-x="2048" />
<glyph unicode="&#xd;" horiz-adv-x="1024" />
<glyph unicode=" "  horiz-adv-x="450" />
<glyph unicode="&#x09;" horiz-adv-x="450" />
<glyph unicode="&#xa0;" horiz-adv-x="450" />
<glyph unicode="!" horiz-adv-x="522" d="M106 1106l58 -709h201l53 709v364h-312v-364zM115 0h297v281h-297v-281z" />
<glyph unicode="&#x22;" horiz-adv-x="716" d="M70 1470l24 -423h162l37 423h-223zM424 1470l25 -423h161l37 423h-223z" />
<glyph unicode="#" horiz-adv-x="1146" d="M31 451h188l-65 -451h200l66 451h188l-67 -451h204l64 451h188l33 211h-188l24 172h189l30 210h-190l53 371h-200l-56 -371h-188l55 371h-201l-53 -371h-188l-31 -210h190l-26 -172h-191zM451 662l24 172h189l-27 -172h-186z" />
<glyph unicode="$" horiz-adv-x="1290" d="M53 492q8 -104 35 -197.5t94 -161.5q43 -43 96.5 -70.5t107.5 -44t105.5 -25.5t92.5 -13v-162h125v162q76 8 168 25.5t171.5 65.5t134 136t54.5 235q0 131 -51 209t-129 122t-171 62.5t-177 34.5v367q8 0 25.5 -4t38 -10t39.5 -16.5t34 -24.5q39 -39 45 -86t12 -92h281 q-2 129 -41 220t-131 152q-37 25 -82 40.5t-88 24.5t-79 13t-54 4v105h-125v-105q-80 -4 -166 -22.5t-157 -64.5t-116 -125t-45 -206t52.5 -200.5t127 -114.5t157.5 -58.5t147 -29.5v-426q-45 10 -90 23.5t-82 52.5q-20 20 -33.5 47.5t-22 55.5t-11.5 54.5t-3 47.5h-289z M379 1071q0 55 22.5 87t54 49.5t67.5 22.5t61 7v-348q-43 8 -80 15t-64.5 24.5t-44 50.5t-16.5 92zM709 211v407q55 -10 100 -19t78 -28.5t50 -52.5t17 -88q0 -80 -26.5 -124t-64.5 -65.5t-80 -25.5t-74 -4z" />
<glyph unicode="%" horiz-adv-x="1904" d="M70 1026q0 -174 38.5 -269t96 -139.5t121 -52.5t112.5 -8q55 0 116.5 12.5t114 59.5t86 140t33.5 257t-41.5 255t-100 134t-119 51.5t-97.5 8.5q-53 0 -116.5 -13.5t-118 -60.5t-90 -136t-35.5 -239zM305 1018q0 96 12.5 149.5t32 79t41 30.5t39.5 5q76 0 99.5 -71.5 t23.5 -198.5q0 -35 -1 -80t-12.5 -87t-36 -71t-69.5 -29q-35 0 -58.5 12.5t-40 44.5t-23.5 84t-7 132zM557 -53h213l571 1515h-206zM1118 428q0 -174 39 -269.5t96.5 -139.5t121 -52t112.5 -8q55 0 116.5 12.5t113.5 59.5t86 140t34 257t-42 255t-100.5 134t-118.5 51.5 t-97 8.5q-53 0 -117 -13.5t-118 -60.5t-90 -136t-36 -239zM1354 420q0 96 12 149.5t31.5 79t41 30.5t40.5 5q76 0 99.5 -71.5t23.5 -198.5q0 -35 -1.5 -80t-12.5 -87t-35.5 -71t-69.5 -29q-35 0 -58.5 12.5t-40 44.5t-23.5 84t-7 132z" />
<glyph unicode="&#x26;" horiz-adv-x="1341" d="M31 367q0 -72 19.5 -142.5t73.5 -128t152.5 -93.5t255.5 -36q88 0 155 13.5t116 34t84 44t59 41.5l78 -100h317l-258 334q16 47 29.5 95t22.5 108q6 49 10 96t0 80h-234v-66q0 -23 -3 -45t-3 -45l-200 258q39 31 80.5 69t74.5 85t54.5 104t21.5 125q0 92 -32 151.5 t-84 93.5t-119.5 46t-137.5 12q-104 0 -167.5 -22.5t-110.5 -65.5t-68.5 -103.5t-21.5 -117.5q0 -45 16 -89t40.5 -86t54.5 -82t56 -75q-55 -41 -113.5 -87t-106.5 -104.5t-79.5 -132t-31.5 -169.5zM311 385q0 51 19.5 94t49.5 79t64.5 63.5t65.5 46.5l291 -381 q-41 -31 -107.5 -67t-158.5 -36q-113 0 -168.5 58.5t-55.5 142.5zM453 1200q0 47 30.5 72.5t83.5 25.5q59 0 85 -24.5t26 -79.5h-2q0 -59 -32 -101t-79 -96q-41 53 -76.5 101.5t-35.5 101.5z" />
<glyph unicode="'" horiz-adv-x="430" d="M78 1210h153q-4 -43 -9 -73.5t-23 -61.5q-23 -37 -52.5 -59.5t-64.5 -44.5v-80q76 8 128 40t91 89q27 41 39 92t12 102v256h-274v-260z" />
<glyph unicode="(" horiz-adv-x="716" d="M88 399q0 -141 26.5 -244.5t68.5 -175t95.5 -117.5t105.5 -70.5t100 -34t79 -9.5h66v217q-63 0 -111.5 21.5t-80 79t-47 155.5t-15.5 252v533q0 137 13 234t43 158.5t78 90.5t120 29v217h-33q-20 0 -66.5 -4.5t-102.5 -23.5t-115.5 -60t-109.5 -114t-82 -183.5 t-32 -270.5v-680z" />
<glyph unicode=")" horiz-adv-x="716" d="M88 -35v-217h66q31 0 79 9.5t100 34t105.5 70.5t95 117.5t68.5 175t27 244.5v680q0 160 -32 270.5t-82 183.5t-109.5 114t-116 60t-102.5 23.5t-66 4.5h-33v-217q72 0 120 -29t77.5 -90.5t43 -158.5t13.5 -234v-533q0 -154 -15.5 -252t-47 -155.5t-79.5 -79t-112 -21.5z " />
<glyph unicode="*" horiz-adv-x="778" d="M96 1077l72 -129l143 84v-164h156v164l143 -84l72 129l-137 86l137 82l-72 129l-143 -80v170h-156v-170l-143 80l-72 -129l137 -82z" />
<glyph unicode="+" horiz-adv-x="1228" d="M61 436h422v-436h262v436h422v266h-422v404h-262v-404h-422v-266z" />
<glyph unicode="," horiz-adv-x="501" d="M104 0h156v-27q0 -18 -4 -39.5t-10 -45t-19 -42.5q-41 -70 -123 -92v-96q51 4 91.5 20.5t68 37t45 42t25.5 33.5q37 57 50 116t13 118v264h-293v-289z" />
<glyph unicode="-" horiz-adv-x="737" d="M127 446h483v250h-483v-250z" />
<glyph unicode="." horiz-adv-x="501" d="M104 0h293v289h-293v-289z" />
<glyph unicode="/" horiz-adv-x="585" d="M-27 -74h230l405 1544h-229z" />
<glyph unicode="0" horiz-adv-x="1320" d="M92 745q0 -174 25.5 -315t88 -241.5t171 -154.5t274.5 -54q197 0 312.5 61t174 167.5t75 250t16.5 305.5q0 141 -20.5 273t-82 232.5t-175 161t-298.5 60.5q-158 0 -264 -48t-172.5 -142.5t-95.5 -233.5t-29 -322zM379 758q0 82 7 172t35 164.5t83 123t153 48.5 q86 0 141.5 -33t87.5 -100.5t44 -169t12 -238.5q0 -176 -22.5 -279.5t-61.5 -156.5t-91 -69.5t-112 -16.5q-92 0 -146 44t-84 119.5t-38 176t-8 215.5z" />
<glyph unicode="1" horiz-adv-x="880" d="M82 1028h371v-1028h295v1468h-246q-23 -53 -54.5 -100t-87.5 -84q-33 -23 -70.5 -34t-74.5 -16t-71.5 -6t-61.5 -1v-199z" />
<glyph unicode="2" horiz-adv-x="1269" d="M98 70q0 -16 1 -35t1 -35h1067v240h-753q10 14 21 31.5t26 29.5q70 59 150.5 105.5t159.5 91.5t151.5 93t128 110.5t88 145t32.5 195.5q0 133 -31.5 220.5t-97 137.5t-164 70.5t-231.5 20.5q-51 0 -107.5 -4t-112.5 -17.5t-107.5 -40t-91.5 -72.5t-63.5 -116t-23.5 -166 v-92h289q0 82 6 136.5t31 87t72 47t127 14.5q63 0 104 -14.5t63.5 -40t30.5 -61.5t8 -79q0 -51 -4 -88t-15 -67.5t-32.5 -57t-56.5 -57.5q-63 -55 -136 -102.5t-147.5 -94.5t-143.5 -98t-122 -113.5t-85 -142.5t-32 -182z" />
<glyph unicode="3" horiz-adv-x="1320" d="M92 487q0 -104 30 -196t98.5 -162t182 -109.5t283.5 -39.5q127 0 228.5 26.5t171 81.5t106.5 141t37 205q0 111 -29 177.5t-72 103.5t-92 50t-90 19q57 14 100.5 44t71 70t40.5 88t13 99q0 125 -42 204t-111.5 124t-159.5 61.5t-184 16.5q-162 0 -265.5 -40t-164 -106.5 t-84 -153.5t-23.5 -179h283q2 49 10 95t35 82t74 58.5t125 22.5q47 0 87 -7.5t68.5 -29t45 -62.5t16.5 -108q0 -35 -9.5 -66.5t-33 -56.5t-64.5 -40t-102 -15h-105v-217h101q57 0 106 -8.5t83 -33t53.5 -71.5t19.5 -123q0 -133 -65.5 -181t-190.5 -48q-102 0 -158.5 28.5 t-84.5 70.5t-35 92t-11 93h-293z" />
<glyph unicode="4" horiz-adv-x="1249" d="M82 334h649v-334h275v334h198v211h-198v923h-281l-643 -852v-282zM309 545l422 567v-567h-422z" />
<glyph unicode="5" horiz-adv-x="1269" d="M92 403q0 -47 22.5 -118.5t81 -139t162 -116.5t263.5 -49q117 0 221 27.5t183 89t125 163t46 248.5q0 141 -39 239.5t-105.5 161t-154.5 90t-186 27.5q-104 0 -166 -30.5t-107 -59.5l64 293h631v239h-828l-162 -780h252q25 20 49.5 41t54 37t69.5 25.5t98 9.5 q72 0 118.5 -21.5t74.5 -61.5t38 -95.5t10 -124.5q0 -166 -67.5 -227.5t-206.5 -61.5q-84 0 -133 25.5t-75 62.5t-34 79t-14 75h-285v-48z" />
<glyph unicode="6" horiz-adv-x="1320" d="M92 711q0 -154 17.5 -288t77 -232.5t175 -154.5t310.5 -56q127 0 228 30.5t172 93t109 158.5t38 227q0 133 -38 228.5t-105.5 156t-161 88t-205.5 27.5q-123 0 -205 -40t-125 -93q8 121 25.5 200t51 125t88 64.5t136.5 18.5q66 0 105.5 -13.5t62 -35t34 -49t21.5 -54.5 h285q-10 66 -31.5 133.5t-74 121.5t-145.5 89t-247 35q-66 0 -136.5 -5t-136 -29.5t-125 -73t-104.5 -135.5t-70.5 -218t-25.5 -319zM395 485q0 35 7.5 82t35 89t84 72t154.5 30q135 0 195.5 -58.5t60.5 -189.5q0 -117 -24.5 -179.5t-62.5 -90t-84 -30.5t-91 -3 q-156 0 -215.5 69.5t-59.5 208.5z" />
<glyph unicode="7" horiz-adv-x="1126" d="M61 1233h705q-61 -53 -155.5 -167t-192.5 -306q-49 -94 -87 -207t-63.5 -220.5t-41 -196.5t-17.5 -136h311q6 68 18.5 152t33 177t50 192.5t72.5 195.5q39 88 86 166t96.5 143.5t97.5 117.5t91 89v235h-1004v-235z" />
<glyph unicode="8" horiz-adv-x="1320" d="M92 416q0 -201 144.5 -318.5t425.5 -117.5q106 0 208.5 21.5t182.5 75.5t129 144.5t49 229.5q0 98 -27.5 162.5t-70.5 104.5t-94.5 59.5t-96.5 27.5q45 12 86 30.5t71.5 52.5t48 87t17.5 133q0 96 -31.5 161.5t-80.5 107.5t-108.5 65.5t-116 34t-101.5 12.5t-65 2 q-117 0 -211.5 -22.5t-161 -71.5t-103 -129t-36.5 -193q0 -59 17 -104t45 -79t64.5 -55.5t73.5 -31.5q-59 -18 -106 -44t-81 -70t-52.5 -110.5t-18.5 -164.5zM387 430q0 59 11.5 107.5t42 82t85 52t140.5 18.5q61 0 111 -8t87 -33.5t56.5 -76t19.5 -134.5q0 -123 -66.5 -178 t-214.5 -55q-158 0 -215 57t-57 168zM438 1094q0 63 23.5 99t57.5 53.5t73 20.5t70 3q104 0 157 -34t53 -138q0 -117 -54 -157t-159 -40q-68 0 -110.5 12.5t-67 37t-34 60.5t-9.5 83z" />
<glyph unicode="9" horiz-adv-x="1320" d="M92 987q0 -135 37 -231.5t103.5 -157.5t156.5 -90t199 -29q143 0 223 42t111 85q-6 -78 -13.5 -150.5t-34 -129t-79 -90t-150.5 -33.5q-72 0 -116 11t-69.5 31.5t-37.5 48.5t-21 60h-280q10 -102 43 -173.5t94 -116t153.5 -64.5t219.5 -20q68 0 137.5 4t133 27.5 t120.5 73.5t98 141t65.5 231.5t24.5 343.5q0 166 -22.5 294t-87 216t-178 134t-295.5 46q-119 0 -217.5 -30.5t-169 -92t-109.5 -157t-39 -224.5zM377 989q0 143 58.5 213t205.5 70q63 0 112.5 -13.5t84 -46t53 -85t18.5 -132.5q0 -68 -13 -122t-44 -92t-84 -58.5 t-133 -20.5q-90 0 -141.5 21.5t-77 60.5t-32.5 91.5t-7 113.5z" />
<glyph unicode=":" horiz-adv-x="501" d="M104 0h293v289h-293v-289zM104 782h293v291h-293v-291z" />
<glyph unicode=";" horiz-adv-x="501" d="M104 0h156v-27q0 -18 -4 -39.5t-10 -45t-19 -42.5q-41 -70 -123 -92v-96q51 4 91.5 20.5t68 37t45 42t25.5 33.5q37 57 50 116t13 118v264h-293v-289zM104 782h293v291h-293v-291z" />
<glyph unicode="&#x3c;" horiz-adv-x="1269" d="M96 424l1078 -440v260l-717 282l717 289v254l-1078 -442v-203z" />
<glyph unicode="=" horiz-adv-x="1024" d="M94 197h836v266h-836v-266zM94 633h836v266h-836v-266z" />
<glyph unicode="&#x3e;" horiz-adv-x="1269" d="M96 -16l1078 440v203l-1078 442v-254l717 -289l-717 -282v-260z" />
<glyph unicode="?" horiz-adv-x="1085" d="M68 1012h270q0 72 10 125t36 88t70 51t109 16q92 0 136 -51t44 -147q0 -55 -17 -96.5t-46 -76t-67 -67.5t-76 -72q-29 -29 -58.5 -65.5t-53.5 -83.5t-39 -104.5t-15 -125.5h262q2 41 12 91.5t57 109.5q37 45 91.5 89t104.5 96.5t86 121t36 164.5q0 127 -38 209 t-101.5 130t-146.5 67.5t-173 19.5q-127 0 -220 -31.5t-153.5 -88t-90 -134.5t-29.5 -168v-67zM354 0h297v281h-297v-281z" />
<glyph unicode="@" horiz-adv-x="1515" d="M72 336q0 -383 165.5 -563.5t518.5 -180.5q72 0 137 7.5t143 31.5v201q-80 -23 -139 -33t-123 -10q-125 0 -213 34t-144.5 103.5t-82 177t-25.5 256.5q0 297 116 440.5t345 143.5q80 0 143.5 -16.5t106.5 -44t66.5 -64.5t23.5 -76q0 -27 -19.5 -39t-60.5 -18 q-39 -6 -93 -10t-124 -17q-172 -33 -256 -117.5t-84 -238.5q0 -164 93 -254t253 -90q94 0 171 28.5t169 100.5q16 -59 65.5 -86t127.5 -27q23 0 51.5 4.5t75.5 14.5v182q-25 -4 -35 -4h-12q-39 0 -45.5 13.5t-6.5 43.5v23v270q0 141 -20.5 248t-85.5 182q-76 90 -205 139.5 t-293 49.5q-350 0 -527 -200t-177 -605zM735 322q0 66 31 101.5t102 49.5q45 10 84 15.5t72 11.5q27 6 48.5 14t49.5 27v-181q0 -45 -19.5 -81.5t-53 -62.5t-77.5 -40t-95 -14q-74 0 -108 40t-34 120z" />
<glyph unicode="A" horiz-adv-x="1316" d="M-10 0h295l98 317h537l100 -317h307l-520 1470h-313zM451 535l202 649l197 -649h-399z" />
<glyph unicode="B" horiz-adv-x="1435" d="M147 0h644q102 0 202.5 15.5t180 62.5t130 134t50.5 232q0 98 -24.5 163t-65.5 105t-96.5 56t-116.5 16q127 14 184 84t61 211v14q0 61 -15 123q-17 70 -66.5 126.5t-135.5 92t-221 35.5h-711v-1470zM442 244v418h441q31 0 61.5 -7.5t56 -31t41 -66.5t15.5 -115 q0 -109 -48 -153.5t-159 -44.5h-408zM442 887v344h420q84 0 114 -36t30 -122q0 -84 -38 -135t-139 -51h-387z" />
<glyph unicode="C" horiz-adv-x="1454" d="M92 752q0 -190 40 -336t125 -246t220 -151.5t330 -51.5q170 0 282.5 45t183 119t104.5 169.5t44 197.5h-291q-12 -47 -26 -98.5t-47 -94.5t-93.5 -70.5t-162.5 -27.5q-94 0 -170 20.5t-129 75.5t-82 153.5t-29 256.5q0 150 20.5 256t69.5 171.5t129 96.5t199 31 q96 0 154.5 -21.5t92.5 -56.5t49 -78t28 -88h278q-10 80 -39 165t-96.5 153.5t-183 113.5t-301.5 45q-182 0 -313.5 -51t-217.5 -148.5t-127 -236.5t-41 -313z" />
<glyph unicode="D" horiz-adv-x="1484" d="M147 0h529q184 0 319 40t223.5 128t131.5 227t43 338q0 178 -35 315.5t-109.5 230.5t-195.5 142t-293 49h-613v-1470zM440 244v987h308q86 0 151.5 -21.5t109.5 -76t66.5 -144.5t22.5 -227q0 -141 -17.5 -240.5t-58.5 -161t-112.5 -89t-178.5 -27.5h-291z" />
<glyph unicode="E" horiz-adv-x="1335" d="M147 0h1153v244h-858v413h770v238h-770v336h836v239h-1131v-1470z" />
<glyph unicode="F" horiz-adv-x="1253" d="M147 0h295v643h654v238h-654v350h777v239h-1072v-1470z" />
<glyph unicode="G" horiz-adv-x="1517" d="M92 752q0 -168 35 -311.5t116 -249t212 -165t323 -59.5q117 0 191.5 21.5t123 53.5t76 70t52.5 72v-184h225v795h-639v-238h348q-4 -12 -6 -44t-12.5 -71t-31 -81t-58 -76.5t-97 -57t-147.5 -22.5q-123 0 -203 32.5t-127 102.5t-65.5 175.5t-18.5 250.5q0 266 92 386 t312 120q111 0 175 -25.5t98 -64.5t43 -85t9 -87h303q0 86 -31.5 174t-105.5 158.5t-193.5 114.5t-295.5 44q-348 0 -525.5 -186.5t-177.5 -562.5z" />
<glyph unicode="H" horiz-adv-x="1468" d="M147 0h295v666h619v-666h295v1470h-295v-575h-619v575h-295v-1470z" />
<glyph unicode="I" horiz-adv-x="593" d="M168 0h293v1470h-293v-1470z" />
<glyph unicode="J" horiz-adv-x="1112" d="M43 408q0 -238 119 -339.5t368 -101.5q135 0 226.5 34t144.5 91.5t75.5 134t22.5 160.5v1083h-292v-1052q0 -53 -6.5 -94t-27 -69t-60.5 -41t-109 -13q-47 0 -83 9t-60.5 32.5t-37 65.5t-12.5 108v114h-268v-122z" />
<glyph unicode="K" horiz-adv-x="1392" d="M147 0h295v516l160 160l455 -676h362l-614 872l575 598h-370l-568 -624v624h-295v-1470z" />
<glyph unicode="L" horiz-adv-x="1185" d="M147 0h1024v244h-729v1226h-295v-1470z" />
<glyph unicode="M" horiz-adv-x="1748" d="M147 0h283v1118l311 -1118h299l316 1118v-1118h280v1470h-432l-309 -1146l-328 1146h-420v-1470z" />
<glyph unicode="N" horiz-adv-x="1472" d="M147 0h295v1028l613 -1028h305v1470h-293v-1021l-616 1021h-304v-1470z" />
<glyph unicode="O" horiz-adv-x="1619" d="M92 725q0 -193 51.5 -335t143.5 -236.5t217 -140.5t272 -46q377 0 564.5 186.5t187.5 577.5q0 180 -41 322.5t-127 242t-217 152.5t-312 53q-164 0 -300 -40t-233 -130t-151.5 -239.5t-54.5 -366.5zM389 725q0 129 18.5 230.5t67.5 171t135 105.5t219 36q94 0 169 -28 t127.5 -89t80 -162t27.5 -246q0 -102 -13.5 -199.5t-57.5 -174t-131 -122.5t-234 -46q-213 0 -310.5 141t-97.5 383z" />
<glyph unicode="P" horiz-adv-x="1351" d="M147 0h295v588h379q164 0 260.5 47t146.5 115.5t64.5 143.5t14.5 130q0 111 -32 195t-89.5 140t-136 83.5t-172.5 27.5h-730v-1470zM442 815v416h357q51 0 91 -5t66.5 -25.5t40 -60.5t13.5 -110q0 -68 -11.5 -110.5t-34 -65.5t-58.5 -31t-87 -8h-377z" />
<glyph unicode="Q" horiz-adv-x="1619" d="M92 725q0 -205 55.5 -348.5t149.5 -234.5t220 -133t269 -42q41 0 94.5 4t108.5 14.5t109.5 26t97.5 39.5l162 -155l129 135l-137 137q10 10 39.5 44t60.5 100.5t54.5 169t23.5 249.5q0 180 -41 322.5t-127 242t-217 152.5t-312 53q-164 0 -300 -40t-233 -130 t-151.5 -239.5t-54.5 -366.5zM389 725q0 129 18.5 230.5t67.5 171t135 105.5t219 36q94 0 169 -28t127.5 -89t80 -162t27.5 -246q0 -106 -14.5 -209.5t-65.5 -175.5l-143 138l-131 -138l127 -120q-51 -23 -106.5 -30t-102.5 -7q-92 0 -167 29.5t-128 92t-83 162t-30 240.5z " />
<glyph unicode="R" horiz-adv-x="1441" d="M147 0h295v588h392q119 0 151 -78q20 -47 28.5 -120t14.5 -147.5t15.5 -141t31.5 -101.5h303q-35 68 -45 145q-18 137 -23 236.5t-22.5 166t-57.5 104.5t-126 53q55 4 104 25.5t85 63.5t56.5 105.5t20.5 153.5q0 139 -45 222t-116.5 126t-158.5 56t-171 13h-732v-1470z M442 819v412h418q57 0 97 -7t65 -26.5t36 -57t11 -98.5q0 -55 -8 -96t-34 -69.5t-73 -43t-123 -14.5h-389z" />
<glyph unicode="S" horiz-adv-x="1382" d="M74 485q0 -252 154.5 -385t459.5 -133q317 0 469 115t152 338q0 63 -13.5 124.5t-40 115t-68.5 93.5t-100 58q-166 51 -291.5 70.5t-211.5 38t-130 49t-44 108.5q0 117 63.5 160t222.5 43q104 0 158.5 -28.5t79 -66.5t30 -78t9.5 -63h284q0 76 -20 157t-81.5 147.5 t-173.5 109.5t-292 43q-57 0 -120.5 -5t-127 -21.5t-121 -44t-101.5 -71.5t-70.5 -107.5t-26.5 -149.5q0 -119 28.5 -192.5t81 -119t126 -70t161.5 -44.5q117 -27 209 -38t156.5 -30.5t99.5 -57.5t35 -118q0 -76 -21.5 -122t-61.5 -71.5t-98.5 -34.5t-133.5 -9 q-98 0 -163 22.5t-104 62t-56 93t-22 112.5h-286z" />
<glyph unicode="T" horiz-adv-x="1185" d="M6 1231h440v-1231h295v1231h439v239h-1174v-239z" />
<glyph unicode="U" horiz-adv-x="1456" d="M147 477q0 -119 33 -213t103.5 -160.5t183.5 -101.5t274 -35q289 0 445.5 118t156.5 388v997h-294v-1011q0 -61 -14.5 -108.5t-47.5 -80t-87 -50t-136 -17.5q-92 0 -154.5 16.5t-99.5 50t-52.5 83.5t-15.5 116v1001h-295v-993z" />
<glyph unicode="V" horiz-adv-x="1257" d="M-16 1470l491 -1470h287l512 1470h-311l-340 -1091l-326 1091h-313z" />
<glyph unicode="W" horiz-adv-x="1875" d="M-16 1470l438 -1470h287l227 1071l238 -1071h284l434 1470h-305l-280 -1097l-217 1097h-297l-224 -1097l-282 1097h-303z" />
<glyph unicode="X" horiz-adv-x="1253" d="M102 0h344l310 532l309 -532h344l-483 776l432 694h-334l-268 -458l-269 458h-333l432 -694z" />
<glyph unicode="Y" horiz-adv-x="1236" d="M-20 1470l479 -923v-547h295v551l506 919h-332l-324 -620l-291 620h-333z" />
<glyph unicode="Z" horiz-adv-x="1302" d="M10 0h1231v244h-854l836 1007v219h-1172v-239h813l-854 -1032v-199z" />
<glyph unicode="[" horiz-adv-x="598" d="M123 0h475v213h-205v1044h205v213h-475v-1470z" />
<glyph unicode="\" horiz-adv-x="567" d="M-33 1470l406 -1544h229l-405 1544h-230z" />
<glyph unicode="]" horiz-adv-x="598" d="M0 0h475v1470h-475v-213h205v-1044h-205v-213z" />
<glyph unicode="^" horiz-adv-x="634" d="M47 1022h121l156 342l145 -342h121l-203 448h-121z" />
<glyph unicode="_" horiz-adv-x="1116" d="M2 -98v-226h1112v226h-1112z" />
<glyph unicode="`" horiz-adv-x="593" d="M121 1505l223 -315h131l-113 315h-241z" />
<glyph unicode="a" horiz-adv-x="1173" d="M90 319q0 -164 91 -256t298 -92q53 0 98.5 6.5t83 22.5t68.5 48t59 81q10 -18 22.5 -44t35.5 -46q29 -25 59.5 -32t69.5 -7h141v209q-27 -2 -42 4t-21 10t-10.5 17.5t-4.5 48.5v456q0 197 -105.5 277t-324.5 80q-135 0 -226 -24.5t-146.5 -67.5t-79 -101.5t-23.5 -126.5 v-47h260q2 33 6 62.5t22.5 53t57.5 37t115 13.5q100 0 135 -35t35 -92q0 -37 -7 -65.5t-20 -38.5q-23 -16 -84 -22.5t-137 -12.5t-152.5 -16.5t-125.5 -32.5q-63 -29 -105.5 -89.5t-42.5 -177.5zM375 305q0 74 37 105.5t91 44t116.5 18.5t111.5 31q16 6 33 16v-110 q0 -104 -55.5 -168t-184.5 -64q-25 0 -50 4t-48 17.5t-37 39t-14 66.5z" />
<glyph unicode="b" horiz-adv-x="1236" d="M133 0h285v131q12 -31 31.5 -59.5t50 -51t78 -36t114.5 -13.5q129 0 218 44t145.5 122t81 186.5t24.5 237.5q0 27 -2 78t-14 110.5t-39 122t-77 113.5t-127 84t-187 33q-63 0 -107.5 -9.5t-77 -26.5t-59.5 -39.5t-53 -47.5v502h-285v-1481zM416 541q0 72 10 134t38 109 t76 75t122 28q70 0 112.5 -28t66 -71t32 -97t8.5 -109q0 -86 -6.5 -160t-29 -126t-66.5 -82t-122 -30q-86 0 -134 36t-72.5 89t-29.5 115.5t-5 116.5z" />
<glyph unicode="c" horiz-adv-x="1161" d="M70 541q0 -287 136 -428.5t392 -141.5q158 0 257 43t154.5 107.5t76 139.5t20.5 138h-281q-6 -43 -10 -83t-24.5 -69.5t-66.5 -48t-134 -18.5q-70 0 -116 23.5t-73.5 72t-39 119t-11.5 162.5q0 63 10.5 122.5t38 104.5t76.5 73t127 28q80 0 122 -16.5t63.5 -43 t26.5 -58.5t11 -62h273q0 78 -24.5 149.5t-81 126.5t-147.5 88t-224 33q-154 0 -259.5 -42t-170 -118t-93 -178t-28.5 -223z" />
<glyph unicode="d" horiz-adv-x="1206" d="M70 545q0 -266 112.5 -420t339.5 -154q74 0 125 16.5t85 41t54.5 52.5t34.5 50v-131h271v1481h-285v-504q-18 20 -40 42.5t-54.5 41t-79.5 30t-117 11.5q-123 0 -208 -40t-138 -112.5t-76.5 -176t-23.5 -228.5zM354 561q0 92 10.5 153.5t35 100.5t66.5 55.5t107 16.5 q129 0 185.5 -83t56.5 -269q0 -53 -5 -114t-28.5 -112t-74 -83.5t-138.5 -32.5q-68 0 -109.5 25.5t-65 73.5t-32 116.5t-8.5 152.5z" />
<glyph unicode="e" horiz-adv-x="1181" d="M70 532q0 -281 123.5 -421t398.5 -140q160 0 256 36t149.5 88t74 112.5t28.5 109.5h-279q-6 -25 -15 -48t-29.5 -41.5t-58.5 -30t-104 -11.5q-152 0 -207 65.5t-55 194.5h766q2 37 2 74q0 80 -9 160q-13 117 -66.5 210t-158 152.5t-282.5 59.5q-150 0 -252 -41 t-164.5 -116t-90 -179t-27.5 -234zM358 645q6 41 14.5 83t34 77t74.5 57.5t135 22.5q70 0 111 -19.5t62.5 -53.5t28.5 -77t7 -90h-467z" />
<glyph unicode="f" horiz-adv-x="645" d="M12 889h142v-889h284v889h178v184h-178v115q0 23 3 35t12 22q10 12 33.5 15.5t50.5 3.5h79v217h-149q-53 0 -118.5 -10.5t-112.5 -47.5q-47 -39 -64.5 -88t-17.5 -112v-150h-142v-184z" />
<glyph unicode="g" horiz-adv-x="1191" d="M70 569q0 -141 35.5 -237t97 -154.5t145.5 -84t180 -25.5q78 0 127.5 17t79 39.5t41.5 42t17 26.5v-203q0 -80 -58.5 -103.5t-156.5 -23.5q-74 0 -112 7t-55.5 21.5t-21.5 36t-6 49.5h-256q0 -68 19.5 -128t67.5 -105t131 -71.5t210 -26.5q268 0 395 87t127 273v1067 h-258v-151q-12 25 -32.5 56.5t-55.5 59t-88 46t-133 18.5q-115 0 -198 -38t-136 -106.5t-79.5 -167t-26.5 -221.5zM354 594q0 160 56.5 226.5t183.5 66.5q119 0 161 -75.5t42 -229.5q0 -53 -5.5 -107.5t-27 -99.5t-63.5 -73t-115 -28q-86 0 -133 28t-69 73t-26 102.5 t-4 116.5z" />
<glyph unicode="h" horiz-adv-x="1177" d="M133 0h285v686q0 111 43 153t143 42q39 0 73 -5.5t58.5 -23.5t38.5 -52t14 -91v-709h285v725q0 137 -36 213t-88 112.5t-112.5 44t-107.5 7.5q-82 0 -134 -8.5t-86 -26.5t-54.5 -48t-36.5 -73v535h-285v-1481z" />
<glyph unicode="i" horiz-adv-x="552" d="M143 0h285v1073h-285v-1073zM143 1212h285v269h-285v-269z" />
<glyph unicode="j" horiz-adv-x="522" d="M-37 -133v-221h193q18 0 45.5 3t56.5 9t54.5 17.5t41.5 29.5q35 39 44.5 84t9.5 98v1186h-285v-1110q0 -18 -1 -40.5t-9 -33.5q-10 -12 -26.5 -17t-53.5 -5h-70zM123 1212h285v269h-285v-269z" />
<glyph unicode="k" horiz-adv-x="1087" d="M133 0h285v465l92 76l287 -541h336l-435 723l389 350h-350l-319 -344v752h-285v-1481z" />
<glyph unicode="l" horiz-adv-x="552" d="M143 0h285v1481h-285v-1481z" />
<glyph unicode="m" horiz-adv-x="1738" d="M123 0h285v676q0 31 4 65.5t20.5 65.5t52 50.5t97.5 19.5q156 0 155 -158v-719h285v705q0 167 170 167h2q72 0 114 -40.5t42 -124.5v-707h284v776q0 84 -29.5 145.5t-79.5 101.5t-114.5 59.5t-134.5 19.5q-141 0 -208 -47t-101 -142q-10 33 -25.5 67t-46.5 60.5t-83 44 t-134 17.5t-130 -13.5t-78 -37t-45 -55t-32 -68.5v145h-270v-1073z" />
<glyph unicode="n" horiz-adv-x="1167" d="M123 0h285v692q0 111 46 149t136 38q111 0 149.5 -44t38.5 -124v-711h285v760q0 96 -24.5 161.5t-71.5 105.5t-119 57.5t-164 17.5q-90 0 -143.5 -18.5t-83 -44t-40.5 -56.5t-20 -55v145h-274v-1073z" />
<glyph unicode="o" horiz-adv-x="1222" d="M70 528q0 -291 135 -424t399 -133q154 0 257.5 41t167 116t91 179.5t27.5 231.5q0 293 -131 428t-402 135q-117 0 -216 -26.5t-172.5 -92t-114.5 -176.5t-41 -279zM354 541q0 104 15.5 171.5t48.5 105.5t84 53.5t123 15.5q133 0 185 -79t52 -245q0 -92 -9 -162.5 t-38 -119t-82 -73t-139 -24.5q-133 0 -186.5 83t-53.5 274z" />
<glyph unicode="p" horiz-adv-x="1230" d="M133 -354h285v448q31 -47 98.5 -85t190.5 -38q131 0 217 43t137 118t72.5 176t21.5 216q0 123 -23.5 228.5t-77 183.5t-137 122t-202.5 44q-74 0 -125 -15.5t-86 -39t-58.5 -50t-37.5 -51.5v127h-275v-1427zM408 545q0 186 65.5 262t181.5 76q117 0 164 -76t47 -236 q0 -84 -3 -154.5t-23.5 -121.5t-62.5 -81t-122 -30q-72 0 -119 27t-75.5 75t-40.5 114.5t-12 144.5z" />
<glyph unicode="q" horiz-adv-x="1212" d="M70 532q0 -287 111.5 -424t338.5 -137q70 0 119 13.5t82 33t54.5 44t37.5 47.5v-463h285v1427h-271v-135q-12 29 -34.5 57.5t-58.5 52t-88 39t-128 15.5q-225 0 -336.5 -147.5t-111.5 -422.5zM356 522q0 72 7.5 138.5t30 116.5t66.5 81t118 31q125 0 180 -84t55 -240 q0 -84 -8 -152.5t-36 -117.5t-78 -77t-132 -28q-70 0 -110.5 25t-61 70t-26 105.5t-5.5 131.5z" />
<glyph unicode="r" horiz-adv-x="819" d="M123 0h285v580q0 39 9 102t44 109q31 37 74 51t92 14h174v236q-35 4 -70 7t-69 3q-80 0 -129.5 -20.5t-79 -53.5t-46 -74t-30.5 -82v201h-254v-1073z" />
<glyph unicode="s" horiz-adv-x="1105" d="M70 381q0 -31 4 -72t19.5 -87t46 -91t85 -80t137 -57.5t199.5 -22.5q242 0 368 82t126 260q0 150 -90.5 225.5t-264.5 112.5q-96 20 -158.5 32.5t-98 26t-50 32t-14.5 51.5q0 31 15.5 50t39 30.5t54 14.5t61.5 3q63 0 100 -10.5t57.5 -30t26.5 -48t10 -65.5h269 q-2 18 -4 53t-15.5 75t-40 82t-78 77t-129 56.5t-192.5 21.5q-90 0 -172 -15.5t-143.5 -52.5t-97.5 -100.5t-36 -159.5q0 -72 21.5 -122t68 -88t118 -64.5t171.5 -46.5q78 -16 133.5 -25.5t90 -22t51 -32t16.5 -56.5q0 -49 -17.5 -75.5t-46 -39t-66.5 -14.5t-79 -2 q-86 0 -131 15.5t-65.5 42t-24.5 62.5t-6 75h-268z" />
<glyph unicode="t" horiz-adv-x="661" d="M14 885h142v-615q0 -25 1 -54.5t7 -59t17.5 -57t31.5 -46t49 -30t61.5 -16.5t65.5 -6t62 -1h165v217h-92q-18 0 -35.5 2t-29.5 14q-14 14 -16.5 35t-2.5 62v555h176v188h-176v340h-284v-340h-142v-188z" />
<glyph unicode="u" horiz-adv-x="1169" d="M113 285q0 -35 9 -88.5t45 -103.5t105.5 -86t192.5 -36q92 0 146.5 12.5t86 33t47 47t31.5 55.5v-119h279v1073h-285v-700q0 -92 -41 -135t-149 -43q-182 0 -183 163v715h-284v-788z" />
<glyph unicode="v" horiz-adv-x="1032" d="M4 1073l389 -1073h271l387 1073h-301l-218 -762l-219 762h-309z" />
<glyph unicode="w" horiz-adv-x="1523" d="M4 1073l356 -1073h252l164 741l160 -741h244l362 1073h-301l-178 -737l-164 737h-246l-168 -737l-180 737h-301z" />
<glyph unicode="x" horiz-adv-x="1169" d="M0 0h324l262 387l270 -387h334l-445 584l369 489h-332l-196 -299l-207 299h-332l385 -489z" />
<glyph unicode="y" horiz-adv-x="1083" d="M0 1073l412 -999l-43 -105q-10 -25 -21.5 -46t-21.5 -27q-12 -8 -29.5 -10.5t-65.5 -2.5h-131v-237h209q12 0 36 1t51.5 7t57 17.5t54.5 33.5q23 18 42 45t40.5 65t44 91t51.5 127l401 1040h-301l-231 -733l-256 733h-299z" />
<glyph unicode="z" horiz-adv-x="1024" d="M31 0h964v225h-639l605 623v225h-891v-217h577l-616 -641v-215z" />
<glyph unicode="{" horiz-adv-x="2048" d="M76 584l788 -789h336l-668 664h1440v252h-1440l668 661h-336z" />
<glyph unicode="|" horiz-adv-x="522" d="M207 -309h108v1779h-108v-1779z" />
<glyph unicode="}" horiz-adv-x="2048" d="M76 459h1440l-668 -664h336l788 789l-788 788h-336l668 -661h-1440v-252z" />
<glyph unicode="~" horiz-adv-x="1146" d="M147 418h105q4 27 9 56.5t14.5 52t25.5 38t43 15.5q53 0 104.5 -33t106.5 -72t115.5 -71.5t132.5 -32.5q55 0 92 22.5t58.5 60.5t31.5 87t16 102h-98q-4 -18 -7 -47t-12.5 -55.5t-28.5 -45t-56 -18.5q-45 0 -98.5 34t-111 74t-118.5 72.5t-123 32.5q-55 0 -92 -23.5 t-59.5 -62.5t-33.5 -87t-16 -99z" />
<glyph unicode="&#xa1;" horiz-adv-x="522" d="M106 -37v-358h312v358l-49 709h-199zM121 793h297v280h-297v-280z" />
<glyph unicode="&#xa2;" horiz-adv-x="1167" d="M70 750q0 -172 46 -281t115.5 -172.5t153.5 -88t160 -30.5v-178h119v178q78 8 154.5 29.5t146 79t100.5 134.5t33 165h-279q-4 -35 -10 -73t-31 -73q-16 -23 -51 -34t-63 -11v701q70 -4 102 -45q18 -25 28.5 -56.5t18.5 -56.5h277q-8 98 -43 170t-113 125q-33 23 -72 38 t-78 24.5t-70.5 14.5t-49.5 5v117h-119v-117q-117 -14 -206 -53t-148.5 -107t-90 -168t-30.5 -237zM356 758q0 145 41 236t148 102v-701q-57 0 -94 29t-57.5 79t-29 115.5t-8.5 139.5z" />
<glyph unicode="&#xa3;" horiz-adv-x="1259" d="M76 637h203l24 -42t33.5 -61.5t31 -72.5t13.5 -78q0 -41 -13.5 -61.5t-37.5 -40.5q-23 -6 -38.5 -10.5t-27.5 -9.5t-22.5 -10t-24.5 -11q-35 -16 -58.5 -31.5t-52.5 -38.5l97 -182q33 20 94 45.5t121 25.5q66 0 122 -12t106 -27.5t95 -27.5t93 -12q119 0 188.5 47 t106 115.5t47 149t10.5 148.5h-271q0 -43 -3 -84t-14 -72.5t-31.5 -51t-53.5 -19.5q-35 0 -58.5 6t-50 15.5t-61.5 19.5t-90 18q14 23 27.5 44.5t23.5 47t16.5 59.5t6.5 81q0 43 -8.5 71.5t-18.5 61.5h287v115h-328q-49 92 -73.5 164.5t-24.5 125.5q0 57 18.5 96.5t51 63 t74.5 32.5t89 9q96 0 148.5 -62.5t52.5 -176.5h254q0 76 -17.5 155.5t-66.5 145t-138 107.5t-231 42q-100 0 -195 -26.5t-170 -81t-120 -137.5t-45 -195q0 -68 18.5 -135.5t46.5 -126.5h-155v-115z" />
<glyph unicode="&#xa4;" horiz-adv-x="1529" d="M84 430h164q33 -94 91 -179t143 -148.5t199 -100.5t259 -37q84 0 164 12.5t149.5 36t123.5 56t89 73.5l-153 138q-145 -96 -340 -97q-86 0 -158 21.5t-127 56.5t-91 79t-52 89h573v219h-635q-2 16 -3 33.5t-1 34.5q0 16 1 37.5t3 38.5h635v219h-596q41 117 149.5 190.5 t291.5 73.5q96 0 173.5 -22.5t139.5 -63.5l166 164q-94 68 -214 104.5t-255 36.5q-145 0 -265 -37t-212.5 -101.5t-156 -153.5t-91.5 -191h-164v-219h111q-2 -23 -2 -41v-33v-31q0 -16 2 -39h-111v-219z" />
<glyph unicode="&#xa5;" horiz-adv-x="1110" d="M-10 1470l395 -839v-162h-192v-125h192v-88h-192v-125h192v-131h299v131h193v125h-193v88h193v125h-193v162l432 839h-334l-243 -546l-215 546h-334z" />
<glyph unicode="&#xa7;" horiz-adv-x="1187" d="M90 662q0 -61 17.5 -104.5t45 -75t64.5 -58.5t78 -53l360 -244q49 -33 94.5 -68.5t45.5 -87.5q0 -68 -52.5 -93t-142.5 -25q-86 0 -130 12t-64.5 36.5t-24.5 58.5t-8 77h-244v-39q0 -182 122 -267t333 -85q104 0 188 15t142.5 53t90 100.5t31.5 154.5q0 55 -12 94 t-31.5 68t-44 52.5t-49.5 45.5q47 16 84 49t62.5 75t39 90.5t13.5 95.5q0 51 -21.5 94t-54.5 79t-72 63.5t-71 49.5l-240 156q-78 51 -121 84t-64.5 56.5t-25.5 41t-4 37.5q0 31 15.5 51.5t41 32.5t60 17.5t71.5 5.5q68 0 105 -12.5t55.5 -34t24.5 -50t12 -61.5h227 q-4 66 -20.5 129t-60.5 112.5t-123.5 80t-210.5 30.5q-213 0 -329 -68.5t-116 -228.5q0 -53 12.5 -94t32 -71.5t43 -53t45.5 -39.5q-45 -8 -85 -34.5t-69.5 -65.5t-47 -86t-17.5 -98zM328 668q0 29 14 55.5t33.5 48t41 33.5t36.5 12q33 0 63 -20l297 -209q20 -14 35.5 -34.5 t15.5 -43.5q0 -25 -10 -51.5t-28.5 -48t-43 -36t-51.5 -14.5q-12 0 -23.5 3.5t-27.5 13.5l-299 205q-23 16 -38 37.5t-15 48.5z" />
<glyph unicode="&#xa8;" horiz-adv-x="716" d="M92 1225h205v243h-205v-243zM420 1225h205v243h-205v-243z" />
<glyph unicode="&#xa9;" horiz-adv-x="1136" d="M61 954q0 -104 40 -195t109 -160t160 -108.5t193 -39.5q106 0 201.5 42t165 114.5t108.5 168t35 201.5q-4 102 -46 191t-112.5 155t-163 102.5t-194.5 34.5t-192.5 -43t-158 -109.5t-106.5 -159.5t-39 -194zM176 950q0 80 30 152t82 126t121.5 87t149.5 35t151.5 -27 t127 -79t89.5 -119.5t38 -149.5q4 -84 -27 -160t-85 -132t-128 -90t-158 -34q-80 0 -150.5 31t-123.5 84t-85 124.5t-32 151.5zM272 956q0 -59 21.5 -112t59.5 -94t90.5 -67t111.5 -30q145 -8 266 113l-92 88q-41 -45 -80 -62.5t-84 -15.5q-70 4 -119 53.5t-49 118.5 q0 76 46 130.5t112 58.5q47 2 87 -14.5t83 -57.5l90 90q-63 59 -126.5 86t-137.5 23q-59 -4 -110.5 -31t-88.5 -69t-58.5 -95t-21.5 -113z" />
<glyph unicode="&#xaa;" horiz-adv-x="819" d="M86 1040q0 -98 57.5 -152t188.5 -54q68 0 114 17t80 77q6 -10 13.5 -25.5t23.5 -28.5q18 -16 38 -19t42 -3h90v123q-16 -2 -26.5 1t-14.5 7t-6 11t-2 28v268q0 117 -65.5 164t-206.5 47q-84 0 -141.5 -14t-92.5 -39t-50 -59.5t-15 -75.5v-29h163q2 20 4.5 37.5t13.5 31 t36.5 21.5t72.5 8q66 0 86.5 -20.5t20.5 -52.5q0 -23 -4 -39.5t-12 -22.5q-12 -10 -51.5 -13t-87.5 -7t-96 -10.5t-81 -20.5q-39 -16 -65.5 -51t-26.5 -105zM266 1032q0 43 23.5 61.5t57.5 26.5t73 11.5t69 17.5q10 4 21 10v-65q0 -61 -35 -99.5t-115 -38.5 q-31 0 -62.5 13.5t-31.5 62.5z" />
<glyph unicode="&#xab;" horiz-adv-x="1013" d="M82 526l260 -413h219l-262 413l279 426h-213zM434 526l262 -413h217l-262 413l281 426h-213z" />
<glyph unicode="&#xac;" horiz-adv-x="1638" d="M109 696h1321v-475h100v586h-1421v-111z" />
<glyph unicode="&#xad;" horiz-adv-x="737" d="M127 446h483v250h-483v-250z" />
<glyph unicode="&#xae;" horiz-adv-x="1136" d="M65.5 964.5q-2.5 -102.5 37.5 -195.5t108 -163.5t160 -112.5t194 -42q104 0 197.5 43t163 114.5t108.5 167t35 199.5q-4 100 -44 189t-108.5 154.5t-158.5 103.5t-191 38q-102 0 -192 -39t-157.5 -106.5t-108.5 -157.5t-43.5 -192.5zM178 961q0 80 32 150.5t86 123.5 t126 83t151 30q78 0 146.5 -30t121 -81t83 -118.5t34.5 -145.5q4 -84 -26.5 -159t-83.5 -132t-127 -90t-156 -33q-80 0 -151.5 33t-123.5 88t-82 128t-30 153zM385 696h117v209h90l82 -209h131l-98 226q41 18 64.5 53t21.5 98q0 61 -25 96t-57.5 51.5t-65.5 20.5t-49 4h-211 v-549zM500 1014v119h98q35 0 57.5 -13.5t22.5 -42.5q0 -47 -26.5 -55t-61.5 -8h-90z" />
<glyph unicode="&#xaf;" horiz-adv-x="757" d="M66 1260h626v180h-626v-180z" />
<glyph unicode="&#xb0;" horiz-adv-x="1024" d="M141 1077q0 -78 29 -145.5t80 -117.5t117.5 -79.5t144.5 -29.5q76 0 144.5 29.5t118.5 79.5t80 117.5t30 145.5q0 76 -29 144.5t-80 120t-118.5 81t-143.5 29.5q-78 0 -145.5 -29.5t-117.5 -81t-80 -120t-30 -144.5zM309 1077q0 86 59.5 145.5t145.5 59.5t144.5 -59.5 t58.5 -145.5t-58.5 -144.5t-144.5 -58.5t-145.5 58.5t-59.5 144.5z" />
<glyph unicode="&#xb1;" horiz-adv-x="1228" d="M61 -86v-270h1106v270h-1106zM61 436h422v-436h262v436h422v266h-422v404h-262v-404h-422v-266z" />
<glyph unicode="&#xb4;" horiz-adv-x="583" d="M119 1190h135l213 315h-242z" />
<glyph unicode="&#xb6;" horiz-adv-x="1024" d="M86 977q0 -96 37 -179t99.5 -145.5t145.5 -98.5t177 -36v-909h71l-2 1800h117v-1800h60v1800h147v61h-162q-139 0 -251.5 -19t-211.5 -73q-57 -33 -100 -80t-70.5 -101t-42 -111.5t-14.5 -108.5z" />
<glyph unicode="&#xb7;" horiz-adv-x="819" d="M250 545h321v325h-321v-325z" />
<glyph unicode="&#xb8;" horiz-adv-x="491" d="M55 -276q0 -80 44 -112t132 -32q98 0 151.5 39t53.5 131q0 90 -41 122t-98 32l-10 100h-109l-8 -194h51q20 0 40 -8.5t20 -55.5q0 -23 -10.5 -42t-41.5 -19q-25 0 -33 12t-10 27h-131z" />
<glyph unicode="&#xba;" horiz-adv-x="819" d="M70 1163q0 -174 86 -251.5t252 -77.5q96 0 161.5 24.5t105.5 68.5t57.5 105t17.5 137q0 174 -83 253t-255 79q-74 0 -136.5 -15.5t-108.5 -54t-71.5 -104t-25.5 -164.5zM248 1169q0 123 41 164t133 41q84 0 116.5 -46t32.5 -144h-2q0 -55 -6 -97.5t-24.5 -71t-51 -43 t-88.5 -14.5q-84 0 -117.5 49.5t-33.5 161.5z" />
<glyph unicode="&#xbb;" horiz-adv-x="1013" d="M84 113h215l276 426l-262 413h-213l258 -413zM434 113h213l283 426l-262 413h-217l260 -413z" />
<glyph unicode="&#xbf;" horiz-adv-x="1085" d="M68 14q0 -88 23.5 -164.5t77.5 -134t142 -90.5t217 -33q158 0 256.5 44.5t152.5 114t73.5 156.5t19.5 175h-274q-4 -49 -9.5 -99.5t-26 -91.5t-61.5 -66.5t-116 -25.5q-57 0 -95 16.5t-60.5 43t-32 61.5t-9.5 74q0 59 18.5 101t49 77t68.5 66.5t75 68.5q29 31 57.5 65 t52 77t38 97t14.5 126h-264q0 -31 -11.5 -79t-33.5 -79q-47 -63 -106.5 -112.5t-112 -101.5t-88 -118.5t-35.5 -167.5zM438 793h297v280h-297v-280z" />
<glyph unicode="&#xc0;" d="M-14 0h295l98 317h536l101 -317h307l-520 1470h-314zM420 1939l223 -315h131l-112 315h-242zM446 535l203 649l197 -649h-400z" />
<glyph unicode="&#xc1;" d="M-14 0h295l98 317h536l101 -317h307l-520 1470h-314zM446 535l203 649l197 -649h-400zM578 1624h135l213 315h-242z" />
<glyph unicode="&#xc2;" d="M-14 0h295l98 317h536l101 -317h307l-520 1470h-314zM418 1624h129l106 156l107 -156h127l-111 311h-248zM446 535l203 649l197 -649h-400z" />
<glyph unicode="&#xc3;" d="M-14 0h295l98 317h536l101 -317h307l-520 1470h-314zM340 1669q0 -10 1 -21.5t1 -21.5h170v25q0 16 7 30.5t28 14.5q20 0 45.5 -11.5t54.5 -24.5t62.5 -24.5t70.5 -11.5q84 0 129 55.5t45 137.5q0 10 -1 20t-1 21h-166q-4 -20 -11 -42t-40 -22q-14 0 -37.5 10.5 t-54.5 21.5t-65.5 21.5t-69.5 10.5q-68 0 -118 -48.5t-50 -140.5zM446 535l203 649l197 -649h-400z" />
<glyph unicode="&#xc4;" d="M-14 0h295l98 317h536l101 -317h307l-520 1470h-314zM381 1624h205v244h-205v-244zM446 535l203 649l197 -649h-400zM709 1624h204v244h-204v-244z" />
<glyph unicode="&#xc5;" d="M-14 0h295l98 317h536l101 -317h307l-520 1470h-314zM420 1743q0 -33 3 -56.5t23 -41.5q16 -16 44 -18.5t57 -2.5h188q29 0 56.5 2t44.5 19q20 18 23 41.5t3 56.5v106q0 23 -3 47.5t-19 40.5q-14 14 -43 16.5t-58 2.5h-196q-29 0 -57.5 -2t-43.5 -17q-16 -16 -19 -40.5 t-3 -47.5v-106zM446 535l203 649l197 -649h-400zM512 1774v41q0 25 12 34q8 4 22.5 5t28.5 1h127q14 0 28.5 -1t23.5 -5q12 -10 12 -34v-41q0 -20 -2 -28.5t-8 -12.5q-10 -6 -20.5 -7.5t-22.5 -1.5h-148q-10 0 -21.5 1t-21.5 8q-6 4 -8 12t-2 29z" />
<glyph unicode="&#xc6;" horiz-adv-x="2201" d="M-10 0h313l213 362h510v-362h1145v244h-858v411h770v238h-770v338h844v239h-1244zM643 582l383 657v-657h-383z" />
<glyph unicode="&#xc7;" horiz-adv-x="1454" d="M78 752q0 -174 33.5 -311.5t104.5 -236t182.5 -156.5t271.5 -75v-241h227v239q137 14 231.5 63.5t152.5 121t87 161t39 181.5h-291q-14 -80 -35.5 -135.5t-60.5 -90t-98.5 -50t-149.5 -15.5q-121 0 -197.5 37t-120.5 102.5t-60.5 158.5t-16.5 208q0 150 20.5 256 t69.5 171.5t129 96.5t199 31q96 0 154.5 -21.5t92 -56.5t49 -78t27.5 -88h279q-10 80 -39 165t-96.5 153.5t-183 113.5t-302.5 45q-182 0 -313 -51t-217 -148.5t-127 -236.5t-41 -313z" />
<glyph unicode="&#xc8;" horiz-adv-x="1335" d="M147 0h1153v244h-858v413h770v238h-770v336h836v239h-1131v-1470zM539 1939l223 -315h131l-113 315h-241z" />
<glyph unicode="&#xc9;" horiz-adv-x="1335" d="M147 0h1153v244h-858v413h770v238h-770v336h836v239h-1131v-1470zM666 1624h135l213 315h-242z" />
<glyph unicode="&#xca;" horiz-adv-x="1335" d="M147 0h1153v244h-858v413h770v238h-770v336h836v239h-1131v-1470zM530 1626h129l107 156l106 -156h127l-110 311h-248z" />
<glyph unicode="&#xcb;" horiz-adv-x="1335" d="M147 0h1153v244h-858v413h770v238h-770v336h836v239h-1131v-1470zM526 1624h205v244h-205v-244zM854 1624h205v244h-205v-244z" />
<glyph unicode="&#xcc;" horiz-adv-x="548" d="M10 1939l223 -315h132l-113 315h-242zM129 0h293v1470h-293v-1470z" />
<glyph unicode="&#xcd;" horiz-adv-x="548" d="M131 0h293v1470h-293v-1470zM215 1624h135l213 315h-241z" />
<glyph unicode="&#xce;" horiz-adv-x="548" d="M41 1624h129l106 156l107 -156h127l-111 311h-247zM129 0h293v1470h-293v-1470z" />
<glyph unicode="&#xcf;" horiz-adv-x="548" d="M8 1624h205v244h-205v-244zM129 0h293v1470h-293v-1470zM336 1624h205v244h-205v-244z" />
<glyph unicode="&#xd1;" horiz-adv-x="1470" d="M147 0h295v1028l613 -1028h305v1470h-293v-1021l-616 1021h-304v-1470zM449 1669q0 -10 1 -21.5t1 -21.5h170v25q0 16 7 30.5t27 14.5t46 -11.5t54.5 -24.5t62.5 -24.5t71 -11.5q84 0 129 55.5t45 137.5q0 10 -1 20t-1 21h-166q-4 -20 -11 -42t-40 -22q-14 0 -38 10.5 t-54.5 21.5t-65.5 21.5t-70 10.5q-68 0 -117.5 -48.5t-49.5 -140.5z" />
<glyph unicode="&#xd2;" horiz-adv-x="1605" d="M78 725q0 -193 51 -335t143.5 -236.5t217 -140.5t272.5 -46q377 0 564 186.5t187 577.5q0 180 -40.5 322.5t-126.5 242t-217.5 152.5t-311.5 53q-164 0 -300 -40t-233.5 -130t-151.5 -239.5t-54 -366.5zM375 725q0 129 18.5 230.5t67.5 171t135 105.5t219 36 q94 0 169 -28t127 -89t80 -162t28 -246q0 -102 -13.5 -199.5t-57.5 -174t-131 -122.5t-235 -46q-213 0 -310 141t-97 383zM567 1939l224 -315h131l-113 315h-242z" />
<glyph unicode="&#xd3;" horiz-adv-x="1605" d="M78 725q0 -193 51 -335t143.5 -236.5t217 -140.5t272.5 -46q377 0 564 186.5t187 577.5q0 180 -40.5 322.5t-126.5 242t-217.5 152.5t-311.5 53q-164 0 -300 -40t-233.5 -130t-151.5 -239.5t-54 -366.5zM375 725q0 129 18.5 230.5t67.5 171t135 105.5t219 36 q94 0 169 -28t127 -89t80 -162t28 -246q0 -102 -13.5 -199.5t-57.5 -174t-131 -122.5t-235 -46q-213 0 -310 141t-97 383zM748 1624h135l213 315h-242z" />
<glyph unicode="&#xd4;" horiz-adv-x="1605" d="M78 725q0 -193 51 -335t143.5 -236.5t217 -140.5t272.5 -46q377 0 564 186.5t187 577.5q0 180 -40.5 322.5t-126.5 242t-217.5 152.5t-311.5 53q-164 0 -300 -40t-233.5 -130t-151.5 -239.5t-54 -366.5zM375 725q0 129 18.5 230.5t67.5 171t135 105.5t219 36 q94 0 169 -28t127 -89t80 -162t28 -246q0 -102 -13.5 -199.5t-57.5 -174t-131 -122.5t-235 -46q-213 0 -310 141t-97 383zM596 1624h129l106 156l107 -156h127l-111 311h-247z" />
<glyph unicode="&#xd5;" horiz-adv-x="1605" d="M78 725q0 -193 51 -335t143.5 -236.5t217 -140.5t272.5 -46q377 0 564 186.5t187 577.5q0 180 -40.5 322.5t-126.5 242t-217.5 152.5t-311.5 53q-164 0 -300 -40t-233.5 -130t-151.5 -239.5t-54 -366.5zM375 725q0 129 18.5 230.5t67.5 171t135 105.5t219 36 q94 0 169 -28t127 -89t80 -162t28 -246q0 -102 -13.5 -199.5t-57.5 -174t-131 -122.5t-235 -46q-213 0 -310 141t-97 383zM508 1681q0 -10 1 -21t1 -22h170v25q0 16 7 30.5t28 14.5q20 0 45.5 -11t54.5 -24.5t62.5 -25t70.5 -11.5q84 0 129 55.5t45 137.5q0 10 -1 20.5 t-1 20.5h-166q-4 -20 -11 -42t-40 -22q-14 0 -37.5 10.5t-54.5 21.5t-65.5 21.5t-69.5 10.5q-68 0 -118 -48t-50 -141z" />
<glyph unicode="&#xd6;" horiz-adv-x="1605" d="M78 725q0 -193 51 -335t143.5 -236.5t217 -140.5t272.5 -46q377 0 564 186.5t187 577.5q0 180 -40.5 322.5t-126.5 242t-217.5 152.5t-311.5 53q-164 0 -300 -40t-233.5 -130t-151.5 -239.5t-54 -366.5zM375 725q0 129 18.5 230.5t67.5 171t135 105.5t219 36 q94 0 169 -28t127 -89t80 -162t28 -246q0 -102 -13.5 -199.5t-57.5 -174t-131 -122.5t-235 -46q-213 0 -310 141t-97 383zM547 1624h205v244h-205v-244zM874 1624h205v244h-205v-244z" />
<glyph unicode="&#xd8;" horiz-adv-x="1617" d="M88 725q0 -125 18.5 -213t44 -149.5t55.5 -102.5t52 -72l-166 -211h193l88 105q66 -41 122 -63.5t106 -34t95 -14.5t90 -3q219 0 361.5 64.5t226.5 171t118 245t34 285.5q0 131 -19.5 229.5t-46 166t-55.5 108.5t-47 57l172 207h-205l-84 -104q-27 14 -60.5 32.5 t-81.5 35t-114.5 26.5t-157.5 10q-180 0 -318 -45t-231.5 -139t-141.5 -241.5t-48 -350.5zM358 702q0 131 24 235.5t77 178.5t138 114t208 40q63 0 107 -7.5t74 -18.5t49.5 -24.5t35.5 -25.5l-637 -786q-35 68 -55.5 142.5t-20.5 151.5zM545 289l633 782q18 -29 31.5 -56.5 t22.5 -63.5t14 -83.5t5 -117.5q0 -123 -26.5 -223.5t-79.5 -172t-132 -110.5t-186 -39q-88 0 -158.5 18.5t-123.5 65.5z" />
<glyph unicode="&#xd9;" horiz-adv-x="1445" d="M147 477q0 -119 33 -213t103.5 -160.5t183.5 -101.5t274 -35q289 0 445.5 118t156.5 388v997h-294v-1011q0 -61 -14.5 -108.5t-47.5 -80t-87 -50t-136 -17.5q-92 0 -154.5 16.5t-99.5 50t-52.5 83.5t-15.5 116v1001h-295v-993zM496 1939l223 -315h131l-113 315h-241z" />
<glyph unicode="&#xda;" horiz-adv-x="1445" d="M147 477q0 -119 33 -213t103.5 -160.5t183.5 -101.5t274 -35q289 0 445.5 118t156.5 388v997h-294v-1011q0 -61 -14.5 -108.5t-47.5 -80t-87 -50t-136 -17.5q-92 0 -154.5 16.5t-99.5 50t-52.5 83.5t-15.5 116v1001h-295v-993zM668 1624h135l213 315h-242z" />
<glyph unicode="&#xdb;" horiz-adv-x="1445" d="M147 477q0 -119 33 -213t103.5 -160.5t183.5 -101.5t274 -35q289 0 445.5 118t156.5 388v997h-294v-1011q0 -61 -14.5 -108.5t-47.5 -80t-87 -50t-136 -17.5q-92 0 -154.5 16.5t-99.5 50t-52.5 83.5t-15.5 116v1001h-295v-993zM512 1624h129l107 156l106 -156h127 l-111 311h-247z" />
<glyph unicode="&#xdc;" horiz-adv-x="1402" d="M104 477q0 -119 33 -213t103.5 -160.5t183.5 -101.5t274 -35q289 0 445.5 118t156.5 388v997h-294v-1011q0 -61 -14.5 -108.5t-47.5 -80t-87 -50t-136 -17.5q-92 0 -154.5 16.5t-99.5 50t-52.5 83.5t-15.5 116v1001h-295v-993zM440 1624h205v244h-205v-244zM768 1624h205 v244h-205v-244z" />
<glyph unicode="&#xdf;" horiz-adv-x="1269" d="M82 866h100v-866h279v1163q0 57 25.5 98.5t115.5 41.5q57 0 92 -25t35 -61q0 -51 -22.5 -88t-49 -71t-49 -72t-22.5 -89q0 -45 23.5 -81t60.5 -68.5t77.5 -66.5t77.5 -73t60.5 -88t23.5 -112q0 -78 -23.5 -120t-59 -61.5t-80 -22.5t-87.5 -3q-29 0 -53 1t-53 3v-217 q31 -2 62.5 -4t62.5 -2q102 0 194.5 23.5t163 74.5t112.5 133t42 199q0 111 -33 182.5t-90 116.5q-45 35 -89 61.5t-79 50t-56.5 47t-21.5 52.5q0 31 29 54t63.5 54t63.5 75t29 116q0 45 -19.5 95t-63.5 91t-118 67.5t-182 26.5q-86 0 -166 -15.5t-141.5 -52t-97.5 -98 t-36 -151.5v-111h-100v-207z" />
<glyph unicode="&#xe0;" horiz-adv-x="1132" d="M70 319q0 -164 91 -256t298 -92q53 0 98 6.5t83 22.5t68.5 48t59.5 81q10 -18 22.5 -44t34.5 -46q29 -25 59.5 -32t69.5 -7h142v209q-27 -2 -42.5 4t-21.5 10t-10 17.5t-4 48.5v456q0 197 -105.5 277t-324.5 80q-135 0 -226.5 -24.5t-146.5 -67.5t-78.5 -101.5 t-23.5 -126.5v-47h260q2 33 6 62.5t22.5 53t57.5 37t114 13.5q100 0 135 -35t35 -92q0 -37 -7 -65.5t-19 -38.5q-23 -16 -84.5 -22.5t-137 -12.5t-152.5 -16.5t-126 -32.5q-63 -29 -105 -89.5t-42 -177.5zM330 1505l223 -315h131l-113 315h-241zM354 305q0 74 37 105.5 t91.5 44t117 18.5t111.5 31q16 6 32 16v-110q0 -104 -55 -168t-184 -64q-25 0 -50.5 4t-48 17.5t-37 39t-14.5 66.5z" />
<glyph unicode="&#xe1;" horiz-adv-x="1132" d="M70 319q0 -164 91 -256t298 -92q53 0 98 6.5t83 22.5t68.5 48t59.5 81q10 -18 22.5 -44t34.5 -46q29 -25 59.5 -32t69.5 -7h142v209q-27 -2 -42.5 4t-21.5 10t-10 17.5t-4 48.5v456q0 197 -105.5 277t-324.5 80q-135 0 -226.5 -24.5t-146.5 -67.5t-78.5 -101.5 t-23.5 -126.5v-47h260q2 33 6 62.5t22.5 53t57.5 37t114 13.5q100 0 135 -35t35 -92q0 -37 -7 -65.5t-19 -38.5q-23 -16 -84.5 -22.5t-137 -12.5t-152.5 -16.5t-126 -32.5q-63 -29 -105 -89.5t-42 -177.5zM354 305q0 74 37 105.5t91.5 44t117 18.5t111.5 31q16 6 32 16v-110 q0 -104 -55 -168t-184 -64q-25 0 -50.5 4t-48 17.5t-37 39t-14.5 66.5zM524 1190h135l213 315h-241z" />
<glyph unicode="&#xe2;" horiz-adv-x="1132" d="M70 319q0 -164 91 -256t298 -92q53 0 98 6.5t83 22.5t68.5 48t59.5 81q10 -18 22.5 -44t34.5 -46q29 -25 59.5 -32t69.5 -7h142v209q-27 -2 -42.5 4t-21.5 10t-10 17.5t-4 48.5v456q0 197 -105.5 277t-324.5 80q-135 0 -226.5 -24.5t-146.5 -67.5t-78.5 -101.5 t-23.5 -126.5v-47h260q2 33 6 62.5t22.5 53t57.5 37t114 13.5q100 0 135 -35t35 -92q0 -37 -7 -65.5t-19 -38.5q-23 -16 -84.5 -22.5t-137 -12.5t-152.5 -16.5t-126 -32.5q-63 -29 -105 -89.5t-42 -177.5zM340 1190h129l106 156l107 -156h127l-111 311h-247zM354 305 q0 74 37 105.5t91.5 44t117 18.5t111.5 31q16 6 32 16v-110q0 -104 -55 -168t-184 -64q-25 0 -50.5 4t-48 17.5t-37 39t-14.5 66.5z" />
<glyph unicode="&#xe3;" horiz-adv-x="1132" d="M70 319q0 -164 91 -256t298 -92q53 0 98 6.5t83 22.5t68.5 48t59.5 81q10 -18 22.5 -44t34.5 -46q29 -25 59.5 -32t69.5 -7h142v209q-27 -2 -42.5 4t-21.5 10t-10 17.5t-4 48.5v456q0 197 -105.5 277t-324.5 80q-135 0 -226.5 -24.5t-146.5 -67.5t-78.5 -101.5 t-23.5 -126.5v-47h260q2 33 6 62.5t22.5 53t57.5 37t114 13.5q100 0 135 -35t35 -92q0 -37 -7 -65.5t-19 -38.5q-23 -16 -84.5 -22.5t-137 -12.5t-152.5 -16.5t-126 -32.5q-63 -29 -105 -89.5t-42 -177.5zM256 1278q0 -10 1 -21.5t1 -21.5h170v25q0 16 7 30.5t28 14.5 q20 0 46 -11.5t54.5 -25t62 -24.5t70.5 -11q84 0 129 55t45 137q0 10 -1 20.5t-1 20.5h-166q-4 -20 -11 -41.5t-40 -21.5q-14 0 -37.5 10t-54.5 21.5t-65.5 21.5t-69.5 10q-68 0 -118 -48t-50 -140zM354 305q0 74 37 105.5t91.5 44t117 18.5t111.5 31q16 6 32 16v-110 q0 -104 -55 -168t-184 -64q-25 0 -50.5 4t-48 17.5t-37 39t-14.5 66.5z" />
<glyph unicode="&#xe4;" horiz-adv-x="1132" d="M70 319q0 -164 91 -256t298 -92q53 0 98 6.5t83 22.5t68.5 48t59.5 81q10 -18 22.5 -44t34.5 -46q29 -25 59.5 -32t69.5 -7h142v209q-27 -2 -42.5 4t-21.5 10t-10 17.5t-4 48.5v456q0 197 -105.5 277t-324.5 80q-135 0 -226.5 -24.5t-146.5 -67.5t-78.5 -101.5 t-23.5 -126.5v-47h260q2 33 6 62.5t22.5 53t57.5 37t114 13.5q100 0 135 -35t35 -92q0 -37 -7 -65.5t-19 -38.5q-23 -16 -84.5 -22.5t-137 -12.5t-152.5 -16.5t-126 -32.5q-63 -29 -105 -89.5t-42 -177.5zM315 1225h205v243h-205v-243zM354 305q0 74 37 105.5t91.5 44 t117 18.5t111.5 31q16 6 32 16v-110q0 -104 -55 -168t-184 -64q-25 0 -50.5 4t-48 17.5t-37 39t-14.5 66.5zM643 1225h205v243h-205v-243z" />
<glyph unicode="&#xe5;" horiz-adv-x="1132" d="M70 319q0 -164 91 -256t298 -92q53 0 98 6.5t83 22.5t68.5 48t59.5 81q10 -18 22.5 -44t34.5 -46q29 -25 59.5 -32t69.5 -7h142v209q-27 -2 -42.5 4t-21.5 10t-10 17.5t-4 48.5v456q0 197 -105.5 277t-324.5 80q-135 0 -226.5 -24.5t-146.5 -67.5t-78.5 -101.5 t-23.5 -126.5v-47h260q2 33 6 62.5t22.5 53t57.5 37t114 13.5q100 0 135 -35t35 -92q0 -37 -7 -65.5t-19 -38.5q-23 -16 -84.5 -22.5t-137 -12.5t-152.5 -16.5t-126 -32.5q-63 -29 -105 -89.5t-42 -177.5zM354 305q0 74 37 105.5t91.5 44t117 18.5t111.5 31q16 6 32 16v-110 q0 -104 -55 -168t-184 -64q-25 0 -50.5 4t-48 17.5t-37 39t-14.5 66.5zM377 1298q0 -33 3 -56t23 -42q16 -16 44 -18t57 -2h188q29 0 56.5 2t44.5 18q20 18 23 41.5t3 56.5v107q0 23 -3 47.5t-19 40.5q-14 14 -43 16t-58 2h-196q-29 0 -57.5 -2t-43.5 -16q-16 -16 -19 -41 t-3 -47v-107zM469 1329v41q0 25 12 35q8 4 22.5 5t28.5 1h127q14 0 28.5 -1t23.5 -5q12 -10 12 -35v-41q0 -20 -2 -28.5t-8 -12.5q-10 -6 -20.5 -7t-22.5 -1h-148q-10 0 -21.5 1t-21.5 7q-6 4 -8 12.5t-2 28.5z" />
<glyph unicode="&#xe6;" horiz-adv-x="1873" d="M90 289q0 -86 30 -145.5t83 -98.5t124.5 -56.5t157.5 -17.5q94 0 155.5 18.5t102.5 47.5t67 63.5t48 67.5q45 -84 146.5 -140.5t283.5 -56.5q133 0 226.5 28t152.5 75t89 111.5t36 136.5h-270q-6 -16 -12.5 -41t-27 -46.5t-59.5 -37t-112 -15.5q-100 0 -151.5 27 t-75 68.5t-28.5 90t-12 91.5h768v92q0 268 -118.5 409.5t-388.5 141.5q-74 0 -125.5 -7.5t-91 -19.5t-72.5 -28.5t-68 -36.5q-53 47 -133 69.5t-199 22.5q-156 0 -251 -32t-147 -79t-69.5 -103.5t-17.5 -105.5q0 -12 1 -25.5t1 -25.5h262q0 35 6.5 65.5t25.5 54t57 37 t102 13.5q39 0 72.5 -5t58 -20.5t39 -43t14.5 -72.5q0 -61 -36 -83t-116 -32q-88 -12 -182 -21.5t-171 -41t-126 -98t-49 -195.5zM375 299q0 59 24.5 89t67.5 45.5t99.5 22.5t119.5 23q23 4 43.5 12.5t42.5 14.5q0 -18 1 -38t1 -38q0 -131 -60.5 -195.5t-191.5 -64.5 q-82 0 -114.5 37t-32.5 92zM1055 659q4 39 11 82t31.5 77t74 56.5t135.5 22.5q217 0 217 -201q0 -10 -1 -18t-1 -19h-467z" />
<glyph unicode="&#xe7;" horiz-adv-x="1161" d="M70 541q0 -262 112.5 -401.5t325.5 -164.5v-165h207v170q119 16 195.5 62t119.5 106.5t59.5 127t16.5 123.5h-281q-4 -59 -13 -101t-33.5 -68.5t-66.5 -40t-108 -13.5q-84 0 -134 33t-76.5 86t-35 121.5t-8.5 140.5q0 63 10.5 122.5t38 104.5t76.5 73t127 28 q80 0 122 -16.5t63.5 -43t26.5 -58.5t11 -62h273q0 78 -24.5 149.5t-81 126.5t-147.5 88t-224 33q-154 0 -259.5 -42t-170 -118t-93 -178t-28.5 -223z" />
<glyph unicode="&#xe8;" horiz-adv-x="1181" d="M70 532q0 -281 123.5 -421t398.5 -140q160 0 256 36t149.5 88t74 112.5t28.5 109.5h-279q-6 -25 -15 -48t-29.5 -41.5t-58.5 -30t-104 -11.5q-152 0 -207 65.5t-55 194.5h766q6 117 -7 234t-66.5 210t-158 152.5t-282.5 59.5q-150 0 -252 -41t-164.5 -116t-90 -179 t-27.5 -234zM336 1505l223 -315h131l-112 315h-242zM358 645q6 41 14.5 83t34 77t74.5 57.5t135 22.5q70 0 111 -19.5t62.5 -53.5t28.5 -77t7 -90h-467z" />
<glyph unicode="&#xe9;" horiz-adv-x="1181" d="M70 532q0 -281 123.5 -421t398.5 -140q160 0 256 36t149.5 88t74 112.5t28.5 109.5h-279q-6 -25 -15 -48t-29.5 -41.5t-58.5 -30t-104 -11.5q-152 0 -207 65.5t-55 194.5h766q6 117 -7 234t-66.5 210t-158 152.5t-282.5 59.5q-150 0 -252 -41t-164.5 -116t-90 -179 t-27.5 -234zM358 645q6 41 14.5 83t34 77t74.5 57.5t135 22.5q70 0 111 -19.5t62.5 -53.5t28.5 -77t7 -90h-467zM535 1190h135l213 315h-242z" />
<glyph unicode="&#xea;" horiz-adv-x="1179" d="M70 532q0 -281 123.5 -421t398.5 -140q160 0 256 36t149.5 88t74 112.5t28.5 109.5h-279q-6 -25 -15 -48t-29.5 -41.5t-58.5 -30t-104 -11.5q-152 0 -207 65.5t-55 194.5h766q6 117 -7 234t-66.5 210t-158 152.5t-282.5 59.5q-150 0 -252 -41t-164.5 -116t-90 -179 t-27.5 -234zM358 645q6 41 14.5 83t34 77t74.5 57.5t135 22.5q70 0 111 -19.5t62.5 -53.5t28.5 -77t7 -90h-467zM371 1190h129l106 156l107 -156h127l-111 311h-248z" />
<glyph unicode="&#xeb;" horiz-adv-x="1179" d="M70 532q0 -281 123.5 -421t398.5 -140q160 0 256 36t149.5 88t74 112.5t28.5 109.5h-279q-6 -25 -15 -48t-29.5 -41.5t-58.5 -30t-104 -11.5q-152 0 -207 65.5t-55 194.5h766q6 117 -7 234t-66.5 210t-158 152.5t-282.5 59.5q-150 0 -252 -41t-164.5 -116t-90 -179 t-27.5 -234zM328 1227h204v243h-204v-243zM358 645q6 41 14.5 83t34 77t74.5 57.5t135 22.5q70 0 111 -19.5t62.5 -53.5t28.5 -77t7 -90h-467zM655 1227h205v243h-205v-243z" />
<glyph unicode="&#xec;" horiz-adv-x="526" d="M47 1505l223 -315h131l-112 315h-242zM119 0h284v1073h-284v-1073z" />
<glyph unicode="&#xed;" horiz-adv-x="526" d="M119 0h284v1073h-284v-1073zM139 1190h137l213 315h-243z" />
<glyph unicode="&#xee;" horiz-adv-x="526" d="M29 1190h129l106 156l107 -156h127l-111 311h-248zM121 0h285v1073h-285v-1073z" />
<glyph unicode="&#xef;" horiz-adv-x="526" d="M-4 1225h205v243h-205v-243zM121 0h285v1073h-285v-1073zM324 1225h206v243h-206v-243z" />
<glyph unicode="&#xf1;" horiz-adv-x="1167" d="M123 0h285v692q0 111 46 149t136 38q111 0 149.5 -44t38.5 -124v-711h285v760q0 96 -24.5 161.5t-71.5 105.5t-119 57.5t-164 17.5q-90 0 -143.5 -18.5t-83 -44t-40.5 -56.5t-20 -55v145h-274v-1073zM289 1276q0 -10 1 -21.5t1 -21.5h170v24q0 16 7 31t28 15 q20 0 45.5 -11.5t54.5 -25t62.5 -24.5t70.5 -11q84 0 129 55t45 137q0 10 -1 20.5t-1 20.5h-166q-4 -20 -11 -41.5t-40 -21.5q-14 0 -37.5 10t-54.5 21.5t-65.5 21.5t-69.5 10q-68 0 -118 -48t-50 -140z" />
<glyph unicode="&#xf2;" horiz-adv-x="1222" d="M70 528q0 -291 135 -424t399 -133q154 0 257.5 41t167 116t91 179.5t27.5 231.5q0 293 -131 428t-402 135q-117 0 -216 -26.5t-172.5 -92t-114.5 -176.5t-41 -279zM354 541q0 104 15.5 171.5t48.5 105.5t84 53.5t123 15.5q133 0 185 -79t52 -245q0 -92 -9 -162.5 t-38 -119t-82 -73t-139 -24.5q-133 0 -186.5 83t-53.5 274zM356 1505l224 -315h131l-113 315h-242z" />
<glyph unicode="&#xf3;" horiz-adv-x="1222" d="M70 528q0 -291 135 -424t399 -133q154 0 257.5 41t167 116t91 179.5t27.5 231.5q0 293 -131 428t-402 135q-117 0 -216 -26.5t-172.5 -92t-114.5 -176.5t-41 -279zM354 541q0 104 15.5 171.5t48.5 105.5t84 53.5t123 15.5q133 0 185 -79t52 -245q0 -92 -9 -162.5 t-38 -119t-82 -73t-139 -24.5q-133 0 -186.5 83t-53.5 274zM541 1190h135l213 315h-242z" />
<glyph unicode="&#xf4;" horiz-adv-x="1222" d="M70 528q0 -291 135 -424t399 -133q154 0 257.5 41t167 116t91 179.5t27.5 231.5q0 293 -131 428t-402 135q-117 0 -216 -26.5t-172.5 -92t-114.5 -176.5t-41 -279zM354 541q0 104 15.5 171.5t48.5 105.5t84 53.5t123 15.5q133 0 185 -79t52 -245q0 -92 -9 -162.5 t-38 -119t-82 -73t-139 -24.5q-133 0 -186.5 83t-53.5 274zM395 1190h129l107 156l106 -156h127l-110 311h-248z" />
<glyph unicode="&#xf5;" horiz-adv-x="1222" d="M70 528q0 -291 135 -424t399 -133q154 0 257.5 41t167 116t91 179.5t27.5 231.5q0 293 -131 428t-402 135q-117 0 -216 -26.5t-172.5 -92t-114.5 -176.5t-41 -279zM326 1278q0 -10 1 -21.5t1 -21.5h170v25q0 16 7 30.5t27 14.5t46 -11.5t55 -25t62.5 -24.5t70.5 -11 q84 0 129 55t45 137q0 10 -1 20.5t-1 20.5h-166q-4 -20 -11 -41.5t-40 -21.5q-14 0 -38 10t-54.5 21.5t-65.5 21.5t-69 10q-68 0 -118 -48t-50 -140zM354 541q0 104 15.5 171.5t48.5 105.5t84 53.5t123 15.5q133 0 185 -79t52 -245q0 -92 -9 -162.5t-38 -119t-82 -73 t-139 -24.5q-133 0 -186.5 83t-53.5 274z" />
<glyph unicode="&#xf6;" horiz-adv-x="1222" d="M70 528q0 -291 135 -424t399 -133q154 0 257.5 41t167 116t91 179.5t27.5 231.5q0 293 -131 428t-402 135q-117 0 -216 -26.5t-172.5 -92t-114.5 -176.5t-41 -279zM348 1225h205v243h-205v-243zM354 541q0 104 15.5 171.5t48.5 105.5t84 53.5t123 15.5q133 0 185 -79 t52 -245q0 -92 -9 -162.5t-38 -119t-82 -73t-139 -24.5q-133 0 -186.5 83t-53.5 274zM676 1225h205v243h-205v-243z" />
<glyph unicode="&#xf7;" horiz-adv-x="1167" d="M61 446h1045v250h-1045v-250zM432 0h293v289h-293v-289zM432 815h293v291h-293v-291z" />
<glyph unicode="&#xf8;" horiz-adv-x="1228" d="M72 -25h151l62 74q14 -10 37.5 -23.5t61.5 -25.5t94.5 -20.5t137.5 -8.5q145 0 247 41t165.5 115t92 175t28.5 222q0 104 -12.5 178t-29.5 123t-36.5 79t-36.5 48l123 150h-149l-58 -70q-16 8 -40.5 20.5t-63.5 22.5t-95.5 18.5t-134.5 8.5q-289 0 -416.5 -145.5 t-127.5 -428.5q0 -94 12 -160.5t30.5 -113.5t39 -79t36.5 -54zM342 504q0 70 8 140.5t37 125.5t84 90t147 35q80 0 115 -12.5t64 -30.5l-430 -518q-10 41 -17.5 84t-7.5 86zM432 231l430 517q8 -41 13.5 -79t5.5 -79q0 -57 -4.5 -128t-28 -133.5t-74.5 -105.5t-143 -43 q-49 0 -77 4t-47.5 11.5t-35.5 16.5t-39 19z" />
<glyph unicode="&#xf9;" horiz-adv-x="1177" d="M123 285q0 -35 9 -88.5t45 -103.5t105.5 -86t192.5 -36q92 0 146.5 12.5t86 33t47 47t31.5 55.5v-119h279v1073h-285v-700q0 -92 -41 -135t-149 -43q-182 0 -182 163v715h-285v-788zM315 1505l224 -315h131l-113 315h-242z" />
<glyph unicode="&#xfa;" horiz-adv-x="1177" d="M123 285q0 -35 9 -88.5t45 -103.5t105.5 -86t192.5 -36q92 0 146.5 12.5t86 33t47 47t31.5 55.5v-119h279v1073h-285v-700q0 -92 -41 -135t-149 -43q-182 0 -182 163v715h-285v-788zM528 1190h136l213 315h-242z" />
<glyph unicode="&#xfb;" horiz-adv-x="1177" d="M123 285q0 -35 9 -88.5t45 -103.5t105.5 -86t192.5 -36q92 0 146.5 12.5t86 33t47 47t31.5 55.5v-119h279v1073h-285v-700q0 -92 -41 -135t-149 -43q-182 0 -182 163v715h-285v-788zM365 1190h129l106 156l107 -156h127l-111 311h-248z" />
<glyph unicode="&#xfc;" horiz-adv-x="1177" d="M123 285q0 -35 9 -88.5t45 -103.5t105.5 -86t192.5 -36q92 0 146.5 12.5t86 33t47 47t31.5 55.5v-119h279v1073h-285v-700q0 -92 -41 -135t-149 -43q-182 0 -182 163v715h-285v-788zM336 1225h205v243h-205v-243zM664 1225h204v243h-204v-243z" />
<glyph unicode="&#xff;" horiz-adv-x="1083" d="M0 1073l412 -999l-43 -105q-10 -25 -21.5 -46t-21.5 -27q-12 -8 -29.5 -10.5t-65.5 -2.5h-131v-237h209q12 0 36 1t51.5 7t57 17.5t54.5 33.5q23 18 42 45t40.5 65t44 91t51.5 127l401 1040h-301l-231 -733l-256 733h-299zM276 1225h205v243h-205v-243zM604 1225h205v243 h-205v-243z" />
<glyph unicode="&#x152;" horiz-adv-x="2283" d="M92 731q0 -158 38 -296t117 -242.5t200.5 -165t289.5 -60.5q96 0 164 8.5t116 20.5t83 26.5t63 26.5v-49h1086v244h-791v411h699v238h-699v338h768v239h-1063v-51q-37 18 -71.5 33.5t-74.5 26t-91.5 16.5t-122.5 6q-162 0 -293 -45t-224 -139t-143.5 -239.5t-50.5 -346.5 zM387 752q0 270 106.5 391t311.5 121q90 0 157.5 -25t111.5 -67t66.5 -95t22.5 -108v-473q0 -61 -23.5 -113.5t-69.5 -91.5t-111.5 -61.5t-147.5 -22.5q-96 0 -174 23.5t-133 85t-86 167t-31 269.5z" />
<glyph unicode="&#x153;" horiz-adv-x="1970" d="M70 539q0 -285 126 -426.5t398 -141.5q90 0 154.5 11.5t110.5 29t80 40t62 44.5q29 -25 61 -47t75 -39.5t102 -28t143 -10.5q150 0 246 33t153.5 84t80 112.5t26.5 118.5h-274q-10 -27 -20.5 -50t-32 -41.5t-59.5 -29t-101 -10.5q-94 0 -144.5 22.5t-75 60.5t-30.5 85 t-8 97h762q0 27 2 51t2 51q0 547 -518 547q-74 0 -130.5 -10.5t-101.5 -26.5t-83 -37.5t-75 -44.5q-41 29 -76.5 50.5t-77.5 36.5t-96.5 23.5t-134.5 8.5q-119 0 -219 -27.5t-172.5 -93.5t-113.5 -173.5t-41 -268.5zM352 528q0 84 11.5 150.5t40 113t77.5 71t127 24.5 q68 0 116 -14.5t79 -52.5t45 -102.5t14 -164.5q0 -106 -13 -177t-45 -114t-82 -60.5t-124 -17.5q-82 0 -131 29t-74.5 77t-33 109.5t-7.5 128.5zM1151 649q0 49 12.5 92t41 75t75.5 50.5t117 18.5t113.5 -19.5t67.5 -52.5t32 -76t8 -88h-467z" />
<glyph unicode="&#x178;" horiz-adv-x="1236" d="M-20 1470l479 -923v-547h295v551l506 919h-332l-324 -620l-291 620h-333zM352 1624h205v244h-205v-244zM680 1624h205v244h-205v-244z" />
<glyph unicode="&#x2c6;" horiz-adv-x="614" d="M74 1190h129l106 156l107 -156h127l-111 311h-248z" />
<glyph unicode="&#x2dc;" horiz-adv-x="747" d="M66 1274q0 -10 2 -21.5t2 -21.5h170v24q0 16 7 30.5t27 14.5t46 -11t54.5 -24.5t62.5 -24.5t71 -11q84 0 129 55t45 137q0 10 -2 20.5t-2 20.5h-166q-4 -20 -11 -41.5t-40 -21.5q-14 0 -38 10t-54.5 21.5t-65.5 21.5t-70 10q-68 0 -117.5 -48t-49.5 -140z" />
<glyph unicode="&#x2000;" horiz-adv-x="978" />
<glyph unicode="&#x2001;" horiz-adv-x="1956" />
<glyph unicode="&#x2002;" horiz-adv-x="978" />
<glyph unicode="&#x2003;" horiz-adv-x="1956" />
<glyph unicode="&#x2004;" horiz-adv-x="652" />
<glyph unicode="&#x2005;" horiz-adv-x="489" />
<glyph unicode="&#x2006;" horiz-adv-x="326" />
<glyph unicode="&#x2007;" horiz-adv-x="326" />
<glyph unicode="&#x2008;" horiz-adv-x="244" />
<glyph unicode="&#x2009;" horiz-adv-x="391" />
<glyph unicode="&#x200a;" horiz-adv-x="108" />
<glyph unicode="&#x2010;" horiz-adv-x="737" d="M127 446h483v250h-483v-250z" />
<glyph unicode="&#x2011;" horiz-adv-x="737" d="M127 446h483v250h-483v-250z" />
<glyph unicode="&#x2012;" horiz-adv-x="737" d="M127 446h483v250h-483v-250z" />
<glyph unicode="&#x2013;" horiz-adv-x="727" d="M123 446h483v250h-483v-250z" />
<glyph unicode="&#x2014;" horiz-adv-x="1617" d="M109 446h1400v250h-1400v-250z" />
<glyph unicode="&#x2018;" horiz-adv-x="430" d="M80 891h272v260h-151q2 43 7 73.5t23 61.5q23 37 52.5 59.5t64.5 45.5v79q-143 -14 -217 -129q-29 -41 -40 -92t-11 -102v-256z" />
<glyph unicode="&#x2019;" horiz-adv-x="430" d="M78 1210h153q-4 -43 -9 -73.5t-23 -61.5q-23 -37 -52.5 -59.5t-64.5 -44.5v-80q76 8 128 40t91 89q27 41 39 92t12 102v256h-274v-260z" />
<glyph unicode="&#x201a;" horiz-adv-x="501" d="M104 0h152q-2 -43 -7 -73.5t-24 -61.5q-23 -37 -52.5 -59.5t-63.5 -45.5v-79q74 8 126 39.5t91 89.5q27 41 39 92t12 102v256h-273v-260z" />
<glyph unicode="&#x201c;" horiz-adv-x="819" d="M78 891h272v260h-151q4 43 9 73.5t23 61.5q23 37 52.5 59.5t64.5 45.5v79q-76 -8 -128 -39.5t-91 -89.5q-27 -41 -39 -92t-12 -102v-256zM467 891h274v260h-153q4 43 9 73.5t24 61.5q23 37 52 59.5t64 45.5v79q-76 -8 -128 -39.5t-91 -89.5q-27 -41 -39 -92t-12 -102 v-256z" />
<glyph unicode="&#x201d;" horiz-adv-x="819" d="M88 1210h154q-4 -43 -9.5 -73.5t-23.5 -61.5q-23 -37 -52.5 -59.5t-64.5 -44.5v-80q76 8 128 40t91 89q27 41 39 92t12 102h-2v256h-272v-260zM457 1210h153q-4 -43 -9 -73.5t-23 -61.5q-23 -37 -52.5 -59.5t-64.5 -44.5v-80q76 8 128 40t91 89q27 41 39 92t12 102v256 h-274v-260z" />
<glyph unicode="&#x201e;" horiz-adv-x="860" d="M109 0h153q-4 -43 -9 -73.5t-24 -61.5q-23 -37 -52.5 -59.5t-63.5 -45.5v-79q76 8 128 39.5t91 89.5q27 41 39 92t12 102h-2v256h-272v-260zM477 0h154q-4 -43 -9.5 -73.5t-23.5 -61.5q-23 -37 -52.5 -59.5t-64.5 -45.5v-79q76 8 128.5 39.5t90.5 89.5q27 41 39.5 92 t12.5 102v256h-275v-260z" />
<glyph unicode="&#x2022;" horiz-adv-x="1085" d="M172 748q-2 -78 26.5 -147t80 -120t120 -82.5t146.5 -33.5q76 -2 142.5 25.5t117.5 78.5t80.5 118.5t29.5 145.5t-27.5 147.5t-76.5 121t-116.5 81t-145.5 29.5q-76 0 -143.5 -28.5t-118.5 -78t-82 -116t-33 -141.5z" />
<glyph unicode="&#x2026;" horiz-adv-x="1576" d="M104 0h293v289h-293v-289zM637 0h293v289h-293v-289zM1165 0h293v289h-293v-289z" />
<glyph unicode="&#x202f;" horiz-adv-x="391" />
<glyph unicode="&#x2039;" horiz-adv-x="604" d="M55 526l260 -413h220l-263 413l279 426h-213z" />
<glyph unicode="&#x203a;" horiz-adv-x="604" d="M53 952l281 -426l-264 -413h221l260 413l-285 426h-213z" />
<glyph unicode="&#x205f;" horiz-adv-x="489" />
<glyph unicode="&#x20ac;" horiz-adv-x="1529" d="M84 430h164q33 -94 91 -179t143 -148.5t199 -100.5t259 -37q84 0 164 12.5t149.5 36t123.5 56t89 73.5l-153 138q-145 -96 -340 -97q-86 0 -158 21.5t-127 56.5t-91 79t-52 89h573v219h-635q-2 16 -3 33.5t-1 34.5q0 16 1 37.5t3 38.5h635v219h-596q41 117 149.5 190.5 t291.5 73.5q96 0 173.5 -22.5t139.5 -63.5l166 164q-94 68 -214 104.5t-255 36.5q-145 0 -265 -37t-212.5 -101.5t-156 -153.5t-91.5 -191h-164v-219h111q-2 -23 -2 -41v-33v-31q0 -16 2 -39h-111v-219z" />
<glyph unicode="&#x2122;" horiz-adv-x="1290" d="M111 1352h153v-523h125v523h152v118h-430v-118zM604 829h121v504l104 -502h138l96 484v-484h117v639h-201l-78 -456l-90 456h-207v-641z" />
<glyph unicode="&#xe000;" horiz-adv-x="1075" d="M0 0v1075h1075v-1075h-1075z" />
<glyph unicode="&#xfb01;" horiz-adv-x="1073" d="M12 889h142v-889h284v889h178v184h-178v115q0 23 3 35t12 22q10 12 33.5 15.5t50.5 3.5h79v217h-149q-53 0 -118.5 -10.5t-112.5 -47.5q-47 -39 -64.5 -88t-17.5 -112v-150h-142v-184zM692 0h285v1073h-285v-1073zM692 1212h285v269h-285v-269z" />
<glyph unicode="&#xfb02;" horiz-adv-x="1073" d="M12 889h142v-889h284v889h178v184h-178v115q0 23 3 35t12 22q10 12 33.5 15.5t50.5 3.5h79v217h-149q-53 0 -118.5 -10.5t-112.5 -47.5q-47 -39 -64.5 -88t-17.5 -112v-150h-142v-184zM692 0h285v1481h-285v-1481z" />
</font>
</defs>
</svg>
